<?xml version="1.0" encoding="UTF-8"?>
<svg xmlns="http://www.w3.org/2000/svg" xmlns:xlink="http://www.w3.org/1999/xlink" width="72px" height="72px" viewBox="0 0 72 72" version="1.1">
<g id="surface1">
<path style=" stroke:none;fill-rule:nonzero;fill:rgb(0%,0%,0%);fill-opacity:1;" d="M 33.035156 0.191406 C 28.867188 0.570312 24.789062 1.636719 21.136719 3.300781 C 15.433594 5.890625 10.324219 10.121094 6.734375 15.195312 C 3.144531 20.285156 1.113281 25.582031 0.300781 31.964844 C 0.101562 33.535156 0.0742188 38.160156 0.253906 39.816406 C 0.507812 42.136719 1.207031 45.3125 1.902344 47.40625 C 2.101562 47.996094 2.300781 48.558594 2.347656 48.664062 C 2.402344 48.765625 2.574219 49.195312 2.726562 49.613281 C 3.871094 52.554688 5.773438 55.789062 8.058594 58.652344 C 9.371094 60.296875 11.683594 62.621094 13.324219 63.933594 C 13.550781 64.113281 13.75 64.285156 13.777344 64.324219 C 13.886719 64.457031 16.167969 66.054688 17.039062 66.597656 C 17.875 67.121094 20.746094 68.6875 20.875 68.6875 C 20.898438 68.6875 21.179688 68.8125 21.5 68.964844 C 24.136719 70.222656 28.207031 71.324219 31.992188 71.800781 C 33.824219 72.027344 38.121094 72.027344 39.96875 71.800781 C 45.5625 71.085938 50.246094 69.46875 54.742188 66.710938 C 55.523438 66.226562 57.589844 64.816406 57.914062 64.53125 C 57.988281 64.476562 58.40625 64.121094 58.832031 63.769531 C 60.109375 62.714844 60.707031 62.152344 62.046875 60.746094 C 67.460938 55.074219 70.792969 47.84375 71.710938 39.816406 C 71.890625 38.199219 71.863281 33.574219 71.664062 31.964844 C 71.113281 27.628906 70.085938 24.097656 68.292969 20.40625 C 67.332031 18.410156 66.390625 16.820312 65.191406 15.164062 C 64.261719 13.851562 64.1875 13.765625 63.074219 12.472656 C 58.550781 7.222656 52.539062 3.386719 45.769531 1.4375 C 44.191406 0.980469 42.234375 0.597656 40.167969 0.324219 C 38.828125 0.152344 34.414062 0.0664062 33.035156 0.191406 Z M 39.109375 1.378906 C 46.75 2.082031 53.699219 5.128906 59.410156 10.265625 C 60.308594 11.074219 62.847656 13.851562 63.632812 14.890625 C 66.914062 19.21875 69.152344 24.144531 70.140625 29.253906 C 71.464844 36.113281 70.777344 43.003906 68.113281 49.519531 C 66.953125 52.355469 64.8125 55.863281 62.726562 58.367188 C 61.660156 59.652344 59.410156 61.867188 58.050781 62.992188 C 56.113281 64.597656 52.765625 66.710938 50.800781 67.574219 C 50.601562 67.660156 50.011719 67.917969 49.488281 68.148438 C 44.148438 70.507812 37.3125 71.390625 31.085938 70.535156 C 23.683594 69.515625 16.523438 65.902344 11.203125 60.507812 C 5.621094 54.835938 2.3125 47.84375 1.339844 39.671875 C 1.160156 38.113281 1.1875 33.566406 1.394531 31.964844 C 2.691406 21.835938 7.832031 13.28125 16.132812 7.449219 C 20.046875 4.699219 24.90625 2.664062 29.546875 1.816406 C 30.707031 1.609375 32.746094 1.351562 33.578125 1.304688 C 35.121094 1.21875 37.738281 1.253906 39.109375 1.378906 Z M 39.109375 1.378906 "/>
<path style=" stroke:none;fill-rule:nonzero;fill:rgb(0%,0%,0%);fill-opacity:1;" d="M 35.847656 7.554688 C 35.601562 7.675781 35.3125 7.867188 35.21875 7.980469 C 35.046875 8.183594 35.046875 8.191406 35.238281 8.621094 C 35.472656 9.113281 35.484375 9.371094 35.300781 9.742188 C 35.121094 10.105469 35.128906 10.589844 35.328125 10.777344 C 35.410156 10.855469 35.648438 10.96875 35.847656 11.027344 C 36.371094 11.167969 36.617188 11.378906 36.617188 11.683594 C 36.617188 12.023438 36.5625 12.082031 36.046875 12.367188 C 34.792969 13.054688 34.234375 14.46875 34.675781 15.820312 C 34.792969 16.203125 34.804688 16.441406 34.730469 17.390625 C 34.675781 18.058594 34.566406 18.734375 34.449219 19.074219 C 34.351562 19.378906 34.261719 19.777344 34.261719 19.960938 C 34.261719 20.132812 34.195312 20.339844 34.125 20.417969 C 34.015625 20.539062 33.988281 20.863281 33.988281 22.101562 C 33.988281 24.011719 33.816406 29.929688 33.742188 30.253906 C 33.679688 30.511719 33.417969 28.054688 33.261719 25.886719 C 33.199219 24.933594 33.199219 24.203125 33.261719 23.46875 C 33.351562 22.472656 33.351562 22.40625 33.171875 22.148438 C 33 21.902344 32.972656 21.671875 32.898438 19.664062 C 32.855469 18.457031 32.765625 17.285156 32.710938 17.078125 C 32.484375 16.230469 32.128906 15.800781 31.367188 15.429688 C 30.953125 15.222656 30.726562 15.183594 30.089844 15.183594 C 28.839844 15.195312 27.84375 15.582031 27.460938 16.222656 C 27.363281 16.390625 27.171875 17.046875 27.054688 17.675781 C 26.925781 18.296875 26.746094 19.054688 26.648438 19.359375 C 26.367188 20.226562 26.402344 20.539062 26.882812 21.148438 C 27.117188 21.445312 27.164062 21.929688 27.007812 22.59375 C 26.773438 23.652344 26.726562 24.546875 26.882812 25.410156 C 27.027344 26.230469 27.019531 26.296875 26.835938 27.429688 C 26.59375 28.875 26.328125 30.464844 26.183594 31.394531 C 26.046875 32.28125 26.003906 32.375 25.621094 32.59375 C 25.234375 32.824219 24.152344 34.070312 23.765625 34.753906 C 23.339844 35.484375 22.992188 36.429688 22.765625 37.4375 C 22.421875 38.957031 22.179688 40.242188 22.214844 40.273438 C 22.234375 40.289062 22.578125 40.453125 22.976562 40.644531 C 23.375 40.832031 24.953125 41.632812 26.484375 42.421875 C 28.015625 43.210938 29.328125 43.859375 29.402344 43.859375 C 29.628906 43.859375 29.664062 43.675781 29.726562 42.328125 C 29.78125 41.261719 29.828125 40.945312 29.992188 40.585938 C 30.445312 39.605469 31.605469 39.035156 35.066406 38.046875 C 36.789062 37.558594 37.3125 37.359375 38.71875 36.617188 C 40.511719 35.675781 42.996094 34.039062 45 32.488281 C 47.375 30.652344 49.050781 28.371094 49.296875 26.636719 C 49.449219 25.523438 49.6875 23.6875 49.730469 23.183594 C 49.785156 22.632812 49.640625 22.355469 49.167969 22.128906 C 48.5 21.796875 47.992188 22.175781 47.203125 23.621094 C 45.796875 26.210938 45.472656 26.554688 42.617188 28.4375 C 42.046875 28.808594 41.546875 29.113281 41.5 29.113281 C 41.402344 29.113281 41.347656 28.730469 41.238281 27.210938 C 40.929688 22.785156 40.777344 19.816406 40.75 17.648438 C 40.714844 14.871094 40.605469 14.082031 40.132812 13.300781 C 39.808594 12.757812 39.199219 12.414062 38.402344 12.3125 C 37.839844 12.246094 37.46875 12.015625 37.332031 11.636719 C 37.207031 11.273438 37.324219 10.96875 37.640625 10.84375 C 38.699219 10.4375 38.882812 10.1875 38.882812 9.179688 C 38.882812 8.238281 38.628906 7.878906 37.695312 7.523438 C 37.035156 7.269531 36.417969 7.277344 35.847656 7.554688 Z M 36.425781 16.734375 C 36.617188 16.859375 36.5 18.628906 36.253906 19.523438 C 35.925781 20.671875 35.554688 21.214844 35.085938 21.214844 C 34.6875 21.214844 34.75 20.53125 35.265625 19.339844 C 35.421875 18.980469 35.601562 18.332031 35.671875 17.894531 C 35.835938 16.820312 36.054688 16.488281 36.425781 16.734375 Z M 30.761719 18.324219 C 30.953125 18.515625 30.941406 18.570312 30.707031 18.894531 C 30.515625 19.152344 30.5 19.253906 30.507812 20.40625 C 30.515625 21.378906 30.5625 21.804688 30.714844 22.40625 C 30.914062 23.15625 31.324219 24.078125 31.613281 24.421875 C 31.929688 24.792969 32.191406 25.230469 32.128906 25.289062 C 32.101562 25.324219 32.046875 25.304688 32.011719 25.25 C 31.976562 25.203125 31.765625 24.898438 31.539062 24.59375 C 30.671875 23.367188 30.460938 22.632812 30.390625 20.578125 C 30.351562 19.4375 30.308594 19 30.21875 18.921875 C 30.144531 18.867188 30.089844 18.722656 30.089844 18.609375 C 30.089844 18.199219 30.488281 18.027344 30.761719 18.324219 Z M 36.074219 21.261719 C 36.179688 21.40625 36.179688 21.75 36.019531 23.832031 C 35.945312 24.8125 36.054688 25.230469 36.589844 25.992188 C 37.6875 27.53125 38.074219 28.3125 37.949219 28.664062 C 37.914062 28.761719 37.695312 28.816406 37.222656 28.84375 C 36.679688 28.882812 36.417969 28.960938 35.855469 29.253906 C 35.464844 29.453125 34.964844 29.777344 34.730469 29.976562 C 34.503906 30.175781 34.285156 30.320312 34.242188 30.292969 C 34.007812 30.140625 34.386719 23.308594 34.675781 22.699219 C 34.902344 22.214844 35.699219 21.121094 35.835938 21.121094 C 35.898438 21.121094 36.007812 21.1875 36.074219 21.261719 Z M 28.277344 21.699219 C 28.277344 21.804688 28.152344 22.167969 27.996094 22.5 C 27.652344 23.261719 27.542969 24.136719 27.769531 24.488281 C 27.859375 24.640625 27.90625 24.886719 27.886719 25.183594 L 27.871094 25.640625 L 28.351562 25.6875 C 28.902344 25.746094 28.976562 25.828125 29.058594 26.515625 C 29.140625 27.199219 29.03125 27.847656 28.765625 28.324219 C 28.511719 28.789062 28.496094 29.074219 28.695312 30.519531 C 28.765625 31.101562 28.820312 31.765625 28.804688 31.984375 C 28.777344 32.386719 28.765625 32.394531 28.460938 32.375 C 27.109375 32.28125 26.59375 32.222656 26.527344 32.164062 C 26.457031 32.089844 26.648438 30.632812 26.964844 28.980469 C 27.082031 28.339844 27.207031 27.609375 27.234375 27.351562 C 27.273438 27.085938 27.351562 26.648438 27.425781 26.363281 C 27.5625 25.867188 27.5625 25.847656 27.363281 25.660156 C 27.171875 25.46875 27.164062 25.421875 27.21875 24.222656 C 27.300781 22.394531 27.570312 21.5 28.050781 21.5 C 28.222656 21.5 28.277344 21.546875 28.277344 21.699219 Z M 40.367188 23.375 C 40.421875 23.527344 40.984375 27.628906 41.101562 28.703125 C 41.140625 29.09375 41.128906 29.300781 41.074219 29.300781 C 41.019531 29.300781 40.964844 29.265625 40.949219 29.226562 C 40.941406 29.179688 40.738281 29.007812 40.523438 28.84375 C 40.222656 28.617188 40.023438 28.542969 39.742188 28.542969 C 39.417969 28.542969 39.34375 28.503906 39.300781 28.324219 C 39.199219 27.914062 39.246094 27.160156 39.390625 26.941406 C 39.632812 26.5625 39.714844 26.144531 39.789062 24.765625 C 39.851562 23.414062 39.941406 23.082031 40.195312 23.175781 C 40.261719 23.203125 40.339844 23.289062 40.367188 23.375 Z M 38.574219 23.640625 C 38.699219 23.851562 38.71875 24.042969 38.671875 24.765625 C 38.574219 26.363281 38.464844 26.535156 38.019531 25.746094 C 37.578125 24.933594 37.550781 23.9375 37.984375 23.566406 C 38.246094 23.347656 38.402344 23.367188 38.574219 23.640625 Z M 31.140625 25.820312 C 31.285156 25.933594 31.3125 26.078125 31.3125 26.847656 C 31.3125 27.550781 31.277344 27.828125 31.113281 28.226562 C 30.871094 28.808594 30.851562 29.425781 31.035156 30.957031 C 31.105469 31.527344 31.140625 32.050781 31.113281 32.128906 C 31.058594 32.28125 30.5625 32.433594 29.828125 32.507812 L 29.246094 32.566406 L 29.300781 31.101562 C 29.347656 29.816406 29.382812 29.570312 29.582031 29.113281 C 29.792969 28.636719 30.089844 26.972656 30.089844 26.316406 C 30.089844 25.894531 30.273438 25.6875 30.632812 25.6875 C 30.816406 25.6875 31.042969 25.746094 31.140625 25.820312 Z M 32.925781 26.941406 C 33.136719 28.152344 33.445312 30.40625 33.445312 30.730469 C 33.445312 30.96875 33.363281 31.042969 32.699219 31.433594 C 31.730469 31.984375 31.667969 31.945312 31.6875 30.699219 C 31.695312 30.007812 31.75 29.671875 31.949219 29.113281 C 32.121094 28.625 32.210938 28.113281 32.257812 27.484375 C 32.3125 26.628906 32.492188 26.066406 32.699219 26.066406 C 32.746094 26.066406 32.847656 26.46875 32.925781 26.941406 Z M 43.957031 28.378906 C 43.957031 28.609375 43.261719 29.636719 42.789062 30.09375 C 42.117188 30.75 41.445312 31.054688 40.648438 31.054688 C 40.125 31.054688 39.953125 31.015625 39.714844 30.84375 C 39.179688 30.445312 39.378906 30.0625 40.125 30.0625 C 40.929688 30.0625 41.671875 29.75 42.644531 29.007812 C 43.097656 28.65625 43.757812 28.253906 43.886719 28.253906 C 43.929688 28.253906 43.957031 28.3125 43.957031 28.378906 Z M 43.957031 28.378906 "/>
<path style=" stroke:none;fill-rule:nonzero;fill:rgb(0%,0%,0%);fill-opacity:1;" d="M 30.40625 10.855469 C 28.667969 11.035156 28.214844 11.234375 27.960938 11.929688 C 27.808594 12.347656 27.808594 12.394531 27.960938 13.015625 C 28.050781 13.367188 28.140625 13.796875 28.160156 13.957031 C 28.207031 14.234375 28.242188 14.269531 28.476562 14.269531 C 28.621094 14.269531 28.847656 14.183594 28.976562 14.082031 C 29.21875 13.878906 29.457031 13.832031 29.457031 13.984375 C 29.457031 14.03125 29.339844 14.164062 29.183594 14.289062 C 29.039062 14.402344 28.914062 14.574219 28.914062 14.671875 C 28.914062 15.144531 29.726562 14.871094 29.917969 14.335938 L 30.027344 14.003906 L 30.753906 13.964844 C 31.40625 13.9375 31.488281 13.910156 31.6875 13.671875 C 31.964844 13.328125 31.957031 13.035156 31.675781 12.75 C 31.394531 12.472656 31.394531 12.394531 31.675781 11.824219 C 31.820312 11.558594 31.902344 11.253906 31.886719 11.082031 C 31.859375 10.828125 31.820312 10.796875 31.539062 10.789062 C 31.367188 10.777344 30.859375 10.808594 30.40625 10.855469 Z M 30.40625 10.855469 "/>
<path style=" stroke:none;fill-rule:nonzero;fill:rgb(0%,0%,0%);fill-opacity:1;" d="M 52.050781 44.351562 C 51.109375 44.6875 50.421875 45.53125 49.976562 46.902344 C 49.738281 47.644531 49.738281 49.765625 49.976562 50.519531 C 50.347656 51.6875 50.953125 52.488281 51.808594 52.933594 C 53.300781 53.714844 55.304688 53.011719 56.03125 51.449219 C 56.285156 50.90625 56.429688 50.183594 56.3125 50.109375 C 56.273438 50.082031 55.941406 50.042969 55.566406 50.03125 L 54.898438 49.996094 L 54.769531 50.460938 C 54.515625 51.363281 53.964844 51.851562 53.191406 51.851562 C 52.667969 51.851562 52.269531 51.546875 51.933594 50.890625 C 51.261719 49.558594 51.398438 46.894531 52.1875 46.019531 C 52.675781 45.476562 53.292969 45.324219 53.828125 45.617188 C 54.21875 45.828125 54.644531 46.445312 54.761719 46.980469 L 54.871094 47.445312 L 55.550781 47.398438 C 55.929688 47.378906 56.265625 47.332031 56.3125 47.292969 C 56.421875 47.179688 56.03125 46.007812 55.714844 45.515625 C 55.351562 44.941406 54.652344 44.382812 54.144531 44.25 C 53.539062 44.085938 52.675781 44.132812 52.050781 44.351562 Z M 52.050781 44.351562 "/>
<path style=" stroke:none;fill-rule:nonzero;fill:rgb(0%,0%,0%);fill-opacity:1;" d="M 16.46875 44.304688 C 16.441406 44.351562 15.886719 46.113281 15.234375 48.234375 C 14.574219 50.355469 13.984375 52.257812 13.914062 52.46875 C 13.703125 53.078125 13.714844 53.085938 14.402344 53.085938 C 15.019531 53.085938 15.027344 53.085938 15.171875 52.761719 C 15.253906 52.582031 15.316406 52.402344 15.316406 52.34375 C 15.316406 52.296875 15.398438 51.964844 15.5 51.621094 L 15.6875 50.992188 L 17.210938 50.992188 C 18.328125 50.992188 18.761719 51.023438 18.824219 51.109375 C 18.878906 51.175781 19.050781 51.648438 19.222656 52.15625 L 19.523438 53.085938 L 20.320312 53.085938 C 20.898438 53.085938 21.117188 53.058594 21.117188 52.972656 C 21.117188 52.90625 20.5 50.90625 19.75 48.546875 L 18.378906 44.238281 L 17.445312 44.238281 C 16.929688 44.238281 16.488281 44.265625 16.46875 44.304688 Z M 17.855469 47.855469 C 18.117188 48.71875 18.351562 49.480469 18.371094 49.539062 C 18.40625 49.632812 18.164062 49.660156 17.320312 49.660156 C 16.550781 49.660156 16.222656 49.632812 16.222656 49.546875 C 16.222656 49.289062 17.257812 46.140625 17.320312 46.207031 C 17.355469 46.246094 17.601562 46.988281 17.855469 47.855469 Z M 17.855469 47.855469 "/>
<path style=" stroke:none;fill-rule:nonzero;fill:rgb(0%,0%,0%);fill-opacity:1;" d="M 25.378906 48.664062 L 25.378906 53.085938 L 30.542969 53.085938 L 30.542969 51.566406 L 27.007812 51.566406 L 27.007812 44.238281 L 25.378906 44.238281 Z M 25.378906 48.664062 "/>
<path style=" stroke:none;fill-rule:nonzero;fill:rgb(0%,0%,0%);fill-opacity:1;" d="M 34.621094 44.257812 C 34.621094 44.277344 34.613281 46.253906 34.613281 48.664062 L 34.613281 53.039062 L 35.382812 53.066406 L 36.164062 53.097656 L 36.164062 49.679688 L 37.59375 49.644531 C 39.21875 49.605469 39.5625 49.5 40.1875 48.84375 C 40.6875 48.3125 40.902344 47.75 40.914062 46.949219 C 40.921875 45.550781 40.105469 44.570312 38.71875 44.335938 C 38.273438 44.257812 34.621094 44.191406 34.621094 44.257812 Z M 38.664062 45.914062 C 39.101562 46.132812 39.246094 46.390625 39.246094 46.960938 C 39.246094 47.902344 38.792969 48.175781 37.207031 48.175781 L 36.207031 48.1875 L 36.179688 46.96875 L 36.152344 45.761719 L 37.261719 45.761719 C 38.085938 45.761719 38.429688 45.800781 38.664062 45.914062 Z M 38.664062 45.914062 "/>
<path style=" stroke:none;fill-rule:nonzero;fill:rgb(0%,0%,0%);fill-opacity:1;" d="M 43.957031 48.664062 L 43.957031 53.097656 L 44.738281 53.066406 L 45.507812 53.039062 L 45.507812 48.757812 C 45.507812 46.398438 45.5 44.417969 45.5 44.351562 C 45.5 44.265625 45.28125 44.238281 44.726562 44.238281 L 43.957031 44.238281 Z M 43.957031 48.664062 "/>
<path style=" stroke:none;fill-rule:nonzero;fill:rgb(0%,0%,0%);fill-opacity:1;" d="M 22.207031 52.230469 L 22.207031 53.097656 L 22.992188 53.066406 L 23.773438 53.039062 L 23.773438 51.421875 L 22.992188 51.394531 L 22.207031 51.363281 Z M 22.207031 52.230469 "/>
<path style=" stroke:none;fill-rule:nonzero;fill:rgb(0%,0%,0%);fill-opacity:1;" d="M 31.441406 52.039062 C 31.433594 52.402344 31.421875 52.78125 31.414062 52.867188 C 31.40625 53.019531 31.503906 53.039062 32.203125 53.066406 L 32.992188 53.097656 L 32.992188 51.375 L 31.449219 51.375 Z M 31.441406 52.039062 "/>
<path style=" stroke:none;fill-rule:nonzero;fill:rgb(0%,0%,0%);fill-opacity:1;" d="M 40.785156 52.230469 L 40.785156 53.097656 L 41.582031 53.066406 L 42.371094 53.039062 L 42.371094 51.421875 L 41.582031 51.394531 L 40.785156 51.363281 Z M 40.785156 52.230469 "/>
<path style=" stroke:none;fill-rule:nonzero;fill:rgb(0%,0%,0%);fill-opacity:1;" d="M 47.128906 52.230469 L 47.128906 53.097656 L 47.917969 53.066406 L 48.699219 53.039062 L 48.699219 51.421875 L 47.917969 51.394531 L 47.128906 51.363281 Z M 47.128906 52.230469 "/>
<path style=" stroke:none;fill-rule:nonzero;fill:rgb(0%,0%,0%);fill-opacity:1;" d="M 57.28125 52.230469 L 57.28125 53.085938 L 58.914062 53.085938 L 58.914062 51.375 L 57.28125 51.375 Z M 57.28125 52.230469 "/>
<path style=" stroke:none;fill-rule:nonzero;fill:rgb(0%,0%,0%);fill-opacity:1;" d="M 13.839844 54.609375 C 12.953125 54.789062 12.398438 55.789062 12.605469 56.855469 C 12.753906 57.625 13.433594 58.222656 14.15625 58.222656 C 14.609375 58.222656 15.109375 58.054688 15.378906 57.796875 C 15.617188 57.597656 15.617188 57.566406 15.472656 57.5 C 15.371094 57.464844 15.152344 57.519531 14.917969 57.644531 C 14.457031 57.882812 14.140625 57.902344 13.738281 57.699219 C 12.96875 57.3125 12.832031 55.835938 13.511719 55.238281 C 13.839844 54.953125 14.519531 54.894531 14.945312 55.132812 C 15.179688 55.253906 15.21875 55.253906 15.316406 55.132812 C 15.488281 54.914062 15.289062 54.734375 14.765625 54.617188 C 14.511719 54.5625 14.285156 54.523438 14.246094 54.523438 C 14.210938 54.53125 14.03125 54.570312 13.839844 54.609375 Z M 13.839844 54.609375 "/>
<path style=" stroke:none;fill-rule:nonzero;fill:rgb(0%,0%,0%);fill-opacity:1;" d="M 43.730469 54.609375 C 43.207031 54.75 42.980469 54.886719 42.753906 55.199219 C 42.0625 56.167969 42.261719 57.425781 43.195312 57.996094 C 43.558594 58.222656 43.675781 58.242188 44.210938 58.203125 C 44.546875 58.175781 44.953125 58.082031 45.117188 57.996094 C 45.40625 57.84375 45.40625 57.835938 45.40625 57.128906 L 45.40625 56.417969 L 44.820312 56.417969 C 44.292969 56.417969 44.230469 56.433594 44.230469 56.605469 C 44.230469 56.757812 44.292969 56.796875 44.546875 56.796875 L 44.863281 56.796875 L 44.863281 57.738281 L 44.464844 57.796875 C 43.894531 57.890625 43.550781 57.777344 43.242188 57.414062 C 42.734375 56.804688 42.769531 55.777344 43.324219 55.226562 C 43.550781 55 43.675781 54.953125 44.039062 54.953125 C 44.285156 54.953125 44.546875 55.007812 44.628906 55.074219 C 44.792969 55.21875 45.152344 55.179688 45.199219 55.019531 C 45.28125 54.75 44.257812 54.464844 43.730469 54.609375 Z M 43.730469 54.609375 "/>
<path style=" stroke:none;fill-rule:nonzero;fill:rgb(0%,0%,0%);fill-opacity:1;" d="M 47.539062 54.5625 C 47.492188 54.582031 47.292969 54.617188 47.113281 54.65625 C 46.125 54.828125 45.542969 56.246094 46.042969 57.273438 C 46.6875 58.59375 48.808594 58.480469 49.351562 57.101562 C 49.511719 56.710938 49.523438 56.066406 49.386719 55.683594 C 49.261719 55.3125 48.78125 54.816406 48.453125 54.714844 C 48.074219 54.589844 47.648438 54.523438 47.539062 54.5625 Z M 48.445312 55.199219 C 49.097656 55.730469 49.105469 56.996094 48.453125 57.53125 C 47.910156 57.984375 47.066406 57.851562 46.648438 57.261719 C 46.433594 56.949219 46.351562 55.988281 46.511719 55.65625 C 46.839844 55.019531 47.910156 54.761719 48.445312 55.199219 Z M 48.445312 55.199219 "/>
<path style=" stroke:none;fill-rule:nonzero;fill:rgb(0%,0%,0%);fill-opacity:1;" d="M 17.046875 54.914062 C 17.003906 55.035156 16.695312 55.769531 16.367188 56.550781 C 16.042969 57.328125 15.769531 58.003906 15.769531 58.054688 C 15.769531 58.089844 15.871094 58.128906 15.988281 58.128906 C 16.179688 58.128906 16.261719 58.035156 16.460938 57.558594 L 16.703125 56.988281 L 17.257812 56.988281 C 17.554688 56.988281 17.855469 57.023438 17.917969 57.0625 C 17.972656 57.101562 18.101562 57.347656 18.191406 57.605469 C 18.335938 58.023438 18.390625 58.082031 18.652344 58.109375 C 18.808594 58.128906 18.941406 58.121094 18.941406 58.089844 C 18.941406 58.054688 18.769531 57.613281 18.570312 57.101562 C 17.566406 54.597656 17.636719 54.75 17.375 54.722656 C 17.183594 54.695312 17.113281 54.742188 17.046875 54.914062 Z M 17.046875 54.914062 "/>
<path style=" stroke:none;fill-rule:nonzero;fill:rgb(0%,0%,0%);fill-opacity:1;" d="M 19.304688 56.417969 L 19.304688 58.128906 L 19.847656 58.128906 L 19.847656 56.84375 C 19.847656 56.140625 19.875 55.558594 19.921875 55.558594 C 19.957031 55.570312 20.246094 55.960938 20.574219 56.433594 C 21.390625 57.652344 21.816406 58.128906 22.078125 58.128906 L 22.296875 58.128906 L 22.296875 54.703125 L 21.761719 54.703125 L 21.707031 57.273438 L 21.027344 56.300781 C 20.019531 54.867188 19.867188 54.703125 19.566406 54.703125 L 19.304688 54.703125 Z M 19.304688 56.417969 "/>
<path style=" stroke:none;fill-rule:nonzero;fill:rgb(0%,0%,0%);fill-opacity:1;" d="M 23.835938 55.199219 C 23.726562 55.476562 23.539062 55.914062 23.429688 56.179688 C 23.019531 57.121094 22.660156 58.015625 22.660156 58.070312 C 22.660156 58.101562 22.777344 58.128906 22.921875 58.128906 C 23.140625 58.128906 23.203125 58.082031 23.246094 57.863281 C 23.273438 57.71875 23.375 57.464844 23.472656 57.292969 C 23.648438 57.007812 23.683594 56.988281 24.171875 56.988281 C 24.460938 56.988281 24.753906 57.023438 24.816406 57.0625 C 24.878906 57.109375 25.007812 57.359375 25.097656 57.613281 C 25.242188 58.023438 25.304688 58.082031 25.550781 58.109375 C 25.703125 58.128906 25.832031 58.109375 25.832031 58.0625 C 25.832031 58.023438 25.539062 57.246094 25.179688 56.339844 C 24.5625 54.800781 24.507812 54.703125 24.28125 54.703125 C 24.074219 54.703125 24.007812 54.78125 23.835938 55.199219 Z M 23.835938 55.199219 "/>
<path style=" stroke:none;fill-rule:nonzero;fill:rgb(0%,0%,0%);fill-opacity:1;" d="M 26.285156 56.417969 L 26.285156 58.128906 L 27.035156 58.128906 C 27.933594 58.128906 28.40625 57.929688 28.785156 57.40625 C 29.019531 57.09375 29.046875 56.96875 29.046875 56.378906 C 29.046875 55.816406 29.011719 55.644531 28.832031 55.378906 C 28.503906 54.894531 28.015625 54.703125 27.082031 54.703125 L 26.285156 54.703125 Z M 28.007812 55.253906 C 28.585938 55.703125 28.695312 56.597656 28.242188 57.226562 C 27.933594 57.644531 27.753906 57.738281 27.191406 57.796875 L 26.738281 57.835938 L 26.738281 56.472656 C 26.738281 55.730469 26.765625 55.085938 26.808594 55.046875 C 26.917969 54.921875 27.761719 55.066406 28.007812 55.253906 Z M 28.007812 55.253906 "/>
<path style=" stroke:none;fill-rule:nonzero;fill:rgb(0%,0%,0%);fill-opacity:1;" d="M 30.742188 54.867188 C 30.6875 54.960938 30.417969 55.589844 30.136719 56.273438 C 29.855469 56.949219 29.566406 57.632812 29.492188 57.785156 C 29.328125 58.136719 29.320312 58.128906 29.628906 58.128906 C 29.847656 58.128906 29.910156 58.070312 30.046875 57.699219 C 30.273438 57.074219 30.390625 56.988281 30.980469 56.988281 C 31.261719 56.988281 31.539062 57.023438 31.59375 57.0625 C 31.648438 57.101562 31.765625 57.359375 31.859375 57.625 C 32.019531 58.089844 32.046875 58.128906 32.328125 58.128906 C 32.628906 58.128906 32.691406 58.054688 32.546875 57.890625 C 32.511719 57.835938 32.328125 57.40625 32.148438 56.941406 C 31.394531 54.953125 31.296875 54.75 31.050781 54.722656 C 30.90625 54.703125 30.796875 54.75 30.742188 54.867188 Z M 30.742188 54.867188 "/>
<path style=" stroke:none;fill-rule:nonzero;fill:rgb(0%,0%,0%);fill-opacity:1;" d="M 34.53125 56.417969 L 34.53125 58.128906 L 35.300781 58.128906 C 36.21875 58.128906 36.554688 58.003906 36.960938 57.519531 C 37.304688 57.101562 37.378906 56.855469 37.324219 56.167969 C 37.242188 55.160156 36.625 54.703125 35.328125 54.703125 L 34.53125 54.703125 Z M 36.226562 55.226562 C 36.617188 55.503906 36.816406 55.929688 36.769531 56.472656 C 36.726562 57.207031 36.328125 57.652344 35.609375 57.785156 C 34.992188 57.902344 34.984375 57.882812 34.984375 56.425781 C 34.984375 55.703125 35.011719 55.085938 35.058594 55.046875 C 35.15625 54.933594 35.980469 55.054688 36.226562 55.226562 Z M 36.226562 55.226562 "/>
<path style=" stroke:none;fill-rule:nonzero;fill:rgb(0%,0%,0%);fill-opacity:1;" d="M 38.066406 56.417969 L 38.066406 58.128906 L 39.199219 58.128906 C 40.269531 58.128906 40.332031 58.121094 40.332031 57.9375 C 40.332031 57.757812 40.269531 57.75 39.425781 57.75 L 38.519531 57.75 L 38.519531 56.511719 L 39.246094 56.511719 C 39.90625 56.511719 39.96875 56.492188 39.96875 56.320312 C 39.96875 56.148438 39.90625 56.132812 39.246094 56.132812 L 38.519531 56.132812 L 38.519531 55.085938 L 39.378906 55.085938 C 40.179688 55.085938 40.242188 55.074219 40.242188 54.894531 C 40.242188 54.714844 40.179688 54.703125 39.152344 54.703125 L 38.066406 54.703125 Z M 38.066406 56.417969 "/>
<path style=" stroke:none;fill-rule:nonzero;fill:rgb(0%,0%,0%);fill-opacity:1;" d="M 50.121094 56.417969 L 50.121094 58.128906 L 50.664062 58.128906 L 50.664062 55.894531 L 51.0625 56.929688 C 51.28125 57.5 51.515625 58.003906 51.589844 58.042969 C 51.914062 58.273438 52.058594 58.101562 52.476562 56.988281 L 52.886719 55.902344 L 52.941406 58.128906 L 53.472656 58.128906 L 53.472656 54.695312 L 53.191406 54.722656 C 52.941406 54.75 52.894531 54.808594 52.511719 55.796875 C 51.742188 57.785156 51.824219 57.625 51.714844 57.359375 C 51.671875 57.234375 51.515625 56.875 51.390625 56.558594 C 51.253906 56.246094 51.035156 55.703125 50.890625 55.339844 C 50.664062 54.769531 50.609375 54.703125 50.375 54.703125 L 50.121094 54.703125 Z M 50.121094 56.417969 "/>
<path style=" stroke:none;fill-rule:nonzero;fill:rgb(0%,0%,0%);fill-opacity:1;" d="M 54.199219 56.417969 L 54.199219 58.128906 L 55.332031 58.128906 C 56.402344 58.128906 56.464844 58.121094 56.464844 57.9375 C 56.464844 57.757812 56.402344 57.75 55.558594 57.75 L 54.652344 57.75 L 54.652344 56.511719 L 55.378906 56.511719 C 56.039062 56.511719 56.101562 56.492188 56.101562 56.320312 C 56.101562 56.160156 56.03125 56.140625 55.40625 56.113281 L 54.699219 56.082031 L 54.671875 55.578125 L 54.644531 55.085938 L 55.558594 55.085938 C 56.382812 55.085938 56.472656 55.066406 56.445312 54.914062 C 56.421875 54.769531 56.285156 54.75 55.304688 54.722656 L 54.199219 54.695312 Z M 54.199219 56.417969 "/>
<path style=" stroke:none;fill-rule:nonzero;fill:rgb(0%,0%,0%);fill-opacity:1;" d="M 56.828125 54.894531 C 56.828125 55.074219 56.890625 55.085938 57.78125 55.085938 C 58.304688 55.085938 58.730469 55.121094 58.730469 55.171875 C 58.730469 55.207031 58.578125 55.4375 58.386719 55.664062 C 57.445312 56.804688 56.828125 57.691406 56.828125 57.902344 L 56.828125 58.128906 L 58.152344 58.128906 C 59.320312 58.128906 59.464844 58.109375 59.421875 57.976562 C 59.394531 57.890625 59.367188 57.804688 59.367188 57.785156 C 59.367188 57.765625 58.941406 57.75 58.414062 57.75 C 57.796875 57.75 57.460938 57.710938 57.460938 57.644531 C 57.460938 57.585938 57.644531 57.300781 57.859375 57.007812 C 58.085938 56.710938 58.511719 56.132812 58.8125 55.722656 C 59.121094 55.324219 59.367188 54.921875 59.367188 54.847656 C 59.367188 54.722656 59.15625 54.703125 58.097656 54.703125 C 56.890625 54.703125 56.828125 54.714844 56.828125 54.894531 Z M 56.828125 54.894531 "/>
</g>
</svg>
