<?xml version="1.0" encoding="UTF-8"?>
<svg xmlns="http://www.w3.org/2000/svg" xmlns:xlink="http://www.w3.org/1999/xlink" width="512px" height="512px" viewBox="0 0 512 512" version="1.1">
<g id="surface1">
<path style=" stroke:none;fill-rule:nonzero;fill:rgb(0%,0%,0%);fill-opacity:1;" d="M 234.925781 1.351562 C 205.277344 4.058594 176.273438 11.636719 150.300781 23.476562 C 109.761719 41.878906 73.410156 71.984375 47.886719 108.042969 C 22.363281 144.238281 7.925781 181.917969 2.125 227.316406 C 0.707031 238.476562 0.515625 271.355469 1.804688 283.128906 C 3.609375 299.636719 8.570312 322.234375 13.535156 337.117188 C 14.953125 341.3125 16.371094 345.300781 16.691406 346.046875 C 17.078125 346.789062 18.304688 349.835938 19.398438 352.8125 C 27.519531 373.714844 41.054688 396.71875 57.296875 417.082031 C 66.640625 428.785156 83.078125 445.292969 94.742188 454.628906 C 96.355469 455.914062 97.773438 457.132812 97.964844 457.402344 C 98.738281 458.351562 114.980469 469.714844 121.167969 473.574219 C 127.097656 477.292969 147.527344 488.457031 148.429688 488.457031 C 148.625 488.457031 150.621094 489.335938 152.878906 490.417969 C 171.632812 499.347656 200.570312 507.195312 227.511719 510.578125 C 240.53125 512.203125 271.082031 512.203125 284.230469 510.578125 C 323.996094 505.503906 357.316406 494.003906 389.285156 474.386719 C 394.828125 470.933594 409.523438 460.921875 411.84375 458.890625 C 412.359375 458.484375 415.324219 455.984375 418.351562 453.480469 C 427.441406 445.96875 431.695312 441.980469 441.234375 431.964844 C 479.710938 391.644531 503.429688 340.226562 509.9375 283.128906 C 511.226562 271.628906 511.035156 238.75 509.617188 227.316406 C 505.683594 196.464844 498.402344 171.367188 485.640625 145.117188 C 478.808594 130.910156 472.105469 119.609375 463.597656 107.839844 C 456.957031 98.503906 456.441406 97.894531 448.515625 88.695312 C 416.355469 51.347656 373.625 24.085938 325.476562 10.214844 C 314.265625 6.96875 300.34375 4.261719 285.648438 2.300781 C 276.109375 1.082031 244.722656 0.472656 234.925781 1.351562 Z M 278.105469 9.808594 C 332.4375 14.816406 381.875 36.464844 422.476562 72.996094 C 428.859375 78.75 446.90625 98.503906 452.511719 105.878906 C 475.84375 136.660156 491.761719 171.703125 498.789062 208.035156 C 508.199219 256.8125 503.300781 305.792969 484.351562 352.136719 C 476.101562 372.296875 460.890625 397.261719 446.066406 415.054688 C 438.460938 424.1875 422.476562 439.949219 412.808594 447.933594 C 399.015625 459.367188 375.234375 474.386719 361.25 480.542969 C 359.832031 481.148438 355.640625 482.976562 351.902344 484.601562 C 313.941406 501.378906 265.34375 507.671875 221.066406 501.582031 C 168.410156 494.34375 117.496094 468.632812 79.660156 430.273438 C 39.960938 389.953125 16.433594 340.226562 9.539062 282.113281 C 8.25 271.019531 8.441406 238.679688 9.925781 227.316406 C 19.140625 155.265625 55.6875 94.445312 114.722656 52.972656 C 142.566406 33.421875 177.113281 18.941406 210.109375 12.921875 C 218.359375 11.433594 232.863281 9.605469 238.792969 9.269531 C 249.75 8.660156 268.375 8.929688 278.105469 9.808594 Z M 278.105469 9.808594 "/>
<path style=" stroke:none;fill-rule:nonzero;fill:rgb(0%,0%,0%);fill-opacity:1;" d="M 254.90625 53.714844 C 253.164062 54.597656 251.101562 55.949219 250.457031 56.761719 C 249.234375 58.183594 249.234375 58.25 250.585938 61.292969 C 252.261719 64.8125 252.328125 66.636719 251.039062 69.277344 C 249.75 71.847656 249.8125 75.296875 251.230469 76.652344 C 251.8125 77.191406 253.488281 78.003906 254.90625 78.410156 C 258.640625 79.425781 260.382812 80.914062 260.382812 83.078125 C 260.382812 85.515625 259.996094 85.917969 256.320312 87.949219 C 247.429688 92.820312 243.433594 102.902344 246.589844 112.507812 C 247.429688 115.214844 247.492188 116.90625 246.976562 123.671875 C 246.589844 128.40625 245.816406 133.210938 244.980469 135.644531 C 244.269531 137.808594 243.625 140.652344 243.625 141.9375 C 243.625 143.15625 243.175781 144.644531 242.660156 145.183594 C 241.886719 146.0625 241.691406 148.363281 241.691406 157.160156 C 241.691406 170.757812 240.46875 212.835938 239.953125 215.136719 C 239.5 216.964844 237.632812 199.507812 236.535156 184.085938 C 236.085938 177.320312 236.085938 172.109375 236.535156 166.902344 C 237.179688 159.796875 237.179688 159.324219 235.890625 157.496094 C 234.667969 155.738281 234.472656 154.113281 233.957031 139.839844 C 233.636719 131.246094 232.992188 122.925781 232.605469 121.4375 C 230.992188 115.417969 228.480469 112.371094 223.066406 109.734375 C 220.101562 108.246094 218.488281 107.976562 213.976562 107.976562 C 205.082031 108.042969 197.992188 110.816406 195.285156 115.347656 C 194.578125 116.566406 193.222656 121.234375 192.386719 125.699219 C 191.484375 130.097656 190.195312 135.507812 189.488281 137.675781 C 187.488281 143.832031 187.746094 146.0625 191.164062 150.394531 C 192.835938 152.492188 193.160156 155.941406 192.0625 160.675781 C 190.390625 168.1875 190.066406 174.546875 191.164062 180.703125 C 192.191406 186.519531 192.128906 186.992188 190.839844 195.042969 C 189.101562 205.328125 187.230469 216.625 186.199219 223.253906 C 185.234375 229.546875 184.910156 230.222656 182.203125 231.78125 C 179.433594 233.402344 171.761719 242.265625 168.992188 247.136719 C 165.960938 252.347656 163.511719 259.042969 161.902344 266.214844 C 159.453125 277.039062 157.710938 286.171875 157.96875 286.375 C 158.097656 286.511719 160.546875 287.660156 163.382812 289.015625 C 166.21875 290.367188 177.433594 296.050781 188.328125 301.664062 C 199.21875 307.28125 208.5625 311.882812 209.078125 311.882812 C 210.691406 311.882812 210.949219 310.597656 211.398438 300.988281 C 211.785156 293.414062 212.109375 291.179688 213.269531 288.609375 C 216.492188 281.640625 224.742188 277.582031 249.363281 270.546875 C 261.605469 267.09375 265.34375 265.675781 275.335938 260.398438 C 288.097656 253.699219 305.757812 242.0625 320 231.035156 C 336.886719 217.980469 348.808594 201.742188 350.550781 189.429688 C 351.644531 181.515625 353.320312 168.457031 353.644531 164.871094 C 354.03125 160.945312 353 158.984375 349.648438 157.363281 C 344.878906 154.992188 341.269531 157.699219 335.660156 167.984375 C 325.671875 186.386719 323.351562 188.820312 303.050781 202.214844 C 298.988281 204.855469 295.445312 207.019531 295.121094 207.019531 C 294.414062 207.019531 294.027344 204.3125 293.253906 193.488281 C 291.0625 162.03125 289.964844 140.921875 289.773438 125.496094 C 289.515625 105.742188 288.742188 100.125 285.390625 94.578125 C 283.070312 90.722656 278.75 88.289062 273.078125 87.542969 C 269.082031 87.070312 266.441406 85.445312 265.472656 82.738281 C 264.570312 80.167969 265.410156 78.003906 267.664062 77.125 C 275.207031 74.214844 276.496094 72.457031 276.496094 65.285156 C 276.496094 58.585938 274.691406 56.015625 268.050781 53.515625 C 263.347656 51.6875 258.964844 51.753906 254.90625 53.714844 Z M 259.027344 119.003906 C 260.382812 119.882812 259.542969 132.464844 257.804688 138.824219 C 255.484375 147.011719 252.84375 150.867188 249.492188 150.867188 C 246.65625 150.867188 247.105469 145.996094 250.78125 137.539062 C 251.875 134.96875 253.164062 130.367188 253.679688 127.253906 C 254.839844 119.609375 256.386719 117.242188 259.027344 119.003906 Z M 218.746094 130.300781 C 220.101562 131.652344 220.035156 132.058594 218.359375 134.359375 C 217.007812 136.1875 216.878906 136.929688 216.941406 145.117188 C 217.007812 152.015625 217.328125 155.0625 218.425781 159.324219 C 219.84375 164.667969 222.742188 171.230469 224.804688 173.664062 C 227.0625 176.304688 228.929688 179.417969 228.480469 179.824219 C 228.285156 180.09375 227.898438 179.957031 227.640625 179.550781 C 227.382812 179.214844 225.902344 177.046875 224.289062 174.882812 C 218.101562 166.15625 216.621094 160.945312 216.105469 146.335938 C 215.847656 138.214844 215.523438 135.105469 214.878906 134.5625 C 214.363281 134.15625 213.976562 133.140625 213.976562 132.328125 C 213.976562 129.421875 216.8125 128.203125 218.746094 130.300781 Z M 256.515625 151.203125 C 257.289062 152.21875 257.289062 154.65625 256.128906 169.472656 C 255.613281 176.441406 256.386719 179.417969 260.1875 184.828125 C 267.988281 195.789062 270.757812 201.335938 269.855469 203.839844 C 269.597656 204.515625 268.050781 204.921875 264.699219 205.125 C 260.832031 205.394531 258.964844 205.9375 254.96875 208.035156 C 252.199219 209.453125 248.652344 211.753906 246.976562 213.175781 C 245.367188 214.597656 243.820312 215.609375 243.496094 215.40625 C 241.820312 214.324219 244.527344 165.75 246.589844 161.421875 C 248.203125 157.96875 253.875 150.191406 254.839844 150.191406 C 255.292969 150.191406 256.0625 150.664062 256.515625 151.203125 Z M 201.085938 154.316406 C 201.085938 155.0625 200.183594 157.632812 199.089844 160 C 196.640625 165.414062 195.867188 171.636719 197.476562 174.140625 C 198.121094 175.222656 198.445312 176.980469 198.316406 179.078125 L 198.1875 182.324219 L 201.601562 182.664062 C 205.535156 183.070312 206.050781 183.679688 206.628906 188.550781 C 207.210938 193.421875 206.4375 198.019531 204.566406 201.402344 C 202.761719 204.71875 202.632812 206.75 204.050781 217.03125 C 204.566406 221.160156 204.953125 225.894531 204.824219 227.449219 C 204.632812 230.292969 204.566406 230.359375 202.375 230.222656 C 192.773438 229.546875 189.101562 229.140625 188.648438 228.734375 C 188.132812 228.195312 189.488281 217.84375 191.742188 206.070312 C 192.578125 201.539062 193.480469 196.328125 193.675781 194.503906 C 193.933594 192.609375 194.511719 189.496094 195.027344 187.46875 C 195.996094 183.949219 195.996094 183.8125 194.578125 182.460938 C 193.222656 181.109375 193.160156 180.769531 193.546875 172.246094 C 194.125 159.253906 196.058594 152.894531 199.476562 152.894531 C 200.699219 152.894531 201.085938 153.234375 201.085938 154.316406 Z M 287.066406 166.222656 C 287.453125 167.304688 291.449219 196.464844 292.285156 204.109375 C 292.542969 206.882812 292.480469 208.371094 292.09375 208.371094 C 291.707031 208.371094 291.320312 208.101562 291.191406 207.832031 C 291.125 207.492188 289.707031 206.273438 288.160156 205.125 C 286.035156 203.5 284.617188 202.960938 282.617188 202.960938 C 280.296875 202.960938 279.78125 202.6875 279.460938 201.402344 C 278.75 198.496094 279.074219 193.148438 280.105469 191.59375 C 281.84375 188.886719 282.425781 185.910156 282.941406 176.101562 C 283.390625 166.496094 284.035156 164.125 285.839844 164.804688 C 286.292969 165.007812 286.871094 165.613281 287.066406 166.222656 Z M 274.304688 168.117188 C 275.207031 169.605469 275.335938 170.960938 275.011719 176.101562 C 274.304688 187.46875 273.53125 188.683594 270.371094 183.070312 C 267.214844 177.320312 267.019531 170.214844 270.113281 167.578125 C 271.984375 166.019531 273.078125 166.15625 274.304688 168.117188 Z M 221.453125 183.609375 C 222.484375 184.421875 222.679688 185.4375 222.679688 190.917969 C 222.679688 195.925781 222.421875 197.886719 221.261719 200.726562 C 219.519531 204.855469 219.390625 209.25 220.679688 220.144531 C 221.195312 224.203125 221.453125 227.925781 221.261719 228.464844 C 220.875 229.546875 217.328125 230.628906 212.109375 231.171875 L 207.984375 231.578125 L 208.371094 221.160156 C 208.691406 212.023438 208.949219 210.265625 210.367188 207.019531 C 211.851562 203.636719 213.976562 191.796875 213.976562 187.128906 C 213.976562 184.152344 215.265625 182.664062 217.84375 182.664062 C 219.132812 182.664062 220.746094 183.070312 221.453125 183.609375 Z M 234.152344 191.59375 C 235.632812 200.1875 237.824219 216.21875 237.824219 218.519531 C 237.824219 220.210938 237.246094 220.753906 232.539062 223.527344 C 225.644531 227.449219 225.191406 227.179688 225.320312 218.316406 C 225.386719 213.378906 225.773438 211.011719 227.191406 207.019531 C 228.414062 203.570312 229.058594 199.914062 229.382812 195.449219 C 229.769531 189.363281 231.058594 185.371094 232.539062 185.371094 C 232.863281 185.371094 233.570312 188.210938 234.152344 191.59375 Z M 312.589844 201.808594 C 312.589844 203.433594 307.625 210.738281 304.273438 213.988281 C 299.503906 218.65625 294.734375 220.820312 289.0625 220.820312 C 285.324219 220.820312 284.101562 220.550781 282.425781 219.332031 C 278.621094 216.492188 280.039062 213.785156 285.324219 213.785156 C 291.0625 213.785156 296.347656 211.550781 303.242188 206.273438 C 306.464844 203.773438 311.171875 200.929688 312.074219 200.929688 C 312.394531 200.929688 312.589844 201.335938 312.589844 201.808594 Z M 312.589844 201.808594 "/>
<path style=" stroke:none;fill-rule:nonzero;fill:rgb(0%,0%,0%);fill-opacity:1;" d="M 216.234375 77.191406 C 203.859375 78.476562 200.636719 79.898438 198.832031 84.835938 C 197.734375 87.8125 197.734375 88.152344 198.832031 92.550781 C 199.476562 95.054688 200.121094 98.097656 200.25 99.246094 C 200.570312 101.210938 200.828125 101.480469 202.503906 101.480469 C 203.535156 101.480469 205.148438 100.871094 206.050781 100.125 C 207.789062 98.707031 209.464844 98.367188 209.464844 99.449219 C 209.464844 99.789062 208.628906 100.734375 207.53125 101.613281 C 206.5 102.425781 205.597656 103.644531 205.597656 104.320312 C 205.597656 107.703125 211.398438 105.742188 212.753906 101.953125 L 213.527344 99.585938 L 218.683594 99.316406 C 223.324219 99.113281 223.902344 98.910156 225.320312 97.21875 C 227.320312 94.78125 227.253906 92.683594 225.257812 90.65625 C 223.257812 88.695312 223.257812 88.152344 225.257812 84.09375 C 226.289062 82.199219 226.867188 80.035156 226.738281 78.816406 C 226.546875 76.988281 226.289062 76.785156 224.289062 76.71875 C 223.066406 76.652344 219.457031 76.855469 216.234375 77.191406 Z M 216.234375 77.191406 "/>
<path style=" stroke:none;fill-rule:nonzero;fill:rgb(0%,0%,0%);fill-opacity:1;" d="M 370.144531 315.398438 C 363.441406 317.765625 358.542969 323.789062 355.382812 333.53125 C 353.707031 338.808594 353.707031 353.894531 355.382812 359.238281 C 358.027344 367.558594 362.34375 373.242188 368.402344 376.421875 C 379.039062 381.96875 393.28125 376.964844 398.4375 365.867188 C 400.242188 362.011719 401.273438 356.871094 400.433594 356.328125 C 400.175781 356.125 397.792969 355.855469 395.148438 355.789062 L 390.378906 355.519531 L 389.476562 358.832031 C 387.671875 365.261719 383.742188 368.710938 378.265625 368.710938 C 374.527344 368.710938 371.691406 366.546875 369.304688 361.878906 C 364.535156 352.40625 365.503906 333.464844 371.109375 327.238281 C 374.589844 323.382812 378.972656 322.300781 382.777344 324.398438 C 385.546875 325.886719 388.574219 330.285156 389.414062 334.070312 L 390.1875 337.386719 L 395.019531 337.046875 C 397.726562 336.914062 400.113281 336.574219 400.433594 336.304688 C 401.207031 335.492188 398.4375 327.171875 396.179688 323.652344 C 393.601562 319.59375 388.640625 315.601562 385.03125 314.65625 C 380.714844 313.503906 374.589844 313.84375 370.144531 315.398438 Z M 370.144531 315.398438 "/>
<path style=" stroke:none;fill-rule:nonzero;fill:rgb(0%,0%,0%);fill-opacity:1;" d="M 117.109375 315.0625 C 116.914062 315.398438 112.984375 327.914062 108.34375 343.003906 C 103.636719 358.089844 99.449219 371.621094 98.933594 373.109375 C 97.449219 377.4375 97.515625 377.503906 102.414062 377.503906 C 106.796875 377.503906 106.859375 377.503906 107.890625 375.203125 C 108.472656 373.917969 108.921875 372.632812 108.921875 372.226562 C 108.921875 371.890625 109.503906 369.523438 110.210938 367.085938 L 111.566406 362.621094 L 122.394531 362.621094 C 130.320312 362.621094 133.414062 362.824219 133.863281 363.433594 C 134.25 363.90625 135.476562 367.289062 136.699219 370.875 L 138.828125 377.503906 L 144.5 377.503906 C 148.625 377.503906 150.171875 377.300781 150.171875 376.695312 C 150.171875 376.21875 145.789062 362.011719 140.4375 345.234375 L 130.707031 314.585938 L 124.070312 314.585938 C 120.394531 314.585938 117.238281 314.789062 117.109375 315.0625 Z M 126.96875 340.296875 C 128.835938 346.453125 130.511719 351.863281 130.640625 352.269531 C 130.898438 352.945312 129.160156 353.148438 123.167969 353.148438 C 117.6875 353.148438 115.367188 352.945312 115.367188 352.339844 C 115.367188 350.511719 122.714844 328.117188 123.167969 328.59375 C 123.425781 328.863281 125.164062 334.140625 126.96875 340.296875 Z M 126.96875 340.296875 "/>
<path style=" stroke:none;fill-rule:nonzero;fill:rgb(0%,0%,0%);fill-opacity:1;" d="M 180.464844 346.046875 L 180.464844 377.503906 L 217.199219 377.503906 L 217.199219 366.679688 L 192.0625 366.679688 L 192.0625 314.585938 L 180.464844 314.585938 Z M 180.464844 346.046875 "/>
<path style=" stroke:none;fill-rule:nonzero;fill:rgb(0%,0%,0%);fill-opacity:1;" d="M 246.203125 314.722656 C 246.203125 314.859375 246.140625 328.929688 246.140625 346.046875 L 246.140625 377.167969 L 251.617188 377.371094 L 257.160156 377.574219 L 257.160156 353.285156 L 267.34375 353.015625 C 278.878906 352.746094 281.328125 352 285.777344 347.332031 C 289.320312 343.542969 290.867188 339.550781 290.933594 333.867188 C 290.996094 323.925781 285.195312 316.957031 275.335938 315.265625 C 272.175781 314.722656 246.203125 314.25 246.203125 314.722656 Z M 274.949219 326.496094 C 278.042969 328.050781 279.074219 329.878906 279.074219 333.9375 C 279.074219 340.632812 275.851562 342.597656 264.570312 342.597656 L 257.480469 342.664062 L 257.289062 334.003906 L 257.09375 325.414062 L 264.957031 325.414062 C 270.824219 325.414062 273.273438 325.683594 274.949219 326.496094 Z M 274.949219 326.496094 "/>
<path style=" stroke:none;fill-rule:nonzero;fill:rgb(0%,0%,0%);fill-opacity:1;" d="M 312.589844 346.046875 L 312.589844 377.574219 L 318.132812 377.371094 L 323.609375 377.167969 L 323.609375 346.722656 C 323.609375 329.945312 323.542969 315.875 323.542969 315.398438 C 323.542969 314.789062 321.996094 314.585938 318.066406 314.585938 L 312.589844 314.585938 Z M 312.589844 346.046875 "/>
<path style=" stroke:none;fill-rule:nonzero;fill:rgb(0%,0%,0%);fill-opacity:1;" d="M 157.90625 371.417969 L 157.90625 377.574219 L 163.511719 377.371094 L 169.054688 377.167969 L 169.054688 365.664062 L 163.511719 365.464844 L 157.90625 365.261719 Z M 157.90625 371.417969 "/>
<path style=" stroke:none;fill-rule:nonzero;fill:rgb(0%,0%,0%);fill-opacity:1;" d="M 223.582031 370.0625 C 223.515625 372.632812 223.453125 375.339844 223.386719 375.949219 C 223.324219 377.03125 224.03125 377.167969 228.996094 377.371094 L 234.601562 377.574219 L 234.601562 365.328125 L 223.644531 365.328125 Z M 223.582031 370.0625 "/>
<path style=" stroke:none;fill-rule:nonzero;fill:rgb(0%,0%,0%);fill-opacity:1;" d="M 290.03125 371.417969 L 290.03125 377.574219 L 295.703125 377.371094 L 301.308594 377.167969 L 301.308594 365.664062 L 295.703125 365.464844 L 290.03125 365.261719 Z M 290.03125 371.417969 "/>
<path style=" stroke:none;fill-rule:nonzero;fill:rgb(0%,0%,0%);fill-opacity:1;" d="M 335.144531 371.417969 L 335.144531 377.574219 L 340.753906 377.371094 L 346.296875 377.167969 L 346.296875 365.664062 L 340.753906 365.464844 L 335.144531 365.261719 Z M 335.144531 371.417969 "/>
<path style=" stroke:none;fill-rule:nonzero;fill:rgb(0%,0%,0%);fill-opacity:1;" d="M 407.332031 371.417969 L 407.332031 377.503906 L 418.933594 377.503906 L 418.933594 365.328125 L 407.332031 365.328125 Z M 407.332031 371.417969 "/>
<path style=" stroke:none;fill-rule:nonzero;fill:rgb(0%,0%,0%);fill-opacity:1;" d="M 98.417969 388.328125 C 92.101562 389.613281 88.167969 396.71875 89.652344 404.296875 C 90.683594 409.777344 95.515625 414.039062 100.671875 414.039062 C 103.894531 414.039062 107.441406 412.820312 109.375 410.992188 C 111.050781 409.574219 111.050781 409.371094 110.019531 408.894531 C 109.308594 408.625 107.761719 409.03125 106.085938 409.910156 C 102.800781 411.601562 100.542969 411.738281 97.707031 410.316406 C 92.230469 407.542969 91.261719 397.058594 96.097656 392.796875 C 98.417969 390.765625 103.25 390.359375 106.28125 392.050781 C 107.957031 392.929688 108.214844 392.929688 108.921875 392.050781 C 110.148438 390.496094 108.730469 389.210938 104.992188 388.398438 C 103.1875 387.992188 101.574219 387.722656 101.316406 387.722656 C 101.058594 387.789062 99.769531 388.058594 98.417969 388.328125 Z M 98.417969 388.328125 "/>
<path style=" stroke:none;fill-rule:nonzero;fill:rgb(0%,0%,0%);fill-opacity:1;" d="M 310.976562 388.328125 C 307.238281 389.34375 305.628906 390.292969 304.015625 392.523438 C 299.117188 399.425781 300.535156 408.355469 307.175781 412.414062 C 309.753906 414.039062 310.589844 414.171875 314.394531 413.902344 C 316.777344 413.699219 319.679688 413.023438 320.835938 412.414062 C 322.898438 411.332031 322.898438 411.265625 322.898438 406.257812 L 322.898438 401.183594 L 318.710938 401.183594 C 314.972656 401.183594 314.523438 401.320312 314.523438 402.535156 C 314.523438 403.621094 314.972656 403.890625 316.777344 403.890625 L 319.035156 403.890625 L 319.035156 410.585938 L 316.199219 410.992188 C 312.136719 411.671875 309.6875 410.859375 307.496094 408.289062 C 303.886719 403.957031 304.144531 396.652344 308.078125 392.726562 C 309.6875 391.105469 310.589844 390.765625 313.167969 390.765625 C 314.910156 390.765625 316.777344 391.171875 317.359375 391.644531 C 318.519531 392.660156 321.09375 392.390625 321.417969 391.238281 C 321.996094 389.34375 314.714844 387.316406 310.976562 388.328125 Z M 310.976562 388.328125 "/>
<path style=" stroke:none;fill-rule:nonzero;fill:rgb(0%,0%,0%);fill-opacity:1;" d="M 338.046875 387.992188 C 337.722656 388.125 336.304688 388.398438 335.015625 388.667969 C 327.992188 389.886719 323.867188 399.964844 327.410156 407.273438 C 331.988281 416.675781 347.070312 415.863281 350.9375 406.054688 C 352.097656 403.28125 352.160156 398.679688 351.195312 395.976562 C 350.292969 393.335938 346.875 389.816406 344.554688 389.074219 C 341.847656 388.195312 338.820312 387.722656 338.046875 387.992188 Z M 344.492188 392.523438 C 349.132812 396.3125 349.195312 405.3125 344.554688 409.097656 C 340.6875 412.347656 334.695312 411.398438 331.730469 407.203125 C 330.183594 404.972656 329.601562 398.140625 330.761719 395.773438 C 333.082031 391.238281 340.6875 389.414062 344.492188 392.523438 Z M 344.492188 392.523438 "/>
<path style=" stroke:none;fill-rule:nonzero;fill:rgb(0%,0%,0%);fill-opacity:1;" d="M 121.234375 390.496094 C 120.910156 391.375 118.71875 396.582031 116.398438 402.132812 C 114.078125 407.679688 112.144531 412.480469 112.144531 412.820312 C 112.144531 413.089844 112.855469 413.363281 113.691406 413.363281 C 115.046875 413.363281 115.625 412.683594 117.042969 409.300781 L 118.785156 405.242188 L 122.714844 405.242188 C 124.84375 405.242188 126.96875 405.515625 127.421875 405.785156 C 127.808594 406.054688 128.707031 407.8125 129.351562 409.640625 C 130.382812 412.617188 130.769531 413.023438 132.640625 413.226562 C 133.734375 413.363281 134.703125 413.292969 134.703125 413.089844 C 134.703125 412.820312 133.476562 409.707031 132.058594 406.054688 C 124.90625 388.261719 125.421875 389.34375 123.554688 389.140625 C 122.199219 388.9375 121.683594 389.277344 121.234375 390.496094 Z M 121.234375 390.496094 "/>
<path style=" stroke:none;fill-rule:nonzero;fill:rgb(0%,0%,0%);fill-opacity:1;" d="M 137.28125 401.183594 L 137.28125 413.363281 L 141.148438 413.363281 L 141.148438 404.226562 C 141.148438 399.222656 141.339844 395.09375 141.664062 395.09375 C 141.921875 395.164062 143.984375 397.9375 146.304688 401.320312 C 152.105469 409.980469 155.132812 413.363281 157.003906 413.363281 L 158.550781 413.363281 L 158.550781 389.007812 L 154.746094 389.007812 L 154.554688 398.140625 L 154.359375 407.273438 L 149.527344 400.371094 C 142.371094 390.15625 141.277344 389.007812 139.148438 389.007812 L 137.28125 389.007812 Z M 137.28125 401.183594 "/>
<path style=" stroke:none;fill-rule:nonzero;fill:rgb(0%,0%,0%);fill-opacity:1;" d="M 169.507812 392.523438 C 168.734375 394.484375 167.378906 397.597656 166.605469 399.492188 C 163.707031 406.191406 161.128906 412.550781 161.128906 412.957031 C 161.128906 413.160156 161.964844 413.363281 162.996094 413.363281 C 164.542969 413.363281 164.996094 413.023438 165.316406 411.46875 C 165.511719 410.453125 166.21875 408.625 166.929688 407.40625 C 168.152344 405.378906 168.410156 405.242188 171.890625 405.242188 C 173.953125 405.242188 176.015625 405.515625 176.46875 405.785156 C 176.917969 406.121094 177.820312 407.882812 178.464844 409.707031 C 179.496094 412.617188 179.949219 413.023438 181.6875 413.226562 C 182.785156 413.363281 183.6875 413.226562 183.6875 412.886719 C 183.6875 412.617188 181.625 407.070312 179.046875 400.644531 C 174.664062 389.683594 174.277344 389.007812 172.664062 389.007812 C 171.183594 389.007812 170.730469 389.546875 169.507812 392.523438 Z M 169.507812 392.523438 "/>
<path style=" stroke:none;fill-rule:nonzero;fill:rgb(0%,0%,0%);fill-opacity:1;" d="M 186.910156 401.183594 L 186.910156 413.363281 L 192.257812 413.363281 C 198.636719 413.363281 201.988281 411.941406 204.695312 408.21875 C 206.371094 405.988281 206.566406 405.109375 206.566406 400.914062 C 206.566406 396.921875 206.308594 395.703125 205.019531 393.808594 C 202.699219 390.359375 199.21875 389.007812 192.578125 389.007812 L 186.910156 389.007812 Z M 199.152344 392.929688 C 203.277344 396.109375 204.050781 402.46875 200.828125 406.933594 C 198.636719 409.910156 197.347656 410.585938 193.351562 410.992188 L 190.132812 411.265625 L 190.132812 401.589844 C 190.132812 396.3125 190.324219 391.710938 190.648438 391.441406 C 191.421875 390.5625 197.414062 391.578125 199.152344 392.929688 Z M 199.152344 392.929688 "/>
<path style=" stroke:none;fill-rule:nonzero;fill:rgb(0%,0%,0%);fill-opacity:1;" d="M 218.617188 390.15625 C 218.230469 390.832031 216.296875 395.296875 214.300781 400.167969 C 212.300781 404.972656 210.238281 409.84375 209.722656 410.925781 C 208.5625 413.429688 208.5 413.363281 210.691406 413.363281 C 212.238281 413.363281 212.6875 412.957031 213.65625 410.316406 C 215.265625 405.851562 216.105469 405.242188 220.292969 405.242188 C 222.292969 405.242188 224.289062 405.515625 224.675781 405.785156 C 225.0625 406.054688 225.902344 407.882812 226.546875 409.777344 C 227.707031 413.089844 227.898438 413.363281 229.898438 413.363281 C 232.023438 413.363281 232.476562 412.820312 231.445312 411.671875 C 231.1875 411.265625 229.898438 408.21875 228.609375 404.90625 C 223.257812 390.765625 222.550781 389.34375 220.808594 389.140625 C 219.777344 389.007812 219.003906 389.34375 218.617188 390.15625 Z M 218.617188 390.15625 "/>
<path style=" stroke:none;fill-rule:nonzero;fill:rgb(0%,0%,0%);fill-opacity:1;" d="M 245.558594 401.183594 L 245.558594 413.363281 L 251.039062 413.363281 C 257.546875 413.363281 259.929688 412.480469 262.832031 409.03125 C 265.28125 406.054688 265.796875 404.296875 265.410156 399.425781 C 264.828125 392.253906 260.445312 389.007812 251.230469 389.007812 L 245.558594 389.007812 Z M 257.609375 392.726562 C 260.382812 394.6875 261.800781 397.734375 261.476562 401.589844 C 261.15625 406.800781 258.320312 409.980469 253.230469 410.925781 C 248.847656 411.738281 248.78125 411.601562 248.78125 401.25 C 248.78125 396.109375 248.976562 391.710938 249.296875 391.441406 C 250.007812 390.628906 255.871094 391.507812 257.609375 392.726562 Z M 257.609375 392.726562 "/>
<path style=" stroke:none;fill-rule:nonzero;fill:rgb(0%,0%,0%);fill-opacity:1;" d="M 270.695312 401.183594 L 270.695312 413.363281 L 278.75 413.363281 C 286.355469 413.363281 286.808594 413.292969 286.808594 412.007812 C 286.808594 410.722656 286.355469 410.65625 280.363281 410.65625 L 273.917969 410.65625 L 273.917969 401.859375 L 279.074219 401.859375 C 283.777344 401.859375 284.230469 401.726562 284.230469 400.507812 C 284.230469 399.289062 283.777344 399.15625 279.074219 399.15625 L 273.917969 399.15625 L 273.917969 391.710938 L 280.039062 391.710938 C 285.710938 391.710938 286.164062 391.644531 286.164062 390.359375 C 286.164062 389.074219 285.710938 389.007812 278.429688 389.007812 L 270.695312 389.007812 Z M 270.695312 401.183594 "/>
<path style=" stroke:none;fill-rule:nonzero;fill:rgb(0%,0%,0%);fill-opacity:1;" d="M 356.414062 401.183594 L 356.414062 413.363281 L 360.28125 413.363281 L 360.28125 397.464844 L 363.117188 404.835938 C 364.664062 408.894531 366.339844 412.480469 366.855469 412.753906 C 369.175781 414.375 370.207031 413.160156 373.171875 405.242188 L 376.074219 397.53125 L 376.265625 405.445312 L 376.460938 413.363281 L 380.261719 413.363281 L 380.261719 388.9375 L 378.265625 389.140625 C 376.460938 389.34375 376.136719 389.75 373.429688 396.785156 C 367.953125 410.925781 368.53125 409.777344 367.757812 407.882812 C 367.4375 407.003906 366.339844 404.429688 365.4375 402.199219 C 364.472656 399.964844 362.925781 396.109375 361.894531 393.539062 C 360.28125 389.480469 359.894531 389.007812 358.21875 389.007812 L 356.414062 389.007812 Z M 356.414062 401.183594 "/>
<path style=" stroke:none;fill-rule:nonzero;fill:rgb(0%,0%,0%);fill-opacity:1;" d="M 385.417969 401.183594 L 385.417969 413.363281 L 393.472656 413.363281 C 401.078125 413.363281 401.53125 413.292969 401.53125 412.007812 C 401.53125 410.722656 401.078125 410.65625 395.085938 410.65625 L 388.640625 410.65625 L 388.640625 401.859375 L 393.796875 401.859375 C 398.5 401.859375 398.953125 401.726562 398.953125 400.507812 C 398.953125 399.355469 398.4375 399.222656 393.988281 399.019531 L 388.960938 398.816406 L 388.769531 395.230469 L 388.574219 391.710938 L 395.085938 391.710938 C 400.949219 391.710938 401.59375 391.578125 401.402344 390.496094 C 401.207031 389.480469 400.242188 389.34375 393.28125 389.140625 L 385.417969 388.9375 Z M 385.417969 401.183594 "/>
<path style=" stroke:none;fill-rule:nonzero;fill:rgb(0%,0%,0%);fill-opacity:1;" d="M 404.109375 390.359375 C 404.109375 391.644531 404.558594 391.710938 410.875 391.710938 C 414.613281 391.710938 417.644531 391.984375 417.644531 392.320312 C 417.644531 392.59375 416.546875 394.214844 415.195312 395.839844 C 408.492188 403.957031 404.109375 410.25 404.109375 411.738281 L 404.109375 413.363281 L 413.519531 413.363281 C 421.832031 413.363281 422.863281 413.226562 422.542969 412.277344 C 422.347656 411.671875 422.15625 411.0625 422.15625 410.925781 C 422.15625 410.789062 419.125 410.65625 415.386719 410.65625 C 411.003906 410.65625 408.621094 410.386719 408.621094 409.910156 C 408.621094 409.503906 409.910156 407.476562 411.457031 405.378906 C 413.066406 403.28125 416.097656 399.15625 418.222656 396.246094 C 420.414062 393.402344 422.15625 390.5625 422.15625 390.019531 C 422.15625 389.140625 420.671875 389.007812 413.132812 389.007812 C 404.558594 389.007812 404.109375 389.074219 404.109375 390.359375 Z M 404.109375 390.359375 "/>
</g>
</svg>
