<?xml version="1.0" encoding="UTF-8"?>
<svg xmlns="http://www.w3.org/2000/svg" xmlns:xlink="http://www.w3.org/1999/xlink" width="96px" height="96px" viewBox="0 0 96 96" version="1.1">
<g id="surface1">
<path style=" stroke:none;fill-rule:nonzero;fill:rgb(0%,0%,0%);fill-opacity:1;" d="M 44.046875 0.253906 C 38.488281 0.761719 33.050781 2.183594 28.179688 4.402344 C 20.578125 7.851562 13.765625 13.496094 8.980469 20.257812 C 4.191406 27.042969 1.488281 34.109375 0.398438 42.621094 C 0.132812 44.714844 0.0976562 50.878906 0.339844 53.085938 C 0.675781 56.183594 1.605469 60.417969 2.539062 63.210938 C 2.804688 63.996094 3.070312 64.746094 3.128906 64.882812 C 3.203125 65.023438 3.433594 65.59375 3.636719 66.152344 C 5.160156 70.070312 7.699219 74.386719 10.742188 78.203125 C 12.496094 80.398438 15.578125 83.492188 17.765625 85.242188 C 18.066406 85.484375 18.332031 85.710938 18.367188 85.761719 C 18.511719 85.941406 21.558594 88.070312 22.71875 88.796875 C 23.832031 89.492188 27.660156 91.585938 27.832031 91.585938 C 27.867188 91.585938 28.242188 91.75 28.664062 91.953125 C 32.179688 93.628906 37.605469 95.097656 42.660156 95.734375 C 45.101562 96.039062 50.828125 96.039062 53.292969 95.734375 C 60.75 94.78125 66.996094 92.625 72.992188 88.945312 C 74.03125 88.300781 76.785156 86.421875 77.21875 86.042969 C 77.316406 85.964844 77.875 85.496094 78.441406 85.027344 C 80.144531 83.621094 80.941406 82.871094 82.730469 80.992188 C 89.945312 73.433594 94.394531 63.792969 95.613281 53.085938 C 95.855469 50.929688 95.820312 44.765625 95.554688 42.621094 C 94.816406 36.835938 93.449219 32.132812 91.058594 27.210938 C 89.777344 24.546875 88.519531 22.425781 86.925781 20.21875 C 85.679688 18.46875 85.582031 18.355469 84.097656 16.628906 C 78.066406 9.628906 70.054688 4.515625 61.027344 1.914062 C 58.925781 1.304688 56.3125 0.800781 53.558594 0.429688 C 51.769531 0.203125 45.886719 0.0898438 44.046875 0.253906 Z M 52.144531 1.839844 C 62.332031 2.777344 71.601562 6.835938 79.214844 13.6875 C 80.410156 14.765625 83.792969 18.46875 84.847656 19.851562 C 89.21875 25.625 92.207031 32.195312 93.523438 39.007812 C 95.285156 48.152344 94.367188 57.335938 90.816406 66.023438 C 89.269531 69.804688 86.417969 74.484375 83.636719 77.824219 C 82.210938 79.535156 79.214844 82.492188 77.402344 83.988281 C 74.816406 86.132812 70.355469 88.945312 67.734375 90.101562 C 67.46875 90.214844 66.683594 90.558594 65.980469 90.863281 C 58.863281 94.007812 49.753906 95.1875 41.449219 94.046875 C 31.578125 92.6875 22.03125 87.867188 14.9375 80.675781 C 7.492188 73.117188 3.082031 63.792969 1.789062 52.894531 C 1.546875 50.816406 1.582031 44.753906 1.859375 42.621094 C 3.589844 29.113281 10.441406 17.707031 21.511719 9.933594 C 26.730469 6.265625 33.207031 3.550781 39.394531 2.421875 C 40.941406 2.144531 43.660156 1.800781 44.773438 1.738281 C 46.828125 1.625 50.320312 1.675781 52.144531 1.839844 Z M 52.144531 1.839844 "/>
<path style=" stroke:none;fill-rule:nonzero;fill:rgb(0%,0%,0%);fill-opacity:1;" d="M 47.792969 10.070312 C 47.46875 10.238281 47.082031 10.492188 46.960938 10.644531 C 46.730469 10.910156 46.730469 10.921875 46.984375 11.492188 C 47.300781 12.152344 47.3125 12.496094 47.070312 12.988281 C 46.828125 13.472656 46.839844 14.117188 47.105469 14.371094 C 47.214844 14.472656 47.527344 14.625 47.792969 14.703125 C 48.496094 14.890625 48.820312 15.171875 48.820312 15.578125 C 48.820312 16.035156 48.75 16.109375 48.058594 16.492188 C 46.394531 17.402344 45.644531 19.292969 46.234375 21.09375 C 46.394531 21.601562 46.40625 21.917969 46.308594 23.1875 C 46.234375 24.074219 46.089844 24.976562 45.933594 25.433594 C 45.800781 25.839844 45.679688 26.371094 45.679688 26.613281 C 45.679688 26.839844 45.59375 27.121094 45.5 27.222656 C 45.351562 27.386719 45.316406 27.816406 45.316406 29.46875 C 45.316406 32.015625 45.085938 39.90625 44.992188 40.339844 C 44.90625 40.679688 44.554688 37.40625 44.351562 34.515625 C 44.265625 33.246094 44.265625 32.269531 44.351562 31.292969 C 44.472656 29.960938 44.472656 29.875 44.230469 29.53125 C 44 29.199219 43.964844 28.894531 43.867188 26.21875 C 43.808594 24.609375 43.6875 23.046875 43.613281 22.769531 C 43.3125 21.640625 42.839844 21.070312 41.824219 20.574219 C 41.269531 20.296875 40.964844 20.246094 40.121094 20.246094 C 38.453125 20.257812 37.125 20.777344 36.617188 21.628906 C 36.484375 21.855469 36.230469 22.730469 36.074219 23.570312 C 35.902344 24.394531 35.660156 25.40625 35.527344 25.8125 C 35.152344 26.96875 35.203125 27.386719 35.84375 28.199219 C 36.15625 28.59375 36.21875 29.238281 36.011719 30.125 C 35.699219 31.535156 35.636719 32.726562 35.84375 33.882812 C 36.035156 34.972656 36.023438 35.0625 35.78125 36.570312 C 35.457031 38.5 35.105469 40.617188 34.914062 41.859375 C 34.730469 43.039062 34.671875 43.167969 34.164062 43.457031 C 33.644531 43.761719 32.207031 45.425781 31.6875 46.339844 C 31.117188 47.316406 30.660156 48.570312 30.355469 49.914062 C 29.898438 51.945312 29.570312 53.65625 29.621094 53.695312 C 29.644531 53.722656 30.101562 53.9375 30.632812 54.191406 C 31.167969 54.445312 33.269531 55.507812 35.3125 56.5625 C 37.351562 57.613281 39.105469 58.476562 39.203125 58.476562 C 39.503906 58.476562 39.554688 58.238281 39.636719 56.433594 C 39.710938 55.015625 39.769531 54.597656 39.988281 54.113281 C 40.59375 52.808594 42.140625 52.046875 46.753906 50.726562 C 49.050781 50.082031 49.753906 49.8125 51.625 48.824219 C 54.019531 47.570312 57.328125 45.386719 60 43.320312 C 63.167969 40.871094 65.402344 37.828125 65.726562 35.519531 C 65.933594 34.035156 66.246094 31.585938 66.308594 30.914062 C 66.378906 30.175781 66.1875 29.808594 65.558594 29.503906 C 64.664062 29.0625 63.988281 29.570312 62.9375 31.496094 C 61.0625 34.945312 60.628906 35.402344 56.820312 37.914062 C 56.058594 38.410156 55.394531 38.816406 55.335938 38.816406 C 55.203125 38.816406 55.128906 38.308594 54.984375 36.277344 C 54.574219 30.378906 54.367188 26.421875 54.332031 23.53125 C 54.285156 19.828125 54.140625 18.773438 53.511719 17.734375 C 53.074219 17.011719 52.265625 16.554688 51.203125 16.414062 C 50.453125 16.324219 49.957031 16.019531 49.777344 15.515625 C 49.605469 15.03125 49.765625 14.625 50.1875 14.460938 C 51.601562 13.914062 51.84375 13.585938 51.84375 12.242188 C 51.84375 10.984375 51.503906 10.503906 50.261719 10.035156 C 49.378906 9.691406 48.554688 9.703125 47.792969 10.070312 Z M 48.566406 22.3125 C 48.820312 22.476562 48.664062 24.835938 48.339844 26.03125 C 47.902344 27.566406 47.40625 28.289062 46.78125 28.289062 C 46.246094 28.289062 46.332031 27.375 47.019531 25.789062 C 47.226562 25.304688 47.46875 24.445312 47.566406 23.859375 C 47.78125 22.425781 48.074219 21.984375 48.566406 22.3125 Z M 41.015625 24.429688 C 41.269531 24.683594 41.257812 24.761719 40.941406 25.191406 C 40.6875 25.535156 40.664062 25.675781 40.675781 27.210938 C 40.6875 28.503906 40.75 29.074219 40.953125 29.875 C 41.21875 30.875 41.765625 32.105469 42.152344 32.5625 C 42.574219 33.058594 42.925781 33.640625 42.839844 33.714844 C 42.804688 33.765625 42.730469 33.742188 42.683594 33.664062 C 42.632812 33.601562 42.355469 33.195312 42.054688 32.789062 C 40.894531 31.15625 40.617188 30.175781 40.519531 27.4375 C 40.472656 25.914062 40.410156 25.332031 40.289062 25.230469 C 40.191406 25.15625 40.121094 24.964844 40.121094 24.8125 C 40.121094 24.265625 40.652344 24.039062 41.015625 24.429688 Z M 48.097656 28.351562 C 48.242188 28.542969 48.242188 28.996094 48.023438 31.777344 C 47.925781 33.082031 48.074219 33.640625 48.785156 34.65625 C 50.246094 36.710938 50.765625 37.75 50.597656 38.21875 C 50.550781 38.347656 50.261719 38.421875 49.632812 38.460938 C 48.90625 38.511719 48.554688 38.613281 47.808594 39.007812 C 47.285156 39.273438 46.621094 39.703125 46.308594 39.96875 C 46.007812 40.238281 45.714844 40.425781 45.65625 40.390625 C 45.339844 40.1875 45.847656 31.078125 46.234375 30.265625 C 46.539062 29.621094 47.601562 28.160156 47.78125 28.160156 C 47.867188 28.160156 48.011719 28.25 48.097656 28.351562 Z M 37.703125 28.933594 C 37.703125 29.074219 37.535156 29.554688 37.328125 30 C 36.871094 31.015625 36.726562 32.183594 37.027344 32.652344 C 37.148438 32.855469 37.207031 33.183594 37.183594 33.578125 L 37.160156 34.1875 L 37.800781 34.25 C 38.539062 34.324219 38.632812 34.441406 38.742188 35.351562 C 38.851562 36.265625 38.707031 37.128906 38.355469 37.761719 C 38.019531 38.386719 37.992188 38.765625 38.261719 40.695312 C 38.355469 41.46875 38.429688 42.355469 38.40625 42.648438 C 38.367188 43.179688 38.355469 43.191406 37.945312 43.167969 C 36.144531 43.039062 35.457031 42.964844 35.371094 42.886719 C 35.273438 42.785156 35.527344 40.84375 35.953125 38.636719 C 36.109375 37.789062 36.277344 36.8125 36.3125 36.46875 C 36.363281 36.113281 36.472656 35.53125 36.566406 35.148438 C 36.75 34.492188 36.75 34.464844 36.484375 34.210938 C 36.230469 33.957031 36.21875 33.894531 36.289062 32.296875 C 36.398438 29.859375 36.761719 28.667969 37.402344 28.667969 C 37.632812 28.667969 37.703125 28.730469 37.703125 28.933594 Z M 53.824219 31.167969 C 53.898438 31.371094 54.648438 36.835938 54.804688 38.269531 C 54.851562 38.789062 54.839844 39.070312 54.765625 39.070312 C 54.695312 39.070312 54.621094 39.019531 54.597656 38.96875 C 54.585938 38.90625 54.320312 38.675781 54.03125 38.460938 C 53.632812 38.15625 53.367188 38.054688 52.992188 38.054688 C 52.554688 38.054688 52.460938 38.003906 52.398438 37.761719 C 52.265625 37.21875 52.328125 36.214844 52.519531 35.925781 C 52.847656 35.417969 52.953125 34.859375 53.050781 33.019531 C 53.136719 31.21875 53.257812 30.773438 53.59375 30.902344 C 53.679688 30.9375 53.789062 31.054688 53.824219 31.167969 Z M 51.433594 31.523438 C 51.601562 31.800781 51.625 32.054688 51.566406 33.019531 C 51.433594 35.148438 51.285156 35.378906 50.695312 34.324219 C 50.101562 33.246094 50.066406 31.914062 50.648438 31.421875 C 50.996094 31.128906 51.203125 31.15625 51.433594 31.523438 Z M 41.523438 34.425781 C 41.714844 34.578125 41.753906 34.769531 41.753906 35.796875 C 41.753906 36.734375 41.703125 37.105469 41.488281 37.636719 C 41.160156 38.410156 41.136719 39.234375 41.378906 41.277344 C 41.472656 42.039062 41.523438 42.734375 41.488281 42.835938 C 41.414062 43.039062 40.75 43.242188 39.769531 43.34375 L 38.996094 43.421875 L 39.070312 41.46875 C 39.128906 39.753906 39.179688 39.425781 39.445312 38.816406 C 39.722656 38.183594 40.121094 35.960938 40.121094 35.085938 C 40.121094 34.527344 40.363281 34.25 40.847656 34.25 C 41.085938 34.25 41.390625 34.324219 41.523438 34.425781 Z M 43.902344 35.925781 C 44.179688 37.535156 44.59375 40.542969 44.59375 40.972656 C 44.59375 41.289062 44.484375 41.390625 43.601562 41.910156 C 42.308594 42.648438 42.222656 42.597656 42.246094 40.933594 C 42.261719 40.007812 42.332031 39.566406 42.597656 38.816406 C 42.828125 38.167969 42.949219 37.484375 43.007812 36.648438 C 43.082031 35.503906 43.324219 34.757812 43.601562 34.757812 C 43.660156 34.757812 43.792969 35.289062 43.902344 35.925781 Z M 58.609375 37.839844 C 58.609375 38.144531 57.679688 39.515625 57.050781 40.121094 C 56.15625 40.996094 55.261719 41.402344 54.199219 41.402344 C 53.5 41.402344 53.269531 41.351562 52.953125 41.125 C 52.242188 40.59375 52.507812 40.085938 53.5 40.085938 C 54.574219 40.085938 55.566406 39.664062 56.859375 38.675781 C 57.460938 38.207031 58.34375 37.675781 58.511719 37.675781 C 58.574219 37.675781 58.609375 37.75 58.609375 37.839844 Z M 58.609375 37.839844 "/>
<path style=" stroke:none;fill-rule:nonzero;fill:rgb(0%,0%,0%);fill-opacity:1;" d="M 40.542969 14.472656 C 38.222656 14.714844 37.621094 14.980469 37.28125 15.90625 C 37.074219 16.464844 37.074219 16.527344 37.28125 17.351562 C 37.402344 17.824219 37.523438 18.394531 37.546875 18.609375 C 37.605469 18.976562 37.65625 19.027344 37.96875 19.027344 C 38.164062 19.027344 38.464844 18.914062 38.632812 18.773438 C 38.960938 18.507812 39.273438 18.445312 39.273438 18.648438 C 39.273438 18.710938 39.117188 18.886719 38.914062 19.054688 C 38.71875 19.203125 38.550781 19.433594 38.550781 19.558594 C 38.550781 20.195312 39.636719 19.828125 39.890625 19.117188 L 40.035156 18.671875 L 41.003906 18.621094 C 41.875 18.582031 41.980469 18.546875 42.246094 18.226562 C 42.621094 17.773438 42.609375 17.378906 42.234375 16.996094 C 41.859375 16.628906 41.859375 16.527344 42.234375 15.765625 C 42.429688 15.414062 42.539062 15.007812 42.511719 14.777344 C 42.476562 14.433594 42.429688 14.398438 42.054688 14.386719 C 41.824219 14.371094 41.148438 14.410156 40.542969 14.472656 Z M 40.542969 14.472656 "/>
<path style=" stroke:none;fill-rule:nonzero;fill:rgb(0%,0%,0%);fill-opacity:1;" d="M 69.402344 59.136719 C 68.144531 59.582031 67.226562 60.710938 66.632812 62.535156 C 66.320312 63.527344 66.320312 66.355469 66.632812 67.355469 C 67.128906 68.917969 67.941406 69.984375 69.074219 70.578125 C 71.070312 71.621094 73.738281 70.679688 74.707031 68.601562 C 75.046875 67.878906 75.238281 66.914062 75.082031 66.8125 C 75.035156 66.773438 74.585938 66.722656 74.089844 66.710938 L 73.195312 66.660156 L 73.027344 67.28125 C 72.6875 68.484375 71.953125 69.132812 70.925781 69.132812 C 70.222656 69.132812 69.691406 68.726562 69.246094 67.851562 C 68.351562 66.074219 68.53125 62.523438 69.582031 61.355469 C 70.234375 60.632812 71.058594 60.429688 71.769531 60.824219 C 72.289062 61.105469 72.859375 61.929688 73.015625 62.636719 L 73.160156 63.261719 L 74.066406 63.195312 C 74.574219 63.171875 75.019531 63.109375 75.082031 63.058594 C 75.226562 62.90625 74.707031 61.34375 74.285156 60.683594 C 73.800781 59.925781 72.871094 59.175781 72.191406 58.996094 C 71.382812 58.78125 70.234375 58.84375 69.402344 59.136719 Z M 69.402344 59.136719 "/>
<path style=" stroke:none;fill-rule:nonzero;fill:rgb(0%,0%,0%);fill-opacity:1;" d="M 21.957031 59.074219 C 21.921875 59.136719 21.183594 61.484375 20.3125 64.3125 C 19.433594 67.140625 18.648438 69.679688 18.550781 69.957031 C 18.273438 70.769531 18.285156 70.78125 19.203125 70.78125 C 20.023438 70.78125 20.035156 70.78125 20.230469 70.351562 C 20.339844 70.109375 20.421875 69.867188 20.421875 69.792969 C 20.421875 69.730469 20.53125 69.285156 20.664062 68.828125 L 20.917969 67.992188 L 22.949219 67.992188 C 24.433594 67.992188 25.015625 68.03125 25.101562 68.144531 C 25.171875 68.234375 25.402344 68.867188 25.632812 69.539062 L 26.03125 70.78125 L 27.09375 70.78125 C 27.867188 70.78125 28.15625 70.746094 28.15625 70.628906 C 28.15625 70.542969 27.335938 67.878906 26.332031 64.730469 L 24.507812 58.984375 L 23.261719 58.984375 C 22.574219 58.984375 21.980469 59.023438 21.957031 59.074219 Z M 23.808594 63.804688 C 24.15625 64.960938 24.472656 65.976562 24.496094 66.050781 C 24.542969 66.175781 24.21875 66.214844 23.09375 66.214844 C 22.066406 66.214844 21.632812 66.175781 21.632812 66.0625 C 21.632812 65.722656 23.007812 61.523438 23.09375 61.609375 C 23.140625 61.660156 23.46875 62.652344 23.808594 63.804688 Z M 23.808594 63.804688 "/>
<path style=" stroke:none;fill-rule:nonzero;fill:rgb(0%,0%,0%);fill-opacity:1;" d="M 33.835938 64.882812 L 33.835938 70.78125 L 40.726562 70.78125 L 40.726562 68.753906 L 36.011719 68.753906 L 36.011719 58.984375 L 33.835938 58.984375 Z M 33.835938 64.882812 "/>
<path style=" stroke:none;fill-rule:nonzero;fill:rgb(0%,0%,0%);fill-opacity:1;" d="M 46.164062 59.011719 C 46.164062 59.035156 46.152344 61.675781 46.152344 64.882812 L 46.152344 70.71875 L 47.179688 70.757812 L 48.21875 70.796875 L 48.21875 66.242188 L 50.125 66.191406 C 52.289062 66.140625 52.75 66 53.582031 65.125 C 54.246094 64.414062 54.539062 63.664062 54.550781 62.601562 C 54.5625 60.734375 53.472656 59.429688 51.625 59.113281 C 51.035156 59.011719 46.164062 58.921875 46.164062 59.011719 Z M 51.554688 61.21875 C 52.132812 61.507812 52.328125 61.851562 52.328125 62.613281 C 52.328125 63.867188 51.722656 64.238281 49.605469 64.238281 L 48.277344 64.25 L 48.242188 62.625 L 48.207031 61.015625 L 49.679688 61.015625 C 50.78125 61.015625 51.238281 61.066406 51.554688 61.21875 Z M 51.554688 61.21875 "/>
<path style=" stroke:none;fill-rule:nonzero;fill:rgb(0%,0%,0%);fill-opacity:1;" d="M 58.609375 64.882812 L 58.609375 70.796875 L 59.648438 70.757812 L 60.675781 70.71875 L 60.675781 65.011719 C 60.675781 61.863281 60.664062 59.226562 60.664062 59.136719 C 60.664062 59.023438 60.375 58.984375 59.636719 58.984375 L 58.609375 58.984375 Z M 58.609375 64.882812 "/>
<path style=" stroke:none;fill-rule:nonzero;fill:rgb(0%,0%,0%);fill-opacity:1;" d="M 29.605469 69.640625 L 29.605469 70.796875 L 30.660156 70.757812 L 31.699219 70.71875 L 31.699219 68.5625 L 30.660156 68.523438 L 29.605469 68.484375 Z M 29.605469 69.640625 "/>
<path style=" stroke:none;fill-rule:nonzero;fill:rgb(0%,0%,0%);fill-opacity:1;" d="M 41.921875 69.386719 C 41.910156 69.867188 41.898438 70.375 41.886719 70.492188 C 41.875 70.695312 42.007812 70.71875 42.9375 70.757812 L 43.988281 70.796875 L 43.988281 68.5 L 41.933594 68.5 Z M 41.921875 69.386719 "/>
<path style=" stroke:none;fill-rule:nonzero;fill:rgb(0%,0%,0%);fill-opacity:1;" d="M 54.378906 69.640625 L 54.378906 70.796875 L 55.445312 70.757812 L 56.496094 70.71875 L 56.496094 68.5625 L 55.445312 68.523438 L 54.378906 68.484375 Z M 54.378906 69.640625 "/>
<path style=" stroke:none;fill-rule:nonzero;fill:rgb(0%,0%,0%);fill-opacity:1;" d="M 62.839844 69.640625 L 62.839844 70.796875 L 63.890625 70.757812 L 64.929688 70.71875 L 64.929688 68.5625 L 63.890625 68.523438 L 62.839844 68.484375 Z M 62.839844 69.640625 "/>
<path style=" stroke:none;fill-rule:nonzero;fill:rgb(0%,0%,0%);fill-opacity:1;" d="M 76.375 69.640625 L 76.375 70.78125 L 78.550781 70.78125 L 78.550781 68.5 L 76.375 68.5 Z M 76.375 69.640625 "/>
<path style=" stroke:none;fill-rule:nonzero;fill:rgb(0%,0%,0%);fill-opacity:1;" d="M 18.453125 72.8125 C 17.269531 73.054688 16.53125 74.386719 16.808594 75.804688 C 17.003906 76.832031 17.910156 77.632812 18.875 77.632812 C 19.480469 77.632812 20.144531 77.402344 20.507812 77.0625 C 20.820312 76.796875 20.820312 76.757812 20.628906 76.667969 C 20.496094 76.617188 20.207031 76.695312 19.890625 76.859375 C 19.273438 77.175781 18.851562 77.199219 18.320312 76.933594 C 17.292969 76.414062 17.113281 74.449219 18.019531 73.648438 C 18.453125 73.269531 19.359375 73.191406 19.925781 73.507812 C 20.242188 73.675781 20.289062 73.675781 20.421875 73.507812 C 20.652344 73.21875 20.386719 72.976562 19.6875 72.824219 C 19.347656 72.75 19.046875 72.699219 18.996094 72.699219 C 18.949219 72.710938 18.707031 72.761719 18.453125 72.8125 Z M 18.453125 72.8125 "/>
<path style=" stroke:none;fill-rule:nonzero;fill:rgb(0%,0%,0%);fill-opacity:1;" d="M 58.308594 72.8125 C 57.605469 73.003906 57.304688 73.179688 57.003906 73.597656 C 56.085938 74.890625 56.351562 76.566406 57.59375 77.328125 C 58.078125 77.632812 58.234375 77.65625 58.949219 77.605469 C 59.394531 77.570312 59.941406 77.441406 60.15625 77.328125 C 60.542969 77.125 60.542969 77.113281 60.542969 76.171875 L 60.542969 75.222656 L 59.757812 75.222656 C 59.058594 75.222656 58.972656 75.246094 58.972656 75.476562 C 58.972656 75.679688 59.058594 75.730469 59.394531 75.730469 L 59.820312 75.730469 L 59.820312 76.984375 L 59.285156 77.0625 C 58.527344 77.1875 58.066406 77.035156 57.65625 76.554688 C 56.980469 75.742188 57.027344 74.371094 57.765625 73.636719 C 58.066406 73.332031 58.234375 73.269531 58.71875 73.269531 C 59.046875 73.269531 59.394531 73.34375 59.503906 73.433594 C 59.722656 73.625 60.207031 73.574219 60.265625 73.355469 C 60.375 73.003906 59.007812 72.621094 58.308594 72.8125 Z M 58.308594 72.8125 "/>
<path style=" stroke:none;fill-rule:nonzero;fill:rgb(0%,0%,0%);fill-opacity:1;" d="M 63.382812 72.75 C 63.324219 72.773438 63.058594 72.824219 62.816406 72.875 C 61.5 73.105469 60.726562 74.992188 61.390625 76.363281 C 62.246094 78.125 65.074219 77.976562 65.800781 76.136719 C 66.019531 75.613281 66.03125 74.753906 65.847656 74.246094 C 65.679688 73.75 65.039062 73.089844 64.605469 72.953125 C 64.097656 72.785156 63.527344 72.699219 63.382812 72.75 Z M 64.59375 73.597656 C 65.460938 74.308594 65.472656 75.996094 64.605469 76.707031 C 63.878906 77.316406 62.753906 77.136719 62.199219 76.351562 C 61.910156 75.933594 61.800781 74.652344 62.019531 74.207031 C 62.453125 73.355469 63.878906 73.015625 64.59375 73.597656 Z M 64.59375 73.597656 "/>
<path style=" stroke:none;fill-rule:nonzero;fill:rgb(0%,0%,0%);fill-opacity:1;" d="M 22.730469 73.21875 C 22.671875 73.382812 22.261719 74.359375 21.824219 75.398438 C 21.390625 76.441406 21.027344 77.339844 21.027344 77.402344 C 21.027344 77.453125 21.160156 77.503906 21.316406 77.503906 C 21.570312 77.503906 21.679688 77.378906 21.945312 76.746094 L 22.273438 75.984375 L 23.007812 75.984375 C 23.40625 75.984375 23.808594 76.035156 23.890625 76.085938 C 23.964844 76.136719 24.132812 76.464844 24.253906 76.808594 C 24.445312 77.367188 24.519531 77.441406 24.871094 77.480469 C 25.074219 77.503906 25.257812 77.492188 25.257812 77.453125 C 25.257812 77.402344 25.027344 76.820312 24.761719 76.136719 C 23.421875 72.800781 23.515625 73.003906 23.167969 72.964844 C 22.914062 72.925781 22.816406 72.988281 22.730469 73.21875 Z M 22.730469 73.21875 "/>
<path style=" stroke:none;fill-rule:nonzero;fill:rgb(0%,0%,0%);fill-opacity:1;" d="M 25.738281 75.222656 L 25.738281 77.503906 L 26.464844 77.503906 L 26.464844 75.792969 C 26.464844 74.855469 26.5 74.082031 26.5625 74.082031 C 26.609375 74.09375 26.996094 74.613281 27.433594 75.246094 C 28.519531 76.871094 29.085938 77.503906 29.4375 77.503906 L 29.726562 77.503906 L 29.726562 72.9375 L 29.015625 72.9375 L 28.980469 74.652344 L 28.941406 76.363281 L 28.035156 75.070312 C 26.695312 73.15625 26.488281 72.9375 26.089844 72.9375 L 25.738281 72.9375 Z M 25.738281 75.222656 "/>
<path style=" stroke:none;fill-rule:nonzero;fill:rgb(0%,0%,0%);fill-opacity:1;" d="M 31.78125 73.597656 C 31.636719 73.964844 31.382812 74.550781 31.238281 74.90625 C 30.695312 76.160156 30.210938 77.351562 30.210938 77.429688 C 30.210938 77.46875 30.367188 77.503906 30.5625 77.503906 C 30.851562 77.503906 30.9375 77.441406 30.996094 77.148438 C 31.035156 76.960938 31.167969 76.617188 31.300781 76.390625 C 31.527344 76.007812 31.578125 75.984375 32.230469 75.984375 C 32.617188 75.984375 33.003906 76.035156 33.085938 76.085938 C 33.171875 76.148438 33.339844 76.476562 33.460938 76.820312 C 33.65625 77.367188 33.738281 77.441406 34.066406 77.480469 C 34.273438 77.503906 34.441406 77.480469 34.441406 77.417969 C 34.441406 77.367188 34.054688 76.324219 33.570312 75.121094 C 32.75 73.066406 32.675781 72.9375 32.375 72.9375 C 32.097656 72.9375 32.011719 73.039062 31.78125 73.597656 Z M 31.78125 73.597656 "/>
<path style=" stroke:none;fill-rule:nonzero;fill:rgb(0%,0%,0%);fill-opacity:1;" d="M 35.046875 75.222656 L 35.046875 77.503906 L 36.046875 77.503906 C 37.246094 77.503906 37.875 77.238281 38.378906 76.542969 C 38.695312 76.121094 38.730469 75.957031 38.730469 75.171875 C 38.730469 74.421875 38.683594 74.195312 38.441406 73.839844 C 38.007812 73.191406 37.351562 72.9375 36.109375 72.9375 L 35.046875 72.9375 Z M 37.339844 73.675781 C 38.113281 74.269531 38.261719 75.464844 37.65625 76.300781 C 37.246094 76.859375 37.003906 76.984375 36.253906 77.0625 L 35.648438 77.113281 L 35.648438 75.296875 C 35.648438 74.308594 35.6875 73.445312 35.746094 73.394531 C 35.890625 73.230469 37.015625 73.421875 37.339844 73.675781 Z M 37.339844 73.675781 "/>
<path style=" stroke:none;fill-rule:nonzero;fill:rgb(0%,0%,0%);fill-opacity:1;" d="M 40.992188 73.15625 C 40.917969 73.28125 40.554688 74.117188 40.179688 75.03125 C 39.808594 75.933594 39.421875 76.84375 39.324219 77.046875 C 39.105469 77.519531 39.09375 77.503906 39.503906 77.503906 C 39.792969 77.503906 39.878906 77.429688 40.058594 76.933594 C 40.363281 76.097656 40.519531 75.984375 41.304688 75.984375 C 41.679688 75.984375 42.054688 76.035156 42.125 76.085938 C 42.199219 76.136719 42.355469 76.476562 42.476562 76.832031 C 42.695312 77.453125 42.730469 77.503906 43.105469 77.503906 C 43.503906 77.503906 43.589844 77.402344 43.394531 77.1875 C 43.347656 77.113281 43.105469 76.542969 42.863281 75.917969 C 41.859375 73.269531 41.726562 73.003906 41.402344 72.964844 C 41.207031 72.9375 41.0625 73.003906 40.992188 73.15625 Z M 40.992188 73.15625 "/>
<path style=" stroke:none;fill-rule:nonzero;fill:rgb(0%,0%,0%);fill-opacity:1;" d="M 46.042969 75.222656 L 46.042969 77.503906 L 47.070312 77.503906 C 48.289062 77.503906 48.738281 77.339844 49.28125 76.695312 C 49.738281 76.136719 49.835938 75.804688 49.765625 74.890625 C 49.65625 73.546875 48.832031 72.9375 47.105469 72.9375 L 46.042969 72.9375 Z M 48.300781 73.636719 C 48.820312 74.003906 49.085938 74.574219 49.027344 75.296875 C 48.964844 76.273438 48.433594 76.871094 47.480469 77.046875 C 46.660156 77.199219 46.648438 77.175781 46.648438 75.234375 C 46.648438 74.269531 46.683594 73.445312 46.742188 73.394531 C 46.875 73.242188 47.976562 73.40625 48.300781 73.636719 Z M 48.300781 73.636719 "/>
<path style=" stroke:none;fill-rule:nonzero;fill:rgb(0%,0%,0%);fill-opacity:1;" d="M 50.753906 75.222656 L 50.753906 77.503906 L 52.265625 77.503906 C 53.691406 77.503906 53.777344 77.492188 53.777344 77.25 C 53.777344 77.011719 53.691406 76.996094 52.566406 76.996094 L 51.359375 76.996094 L 51.359375 75.347656 L 52.328125 75.347656 C 53.207031 75.347656 53.292969 75.324219 53.292969 75.09375 C 53.292969 74.867188 53.207031 74.839844 52.328125 74.839844 L 51.359375 74.839844 L 51.359375 73.445312 L 52.507812 73.445312 C 53.570312 73.445312 53.65625 73.433594 53.65625 73.191406 C 53.65625 72.953125 53.570312 72.9375 52.207031 72.9375 L 50.753906 72.9375 Z M 50.753906 75.222656 "/>
<path style=" stroke:none;fill-rule:nonzero;fill:rgb(0%,0%,0%);fill-opacity:1;" d="M 66.828125 75.222656 L 66.828125 77.503906 L 67.554688 77.503906 L 67.554688 74.523438 L 68.085938 75.90625 C 68.375 76.667969 68.6875 77.339844 68.785156 77.390625 C 69.21875 77.695312 69.414062 77.46875 69.96875 75.984375 L 70.511719 74.535156 L 70.550781 76.019531 L 70.585938 77.503906 L 71.300781 77.503906 L 71.300781 72.925781 L 70.925781 72.964844 C 70.585938 73.003906 70.527344 73.078125 70.019531 74.398438 C 68.992188 77.046875 69.101562 76.832031 68.953125 76.476562 C 68.894531 76.3125 68.6875 75.832031 68.519531 75.414062 C 68.339844 74.992188 68.046875 74.269531 67.855469 73.789062 C 67.554688 73.027344 67.480469 72.9375 67.167969 72.9375 L 66.828125 72.9375 Z M 66.828125 75.222656 "/>
<path style=" stroke:none;fill-rule:nonzero;fill:rgb(0%,0%,0%);fill-opacity:1;" d="M 72.265625 75.222656 L 72.265625 77.503906 L 73.777344 77.503906 C 75.203125 77.503906 75.285156 77.492188 75.285156 77.25 C 75.285156 77.011719 75.203125 76.996094 74.078125 76.996094 L 72.871094 76.996094 L 72.871094 75.347656 L 73.835938 75.347656 C 74.71875 75.347656 74.804688 75.324219 74.804688 75.09375 C 74.804688 74.878906 74.707031 74.855469 73.875 74.816406 L 72.929688 74.777344 L 72.894531 74.105469 L 72.859375 73.445312 L 74.078125 73.445312 C 75.179688 73.445312 75.300781 73.421875 75.261719 73.21875 C 75.226562 73.027344 75.046875 73.003906 73.738281 72.964844 L 72.265625 72.925781 Z M 72.265625 75.222656 "/>
<path style=" stroke:none;fill-rule:nonzero;fill:rgb(0%,0%,0%);fill-opacity:1;" d="M 75.769531 73.191406 C 75.769531 73.433594 75.855469 73.445312 77.039062 73.445312 C 77.738281 73.445312 78.308594 73.496094 78.308594 73.558594 C 78.308594 73.609375 78.101562 73.914062 77.847656 74.21875 C 76.59375 75.742188 75.769531 76.921875 75.769531 77.199219 L 75.769531 77.503906 L 77.535156 77.503906 C 79.09375 77.503906 79.285156 77.480469 79.226562 77.300781 C 79.191406 77.1875 79.152344 77.074219 79.152344 77.046875 C 79.152344 77.023438 78.585938 76.996094 77.886719 76.996094 C 77.0625 76.996094 76.617188 76.945312 76.617188 76.859375 C 76.617188 76.78125 76.859375 76.402344 77.148438 76.007812 C 77.449219 75.613281 78.019531 74.839844 78.417969 74.296875 C 78.828125 73.761719 79.152344 73.230469 79.152344 73.128906 C 79.152344 72.964844 78.875 72.9375 77.460938 72.9375 C 75.855469 72.9375 75.769531 72.953125 75.769531 73.191406 Z M 75.769531 73.191406 "/>
</g>
</svg>
