<?xml version="1.0" encoding="UTF-8"?>
<svg xmlns="http://www.w3.org/2000/svg" xmlns:xlink="http://www.w3.org/1999/xlink" width="256px" height="256px" viewBox="0 0 256 256" version="1.1">
<g id="surface1">
<path style=" stroke:none;fill-rule:nonzero;fill:rgb(0%,0%,0%);fill-opacity:1;" d="M 117.460938 0.675781 C 102.636719 2.03125 88.136719 5.816406 75.148438 11.738281 C 54.878906 20.9375 36.703125 35.992188 23.945312 54.019531 C 11.183594 72.117188 3.964844 90.960938 1.0625 113.65625 C 0.355469 119.238281 0.257812 135.679688 0.902344 141.566406 C 1.804688 149.816406 4.285156 161.117188 6.765625 168.558594 C 7.476562 170.65625 8.183594 172.652344 8.347656 173.023438 C 8.539062 173.394531 9.152344 174.917969 9.699219 176.40625 C 13.761719 186.859375 20.527344 198.359375 28.648438 208.542969 C 33.320312 214.394531 41.539062 222.648438 47.371094 227.316406 C 48.175781 227.957031 48.886719 228.566406 48.984375 228.703125 C 49.371094 229.175781 57.492188 234.859375 60.585938 236.785156 C 63.550781 238.648438 73.765625 244.226562 74.214844 244.226562 C 74.3125 244.226562 75.3125 244.667969 76.4375 245.210938 C 85.816406 249.675781 100.285156 253.597656 113.757812 255.289062 C 120.265625 256.101562 135.539062 256.101562 142.113281 255.289062 C 161.996094 252.753906 178.660156 247.003906 194.640625 237.191406 C 197.414062 235.46875 204.761719 230.460938 205.921875 229.445312 C 206.179688 229.242188 207.660156 227.992188 209.175781 226.738281 C 213.71875 222.984375 215.847656 220.988281 220.617188 215.984375 C 239.855469 195.824219 251.714844 170.113281 254.96875 141.566406 C 255.613281 135.8125 255.515625 119.375 254.808594 113.65625 C 252.84375 98.234375 249.199219 85.683594 242.820312 72.558594 C 239.402344 65.453125 236.050781 59.804688 231.796875 53.917969 C 228.480469 49.25 228.222656 48.945312 224.257812 44.347656 C 208.175781 25.675781 186.8125 12.042969 162.738281 5.109375 C 157.132812 3.484375 150.171875 2.132812 142.824219 1.148438 C 138.054688 0.542969 122.359375 0.238281 117.460938 0.675781 Z M 139.054688 4.90625 C 166.21875 7.40625 190.9375 18.234375 211.238281 36.5 C 214.429688 39.375 223.453125 49.25 226.253906 52.9375 C 237.921875 68.328125 245.882812 85.851562 249.394531 104.015625 C 254.097656 128.40625 251.648438 152.894531 242.175781 176.066406 C 238.050781 186.148438 230.445312 198.628906 223.035156 207.527344 C 219.230469 212.09375 211.238281 219.976562 206.40625 223.964844 C 199.507812 229.683594 187.617188 237.191406 180.625 240.269531 C 179.914062 240.574219 177.820312 241.488281 175.953125 242.300781 C 156.972656 250.6875 132.671875 253.835938 110.535156 250.789062 C 84.207031 247.171875 58.746094 234.316406 39.832031 215.136719 C 19.980469 194.976562 8.21875 170.113281 4.769531 141.058594 C 4.125 135.507812 4.222656 119.339844 4.960938 113.65625 C 9.570312 77.632812 27.84375 47.222656 57.363281 26.484375 C 71.28125 16.710938 88.554688 9.472656 105.054688 6.460938 C 109.179688 5.714844 116.429688 4.804688 119.394531 4.632812 C 124.875 4.328125 134.1875 4.464844 139.054688 4.90625 Z M 139.054688 4.90625 "/>
<path style=" stroke:none;fill-rule:nonzero;fill:rgb(0%,0%,0%);fill-opacity:1;" d="M 127.453125 26.859375 C 126.582031 27.296875 125.550781 27.976562 125.230469 28.378906 C 124.617188 29.089844 124.617188 29.125 125.292969 30.648438 C 126.132812 32.40625 126.164062 33.320312 125.519531 34.636719 C 124.875 35.925781 124.90625 37.648438 125.617188 38.324219 C 125.90625 38.597656 126.742188 39.003906 127.453125 39.203125 C 129.320312 39.710938 130.191406 40.457031 130.191406 41.539062 C 130.191406 42.757812 129.996094 42.960938 128.160156 43.976562 C 123.714844 46.410156 121.714844 51.449219 123.296875 56.253906 C 123.714844 57.605469 123.746094 58.453125 123.488281 61.835938 C 123.296875 64.203125 122.910156 66.605469 122.488281 67.824219 C 122.136719 68.90625 121.8125 70.324219 121.8125 70.96875 C 121.8125 71.578125 121.585938 72.320312 121.328125 72.59375 C 120.941406 73.03125 120.847656 74.183594 120.847656 78.578125 C 120.847656 85.378906 120.234375 106.417969 119.976562 107.570312 C 119.75 108.480469 118.816406 99.753906 118.269531 92.042969 C 118.042969 88.660156 118.042969 86.054688 118.269531 83.449219 C 118.589844 79.898438 118.589844 79.660156 117.945312 78.75 C 117.332031 77.867188 117.238281 77.058594 116.980469 69.917969 C 116.816406 65.625 116.496094 61.464844 116.300781 60.71875 C 115.496094 57.707031 114.238281 56.1875 111.53125 54.867188 C 110.050781 54.121094 109.246094 53.988281 106.988281 53.988281 C 102.542969 54.019531 98.996094 55.40625 97.644531 57.675781 C 97.289062 58.285156 96.613281 60.617188 96.191406 62.851562 C 95.742188 65.046875 95.097656 67.753906 94.742188 68.835938 C 93.746094 71.914062 93.875 73.03125 95.582031 75.195312 C 96.417969 76.246094 96.578125 77.96875 96.03125 80.339844 C 95.195312 84.09375 95.035156 87.273438 95.582031 90.351562 C 96.097656 93.261719 96.0625 93.496094 95.421875 97.523438 C 94.550781 102.664062 93.617188 108.3125 93.101562 111.628906 C 92.617188 114.773438 92.457031 115.113281 91.101562 115.890625 C 89.714844 116.703125 85.882812 121.132812 84.496094 123.570312 C 82.980469 126.171875 81.757812 129.523438 80.949219 133.109375 C 79.726562 138.519531 78.855469 143.085938 78.984375 143.1875 C 79.050781 143.253906 80.273438 143.832031 81.691406 144.507812 C 83.109375 145.183594 88.71875 148.023438 94.164062 150.832031 C 99.609375 153.640625 104.28125 155.941406 104.539062 155.941406 C 105.34375 155.941406 105.472656 155.296875 105.699219 150.496094 C 105.894531 146.707031 106.054688 145.589844 106.632812 144.304688 C 108.246094 140.820312 112.371094 138.789062 124.679688 135.273438 C 130.804688 133.546875 132.671875 132.835938 137.667969 130.199219 C 144.046875 126.851562 152.878906 121.03125 160 115.519531 C 168.441406 108.988281 174.40625 100.871094 175.273438 94.714844 C 175.824219 90.757812 176.660156 84.226562 176.820312 82.433594 C 177.015625 80.472656 176.5 79.492188 174.824219 78.679688 C 172.4375 77.496094 170.632812 78.851562 167.832031 83.992188 C 162.835938 93.191406 161.675781 94.410156 151.523438 101.109375 C 149.496094 102.425781 147.722656 103.507812 147.5625 103.507812 C 147.207031 103.507812 147.011719 102.15625 146.625 96.746094 C 145.53125 81.015625 144.984375 70.460938 144.886719 62.75 C 144.757812 52.871094 144.371094 50.0625 142.695312 47.289062 C 141.535156 45.363281 139.375 44.144531 136.539062 43.773438 C 134.542969 43.535156 133.21875 42.722656 132.738281 41.371094 C 132.285156 40.085938 132.703125 39.003906 133.832031 38.5625 C 137.601562 37.109375 138.246094 36.226562 138.246094 32.644531 C 138.246094 29.292969 137.34375 28.007812 134.027344 26.757812 C 131.671875 25.84375 129.480469 25.878906 127.453125 26.859375 Z M 129.515625 59.5 C 130.191406 59.941406 129.773438 66.234375 128.902344 69.414062 C 127.742188 73.503906 126.421875 75.433594 124.746094 75.433594 C 123.328125 75.433594 123.554688 72.996094 125.390625 68.769531 C 125.9375 67.484375 126.582031 65.183594 126.839844 63.628906 C 127.421875 59.804688 128.191406 58.621094 129.515625 59.5 Z M 109.375 65.148438 C 110.050781 65.828125 110.019531 66.03125 109.179688 67.179688 C 108.503906 68.09375 108.4375 68.464844 108.472656 72.558594 C 108.503906 76.007812 108.664062 77.53125 109.210938 79.660156 C 109.921875 82.335938 111.371094 85.613281 112.402344 86.832031 C 113.53125 88.152344 114.464844 89.707031 114.238281 89.910156 C 114.144531 90.046875 113.949219 89.980469 113.820312 89.777344 C 113.691406 89.605469 112.949219 88.523438 112.144531 87.441406 C 109.050781 83.078125 108.308594 80.472656 108.050781 73.167969 C 107.921875 69.109375 107.761719 67.550781 107.441406 67.28125 C 107.183594 67.078125 106.988281 66.570312 106.988281 66.164062 C 106.988281 64.710938 108.40625 64.101562 109.375 65.148438 Z M 128.257812 75.601562 C 128.644531 76.109375 128.644531 77.328125 128.0625 84.734375 C 127.808594 88.21875 128.191406 89.707031 130.09375 92.414062 C 133.992188 97.894531 135.378906 100.667969 134.929688 101.917969 C 134.800781 102.257812 134.027344 102.460938 132.351562 102.5625 C 130.417969 102.699219 129.480469 102.96875 127.484375 104.015625 C 126.097656 104.726562 124.328125 105.878906 123.488281 106.585938 C 122.683594 107.296875 121.910156 107.804688 121.75 107.703125 C 120.910156 107.164062 122.265625 82.875 123.296875 80.710938 C 124.101562 78.984375 126.9375 75.09375 127.421875 75.09375 C 127.644531 75.09375 128.03125 75.332031 128.257812 75.601562 Z M 100.542969 77.160156 C 100.542969 77.53125 100.09375 78.816406 99.542969 80 C 98.320312 82.707031 97.933594 85.816406 98.738281 87.070312 C 99.0625 87.609375 99.222656 88.492188 99.15625 89.539062 L 99.09375 91.164062 L 100.800781 91.332031 C 102.765625 91.535156 103.023438 91.839844 103.316406 94.273438 C 103.605469 96.710938 103.21875 99.011719 102.285156 100.703125 C 101.382812 102.359375 101.316406 103.375 102.027344 108.515625 C 102.285156 110.578125 102.476562 112.945312 102.414062 113.726562 C 102.316406 115.144531 102.285156 115.179688 101.1875 115.113281 C 96.386719 114.773438 94.550781 114.570312 94.324219 114.367188 C 94.066406 114.097656 94.742188 108.921875 95.871094 103.035156 C 96.289062 100.769531 96.742188 98.164062 96.835938 97.25 C 96.964844 96.304688 97.257812 94.75 97.515625 93.734375 C 97.996094 91.976562 97.996094 91.90625 97.289062 91.230469 C 96.613281 90.554688 96.578125 90.386719 96.773438 86.121094 C 97.0625 79.628906 98.03125 76.449219 99.738281 76.449219 C 100.351562 76.449219 100.542969 76.617188 100.542969 77.160156 Z M 143.53125 83.113281 C 143.726562 83.652344 145.722656 98.234375 146.144531 102.054688 C 146.273438 103.441406 146.238281 104.1875 146.046875 104.1875 C 145.851562 104.1875 145.660156 104.050781 145.59375 103.914062 C 145.5625 103.746094 144.855469 103.136719 144.082031 102.5625 C 143.015625 101.75 142.308594 101.480469 141.308594 101.480469 C 140.148438 101.480469 139.890625 101.34375 139.730469 100.703125 C 139.375 99.246094 139.535156 96.574219 140.050781 95.796875 C 140.921875 94.445312 141.210938 92.957031 141.46875 88.050781 C 141.695312 83.246094 142.019531 82.0625 142.921875 82.402344 C 143.144531 82.503906 143.4375 82.808594 143.53125 83.113281 Z M 137.152344 84.058594 C 137.601562 84.804688 137.667969 85.480469 137.507812 88.050781 C 137.152344 93.734375 136.765625 94.34375 135.1875 91.535156 C 133.605469 88.660156 133.511719 85.109375 135.058594 83.789062 C 135.992188 83.011719 136.539062 83.078125 137.152344 84.058594 Z M 110.726562 91.804688 C 111.242188 92.210938 111.339844 92.71875 111.339844 95.457031 C 111.339844 97.960938 111.210938 98.941406 110.628906 100.363281 C 109.761719 102.425781 109.695312 104.625 110.339844 110.070312 C 110.597656 112.101562 110.726562 113.960938 110.628906 114.234375 C 110.4375 114.773438 108.664062 115.316406 106.054688 115.585938 L 103.992188 115.789062 L 104.183594 110.578125 C 104.347656 106.011719 104.476562 105.132812 105.183594 103.507812 C 105.925781 101.816406 106.988281 95.898438 106.988281 93.566406 C 106.988281 92.074219 107.632812 91.332031 108.921875 91.332031 C 109.566406 91.332031 110.371094 91.535156 110.726562 91.804688 Z M 117.074219 95.796875 C 117.816406 100.09375 118.914062 108.109375 118.914062 109.261719 C 118.914062 110.105469 118.621094 110.375 116.269531 111.761719 C 112.820312 113.726562 112.597656 113.589844 112.660156 109.160156 C 112.691406 106.6875 112.886719 105.503906 113.59375 103.507812 C 114.207031 101.785156 114.53125 99.957031 114.691406 97.726562 C 114.882812 94.679688 115.527344 92.683594 116.269531 92.683594 C 116.429688 92.683594 116.785156 94.105469 117.074219 95.796875 Z M 156.292969 100.90625 C 156.292969 101.714844 153.8125 105.371094 152.136719 106.992188 C 149.753906 109.328125 147.367188 110.410156 144.53125 110.410156 C 142.664062 110.410156 142.050781 110.273438 141.210938 109.664062 C 139.3125 108.246094 140.019531 106.890625 142.664062 106.890625 C 145.53125 106.890625 148.171875 105.777344 151.621094 103.136719 C 153.234375 101.886719 155.585938 100.464844 156.035156 100.464844 C 156.199219 100.464844 156.292969 100.667969 156.292969 100.90625 Z M 156.292969 100.90625 "/>
<path style=" stroke:none;fill-rule:nonzero;fill:rgb(0%,0%,0%);fill-opacity:1;" d="M 108.117188 38.597656 C 101.929688 39.238281 100.316406 39.949219 99.414062 42.417969 C 98.867188 43.90625 98.867188 44.074219 99.414062 46.273438 C 99.738281 47.527344 100.058594 49.046875 100.125 49.625 C 100.285156 50.605469 100.414062 50.738281 101.253906 50.738281 C 101.769531 50.738281 102.574219 50.433594 103.023438 50.0625 C 103.894531 49.351562 104.734375 49.183594 104.734375 49.726562 C 104.734375 49.894531 104.3125 50.367188 103.765625 50.808594 C 103.25 51.214844 102.800781 51.824219 102.800781 52.160156 C 102.800781 53.851562 105.699219 52.871094 106.375 50.976562 L 106.761719 49.792969 L 109.339844 49.65625 C 111.660156 49.554688 111.953125 49.453125 112.660156 48.609375 C 113.660156 47.390625 113.628906 46.34375 112.628906 45.328125 C 111.628906 44.347656 111.628906 44.074219 112.628906 42.046875 C 113.144531 41.097656 113.433594 40.015625 113.371094 39.40625 C 113.273438 38.496094 113.144531 38.394531 112.144531 38.359375 C 111.53125 38.324219 109.726562 38.425781 108.117188 38.597656 Z M 108.117188 38.597656 "/>
<path style=" stroke:none;fill-rule:nonzero;fill:rgb(0%,0%,0%);fill-opacity:1;" d="M 185.070312 157.699219 C 181.71875 158.882812 179.269531 161.894531 177.691406 166.765625 C 176.855469 169.402344 176.855469 176.945312 177.691406 179.621094 C 179.011719 183.78125 181.171875 186.621094 184.203125 188.210938 C 189.519531 190.984375 196.640625 188.480469 199.21875 182.933594 C 200.121094 181.007812 200.636719 178.433594 200.21875 178.164062 C 200.089844 178.0625 198.894531 177.929688 197.574219 177.894531 L 195.191406 177.757812 L 194.738281 179.417969 C 193.835938 182.628906 191.871094 184.355469 189.132812 184.355469 C 187.261719 184.355469 185.84375 183.273438 184.652344 180.9375 C 182.269531 176.203125 182.75 166.730469 185.554688 163.621094 C 187.296875 161.691406 189.488281 161.148438 191.386719 162.199219 C 192.773438 162.941406 194.289062 165.140625 194.707031 167.035156 L 195.09375 168.695312 L 197.511719 168.523438 C 198.863281 168.457031 200.054688 168.289062 200.21875 168.152344 C 200.605469 167.746094 199.21875 163.585938 198.089844 161.828125 C 196.800781 159.796875 194.320312 157.800781 192.515625 157.328125 C 190.355469 156.753906 187.296875 156.921875 185.070312 157.699219 Z M 185.070312 157.699219 "/>
<path style=" stroke:none;fill-rule:nonzero;fill:rgb(0%,0%,0%);fill-opacity:1;" d="M 58.554688 157.53125 C 58.457031 157.699219 56.492188 163.957031 54.171875 171.5 C 51.820312 179.042969 49.722656 185.808594 49.464844 186.554688 C 48.726562 188.71875 48.757812 188.753906 51.207031 188.753906 C 53.398438 188.753906 53.429688 188.753906 53.945312 187.601562 C 54.234375 186.960938 54.460938 186.316406 54.460938 186.113281 C 54.460938 185.945312 54.75 184.761719 55.105469 183.542969 L 55.78125 181.3125 L 61.195312 181.3125 C 65.160156 181.3125 66.707031 181.414062 66.933594 181.714844 C 67.125 181.953125 67.738281 183.644531 68.351562 185.4375 L 69.414062 188.753906 L 72.25 188.753906 C 74.3125 188.753906 75.085938 188.652344 75.085938 188.347656 C 75.085938 188.109375 72.894531 181.007812 70.21875 172.617188 L 65.351562 157.292969 L 62.035156 157.292969 C 60.199219 157.292969 58.617188 157.394531 58.554688 157.53125 Z M 63.484375 170.148438 C 64.417969 173.226562 65.257812 175.933594 65.320312 176.136719 C 65.449219 176.472656 64.578125 176.574219 61.582031 176.574219 C 58.84375 176.574219 57.683594 176.472656 57.683594 176.167969 C 57.683594 175.253906 61.359375 164.058594 61.582031 164.296875 C 61.710938 164.429688 62.582031 167.070312 63.484375 170.148438 Z M 63.484375 170.148438 "/>
<path style=" stroke:none;fill-rule:nonzero;fill:rgb(0%,0%,0%);fill-opacity:1;" d="M 90.230469 173.023438 L 90.230469 188.753906 L 108.601562 188.753906 L 108.601562 183.339844 L 96.03125 183.339844 L 96.03125 157.292969 L 90.230469 157.292969 Z M 90.230469 173.023438 "/>
<path style=" stroke:none;fill-rule:nonzero;fill:rgb(0%,0%,0%);fill-opacity:1;" d="M 123.101562 157.363281 C 123.101562 157.429688 123.070312 164.464844 123.070312 173.023438 L 123.070312 188.582031 L 125.808594 188.683594 L 128.578125 188.785156 L 128.578125 176.644531 L 133.671875 176.507812 C 139.441406 176.371094 140.664062 176 142.886719 173.664062 C 144.660156 171.773438 145.433594 169.777344 145.464844 166.933594 C 145.5 161.960938 142.597656 158.476562 137.667969 157.632812 C 136.089844 157.363281 123.101562 157.125 123.101562 157.363281 Z M 137.472656 163.246094 C 139.019531 164.023438 139.535156 164.9375 139.535156 166.96875 C 139.535156 170.316406 137.925781 171.296875 132.285156 171.296875 L 128.742188 171.332031 L 128.644531 167.003906 L 128.546875 162.707031 L 132.480469 162.707031 C 135.410156 162.707031 136.636719 162.839844 137.472656 163.246094 Z M 137.472656 163.246094 "/>
<path style=" stroke:none;fill-rule:nonzero;fill:rgb(0%,0%,0%);fill-opacity:1;" d="M 156.292969 173.023438 L 156.292969 188.785156 L 159.066406 188.683594 L 161.804688 188.582031 L 161.804688 173.363281 C 161.804688 164.972656 161.773438 157.9375 161.773438 157.699219 C 161.773438 157.394531 161 157.292969 159.035156 157.292969 L 156.292969 157.292969 Z M 156.292969 173.023438 "/>
<path style=" stroke:none;fill-rule:nonzero;fill:rgb(0%,0%,0%);fill-opacity:1;" d="M 78.953125 185.707031 L 78.953125 188.785156 L 81.757812 188.683594 L 84.527344 188.582031 L 84.527344 182.832031 L 81.757812 182.730469 L 78.953125 182.628906 Z M 78.953125 185.707031 "/>
<path style=" stroke:none;fill-rule:nonzero;fill:rgb(0%,0%,0%);fill-opacity:1;" d="M 111.789062 185.03125 C 111.757812 186.316406 111.726562 187.671875 111.695312 187.976562 C 111.660156 188.515625 112.015625 188.582031 114.496094 188.683594 L 117.300781 188.785156 L 117.300781 182.664062 L 111.824219 182.664062 Z M 111.789062 185.03125 "/>
<path style=" stroke:none;fill-rule:nonzero;fill:rgb(0%,0%,0%);fill-opacity:1;" d="M 145.015625 185.707031 L 145.015625 188.785156 L 147.851562 188.683594 L 150.65625 188.582031 L 150.65625 182.832031 L 147.851562 182.730469 L 145.015625 182.628906 Z M 145.015625 185.707031 "/>
<path style=" stroke:none;fill-rule:nonzero;fill:rgb(0%,0%,0%);fill-opacity:1;" d="M 167.574219 185.707031 L 167.574219 188.785156 L 170.375 188.683594 L 173.148438 188.582031 L 173.148438 182.832031 L 170.375 182.730469 L 167.574219 182.628906 Z M 167.574219 185.707031 "/>
<path style=" stroke:none;fill-rule:nonzero;fill:rgb(0%,0%,0%);fill-opacity:1;" d="M 203.664062 185.707031 L 203.664062 188.753906 L 209.464844 188.753906 L 209.464844 182.664062 L 203.664062 182.664062 Z M 203.664062 185.707031 "/>
<path style=" stroke:none;fill-rule:nonzero;fill:rgb(0%,0%,0%);fill-opacity:1;" d="M 49.207031 194.164062 C 46.050781 194.808594 44.085938 198.359375 44.824219 202.148438 C 45.339844 204.886719 47.757812 207.019531 50.335938 207.019531 C 51.949219 207.019531 53.71875 206.410156 54.6875 205.496094 C 55.523438 204.785156 55.523438 204.683594 55.007812 204.449219 C 54.65625 204.3125 53.882812 204.515625 53.042969 204.957031 C 51.398438 205.800781 50.273438 205.867188 48.855469 205.160156 C 46.113281 203.773438 45.632812 198.527344 48.046875 196.398438 C 49.207031 195.382812 51.625 195.179688 53.140625 196.023438 C 53.976562 196.464844 54.105469 196.464844 54.460938 196.023438 C 55.074219 195.246094 54.363281 194.605469 52.496094 194.199219 C 51.59375 193.996094 50.789062 193.859375 50.660156 193.859375 C 50.53125 193.894531 49.886719 194.03125 49.207031 194.164062 Z M 49.207031 194.164062 "/>
<path style=" stroke:none;fill-rule:nonzero;fill:rgb(0%,0%,0%);fill-opacity:1;" d="M 155.488281 194.164062 C 153.621094 194.671875 152.8125 195.144531 152.007812 196.261719 C 149.558594 199.710938 150.269531 204.175781 153.585938 206.207031 C 154.875 207.019531 155.296875 207.085938 157.195312 206.953125 C 158.390625 206.851562 159.839844 206.511719 160.417969 206.207031 C 161.449219 205.664062 161.449219 205.632812 161.449219 203.128906 L 161.449219 200.59375 L 159.355469 200.59375 C 157.488281 200.59375 157.261719 200.660156 157.261719 201.269531 C 157.261719 201.808594 157.488281 201.945312 158.390625 201.945312 L 159.515625 201.945312 L 159.515625 205.292969 L 158.097656 205.496094 C 156.070312 205.835938 154.84375 205.429688 153.75 204.144531 C 151.945312 201.980469 152.074219 198.324219 154.039062 196.363281 C 154.84375 195.550781 155.296875 195.382812 156.585938 195.382812 C 157.453125 195.382812 158.390625 195.585938 158.679688 195.824219 C 159.257812 196.328125 160.546875 196.195312 160.707031 195.621094 C 161 194.671875 157.359375 193.65625 155.488281 194.164062 Z M 155.488281 194.164062 "/>
<path style=" stroke:none;fill-rule:nonzero;fill:rgb(0%,0%,0%);fill-opacity:1;" d="M 169.023438 193.996094 C 168.863281 194.0625 168.152344 194.199219 167.507812 194.335938 C 163.996094 194.941406 161.933594 199.984375 163.707031 203.636719 C 165.992188 208.339844 173.535156 207.933594 175.46875 203.027344 C 176.046875 201.640625 176.082031 199.339844 175.597656 197.988281 C 175.144531 196.667969 173.4375 194.910156 172.277344 194.535156 C 170.925781 194.097656 169.410156 193.859375 169.023438 193.996094 Z M 172.246094 196.261719 C 174.566406 198.15625 174.597656 202.65625 172.277344 204.550781 C 170.34375 206.171875 167.347656 205.699219 165.863281 203.601562 C 165.089844 202.484375 164.800781 199.070312 165.382812 197.886719 C 166.542969 195.621094 170.34375 194.707031 172.246094 196.261719 Z M 172.246094 196.261719 "/>
<path style=" stroke:none;fill-rule:nonzero;fill:rgb(0%,0%,0%);fill-opacity:1;" d="M 60.617188 195.246094 C 60.457031 195.6875 59.359375 198.292969 58.199219 201.066406 C 57.039062 203.839844 56.074219 206.242188 56.074219 206.410156 C 56.074219 206.546875 56.425781 206.679688 56.847656 206.679688 C 57.523438 206.679688 57.8125 206.34375 58.523438 204.652344 L 59.390625 202.621094 L 61.359375 202.621094 C 62.421875 202.621094 63.484375 202.757812 63.710938 202.890625 C 63.902344 203.027344 64.355469 203.90625 64.675781 204.820312 C 65.191406 206.308594 65.386719 206.511719 66.320312 206.613281 C 66.867188 206.679688 67.351562 206.648438 67.351562 206.546875 C 67.351562 206.410156 66.738281 204.855469 66.03125 203.027344 C 62.453125 194.132812 62.710938 194.671875 61.777344 194.570312 C 61.101562 194.46875 60.84375 194.636719 60.617188 195.246094 Z M 60.617188 195.246094 "/>
<path style=" stroke:none;fill-rule:nonzero;fill:rgb(0%,0%,0%);fill-opacity:1;" d="M 68.640625 200.59375 L 68.640625 206.679688 L 70.574219 206.679688 L 70.574219 202.113281 C 70.574219 199.609375 70.671875 197.546875 70.832031 197.546875 C 70.960938 197.582031 71.992188 198.96875 73.152344 200.660156 C 76.050781 204.988281 77.566406 206.679688 78.5 206.679688 L 79.273438 206.679688 L 79.273438 194.503906 L 77.375 194.503906 L 77.179688 203.636719 L 74.761719 200.1875 C 71.1875 195.078125 70.636719 194.503906 69.574219 194.503906 L 68.640625 194.503906 Z M 68.640625 200.59375 "/>
<path style=" stroke:none;fill-rule:nonzero;fill:rgb(0%,0%,0%);fill-opacity:1;" d="M 84.753906 196.261719 C 84.367188 197.242188 83.691406 198.800781 83.304688 199.746094 C 81.851562 203.09375 80.5625 206.273438 80.5625 206.476562 C 80.5625 206.578125 80.984375 206.679688 81.5 206.679688 C 82.273438 206.679688 82.496094 206.511719 82.660156 205.734375 C 82.753906 205.226562 83.109375 204.3125 83.464844 203.703125 C 84.078125 202.6875 84.207031 202.621094 85.945312 202.621094 C 86.976562 202.621094 88.007812 202.757812 88.234375 202.890625 C 88.460938 203.0625 88.910156 203.941406 89.234375 204.855469 C 89.75 206.308594 89.972656 206.511719 90.84375 206.613281 C 91.390625 206.679688 91.84375 206.613281 91.84375 206.445312 C 91.84375 206.308594 90.8125 203.535156 89.523438 200.320312 C 87.332031 194.839844 87.136719 194.503906 86.332031 194.503906 C 85.589844 194.503906 85.367188 194.773438 84.753906 196.261719 Z M 84.753906 196.261719 "/>
<path style=" stroke:none;fill-rule:nonzero;fill:rgb(0%,0%,0%);fill-opacity:1;" d="M 93.453125 200.59375 L 93.453125 206.679688 L 96.128906 206.679688 C 99.320312 206.679688 100.996094 205.96875 102.347656 204.109375 C 103.1875 202.992188 103.28125 202.554688 103.28125 200.457031 C 103.28125 198.460938 103.152344 197.851562 102.507812 196.90625 C 101.347656 195.179688 99.609375 194.503906 96.289062 194.503906 L 93.453125 194.503906 Z M 99.578125 196.464844 C 101.640625 198.054688 102.027344 201.234375 100.414062 203.46875 C 99.320312 204.957031 98.675781 205.292969 96.675781 205.496094 L 95.066406 205.632812 L 95.066406 200.796875 C 95.066406 198.15625 95.164062 195.855469 95.324219 195.722656 C 95.710938 195.28125 98.707031 195.789062 99.578125 196.464844 Z M 99.578125 196.464844 "/>
<path style=" stroke:none;fill-rule:nonzero;fill:rgb(0%,0%,0%);fill-opacity:1;" d="M 109.308594 195.078125 C 109.117188 195.417969 108.148438 197.648438 107.148438 200.085938 C 106.152344 202.484375 105.121094 204.921875 104.863281 205.464844 C 104.28125 206.714844 104.25 206.679688 105.34375 206.679688 C 106.117188 206.679688 106.34375 206.476562 106.828125 205.160156 C 107.632812 202.925781 108.050781 202.621094 110.148438 202.621094 C 111.144531 202.621094 112.144531 202.757812 112.339844 202.890625 C 112.53125 203.027344 112.949219 203.941406 113.273438 204.886719 C 113.851562 206.546875 113.949219 206.679688 114.949219 206.679688 C 116.011719 206.679688 116.238281 206.410156 115.722656 205.835938 C 115.59375 205.632812 114.949219 204.109375 114.304688 202.453125 C 111.628906 195.382812 111.273438 194.671875 110.40625 194.570312 C 109.890625 194.503906 109.503906 194.671875 109.308594 195.078125 Z M 109.308594 195.078125 "/>
<path style=" stroke:none;fill-rule:nonzero;fill:rgb(0%,0%,0%);fill-opacity:1;" d="M 122.78125 200.59375 L 122.78125 206.679688 L 125.519531 206.679688 C 128.773438 206.679688 129.964844 206.242188 131.414062 204.515625 C 132.640625 203.027344 132.898438 202.148438 132.703125 199.710938 C 132.414062 196.125 130.222656 194.503906 125.617188 194.503906 L 122.78125 194.503906 Z M 128.804688 196.363281 C 130.191406 197.34375 130.898438 198.867188 130.738281 200.796875 C 130.578125 203.398438 129.160156 204.988281 126.613281 205.464844 C 124.421875 205.867188 124.390625 205.800781 124.390625 200.625 C 124.390625 198.054688 124.488281 195.855469 124.648438 195.722656 C 125.003906 195.316406 127.9375 195.753906 128.804688 196.363281 Z M 128.804688 196.363281 "/>
<path style=" stroke:none;fill-rule:nonzero;fill:rgb(0%,0%,0%);fill-opacity:1;" d="M 135.347656 200.59375 L 135.347656 206.679688 L 139.375 206.679688 C 143.179688 206.679688 143.402344 206.648438 143.402344 206.003906 C 143.402344 205.363281 143.179688 205.328125 140.179688 205.328125 L 136.957031 205.328125 L 136.957031 200.929688 L 139.535156 200.929688 C 141.890625 200.929688 142.113281 200.863281 142.113281 200.253906 C 142.113281 199.644531 141.890625 199.578125 139.535156 199.578125 L 136.957031 199.578125 L 136.957031 195.855469 L 140.019531 195.855469 C 142.855469 195.855469 143.082031 195.824219 143.082031 195.179688 C 143.082031 194.535156 142.855469 194.503906 139.214844 194.503906 L 135.347656 194.503906 Z M 135.347656 200.59375 "/>
<path style=" stroke:none;fill-rule:nonzero;fill:rgb(0%,0%,0%);fill-opacity:1;" d="M 178.207031 200.59375 L 178.207031 206.679688 L 180.140625 206.679688 L 180.140625 198.730469 L 181.558594 202.417969 C 182.332031 204.449219 183.171875 206.242188 183.429688 206.375 C 184.589844 207.1875 185.105469 206.578125 186.585938 202.621094 L 188.035156 198.765625 L 188.230469 206.679688 L 190.132812 206.679688 L 190.132812 194.46875 L 189.132812 194.570312 C 188.230469 194.671875 188.070312 194.875 186.714844 198.394531 C 183.976562 205.464844 184.265625 204.886719 183.878906 203.941406 C 183.71875 203.5 183.171875 202.214844 182.71875 201.097656 C 182.234375 199.984375 181.460938 198.054688 180.945312 196.769531 C 180.140625 194.738281 179.949219 194.503906 179.109375 194.503906 L 178.207031 194.503906 Z M 178.207031 200.59375 "/>
<path style=" stroke:none;fill-rule:nonzero;fill:rgb(0%,0%,0%);fill-opacity:1;" d="M 192.707031 200.59375 L 192.707031 206.679688 L 196.738281 206.679688 C 200.539062 206.679688 200.765625 206.648438 200.765625 206.003906 C 200.765625 205.363281 200.539062 205.328125 197.542969 205.328125 L 194.320312 205.328125 L 194.320312 200.929688 L 196.898438 200.929688 C 199.25 200.929688 199.476562 200.863281 199.476562 200.253906 C 199.476562 199.679688 199.21875 199.609375 196.996094 199.507812 L 194.480469 199.40625 L 194.382812 197.613281 L 194.289062 195.855469 L 197.542969 195.855469 C 200.476562 195.855469 200.796875 195.789062 200.699219 195.246094 C 200.605469 194.738281 200.121094 194.671875 196.640625 194.570312 L 192.707031 194.46875 Z M 192.707031 200.59375 "/>
<path style=" stroke:none;fill-rule:nonzero;fill:rgb(0%,0%,0%);fill-opacity:1;" d="M 202.054688 195.179688 C 202.054688 195.824219 202.28125 195.855469 205.4375 195.855469 C 207.308594 195.855469 208.820312 195.992188 208.820312 196.160156 C 208.820312 196.296875 208.273438 197.109375 207.597656 197.917969 C 204.246094 201.980469 202.054688 205.125 202.054688 205.867188 L 202.054688 206.679688 L 206.757812 206.679688 C 210.917969 206.679688 211.433594 206.613281 211.269531 206.140625 C 211.175781 205.835938 211.078125 205.53125 211.078125 205.464844 C 211.078125 205.394531 209.5625 205.328125 207.695312 205.328125 C 205.503906 205.328125 204.308594 205.191406 204.308594 204.957031 C 204.308594 204.753906 204.953125 203.738281 205.726562 202.6875 C 206.535156 201.640625 208.046875 199.578125 209.113281 198.121094 C 210.207031 196.703125 211.078125 195.28125 211.078125 195.011719 C 211.078125 194.570312 210.335938 194.503906 206.566406 194.503906 C 202.28125 194.503906 202.054688 194.535156 202.054688 195.179688 Z M 202.054688 195.179688 "/>
</g>
</svg>
