<?xml version="1.0" encoding="UTF-8"?>
<svg xmlns="http://www.w3.org/2000/svg" xmlns:xlink="http://www.w3.org/1999/xlink" width="384px" height="384px" viewBox="0 0 384 384" version="1.1">
<g id="surface1">
<path style=" stroke:none;fill-rule:nonzero;fill:rgb(0%,0%,0%);fill-opacity:1;" d="M 176.191406 1.015625 C 153.957031 3.042969 132.207031 8.726562 112.726562 17.605469 C 82.320312 31.40625 55.058594 53.988281 35.914062 81.03125 C 16.773438 108.175781 5.945312 136.441406 1.59375 170.484375 C 0.53125 178.859375 0.386719 203.519531 1.351562 212.347656 C 2.707031 224.726562 6.429688 241.675781 10.152344 252.835938 C 11.214844 255.984375 12.277344 258.976562 12.519531 259.535156 C 12.808594 260.09375 13.726562 262.375 14.550781 264.609375 C 20.640625 280.289062 30.792969 297.539062 42.972656 312.8125 C 49.980469 321.589844 62.308594 333.96875 71.058594 340.972656 C 72.265625 341.9375 73.328125 342.851562 73.472656 343.054688 C 74.054688 343.761719 86.234375 352.289062 90.875 355.179688 C 95.324219 357.96875 110.648438 366.34375 111.324219 366.34375 C 111.46875 366.34375 112.964844 367.003906 114.660156 367.8125 C 128.726562 374.511719 150.429688 380.398438 170.632812 382.933594 C 180.398438 384.152344 203.3125 384.152344 213.171875 382.933594 C 242.996094 379.128906 267.988281 370.503906 291.964844 355.789062 C 296.121094 353.199219 307.140625 345.691406 308.882812 344.167969 C 309.269531 343.863281 311.492188 341.988281 313.765625 340.109375 C 320.578125 334.476562 323.769531 331.484375 330.925781 323.976562 C 359.78125 293.734375 377.570312 255.171875 382.453125 212.347656 C 383.421875 203.722656 383.273438 179.0625 382.210938 170.484375 C 379.261719 147.347656 373.800781 128.523438 364.230469 108.835938 C 359.105469 98.183594 354.078125 89.707031 347.699219 80.878906 C 342.71875 73.878906 342.332031 73.421875 336.386719 66.519531 C 312.265625 38.511719 280.21875 18.0625 244.109375 7.660156 C 235.699219 5.226562 225.257812 3.195312 214.234375 1.726562 C 207.082031 0.8125 183.539062 0.355469 176.191406 1.015625 Z M 208.578125 7.355469 C 249.328125 11.113281 286.40625 27.347656 316.859375 54.75 C 321.644531 59.0625 335.179688 73.878906 339.382812 79.40625 C 356.882812 102.496094 368.820312 128.777344 374.089844 156.023438 C 381.148438 192.609375 377.472656 229.34375 363.261719 264.101562 C 357.074219 279.222656 345.667969 297.945312 334.550781 311.289062 C 328.847656 318.140625 316.859375 329.960938 309.605469 335.949219 C 299.261719 344.523438 281.425781 355.789062 270.9375 360.40625 C 269.875 360.863281 266.730469 362.234375 263.925781 363.449219 C 235.457031 376.035156 199.007812 380.753906 165.800781 376.1875 C 126.308594 370.757812 88.121094 351.476562 59.746094 322.707031 C 29.96875 292.464844 12.328125 255.171875 7.152344 211.585938 C 6.1875 203.265625 6.332031 179.011719 7.445312 170.484375 C 14.355469 116.449219 41.765625 70.832031 86.042969 39.730469 C 106.925781 25.066406 132.832031 14.207031 157.582031 9.691406 C 163.769531 8.574219 174.648438 7.203125 179.09375 6.953125 C 187.3125 6.496094 201.28125 6.699219 208.578125 7.355469 Z M 208.578125 7.355469 "/>
<path style=" stroke:none;fill-rule:nonzero;fill:rgb(0%,0%,0%);fill-opacity:1;" d="M 191.179688 40.289062 C 189.875 40.945312 188.328125 41.960938 187.84375 42.570312 C 186.925781 43.636719 186.925781 43.6875 187.941406 45.96875 C 189.195312 48.609375 189.246094 49.980469 188.277344 51.957031 C 187.3125 53.886719 187.359375 56.472656 188.421875 57.488281 C 188.859375 57.894531 190.113281 58.503906 191.179688 58.808594 C 193.980469 59.570312 195.285156 60.683594 195.285156 62.308594 C 195.285156 64.136719 194.996094 64.441406 192.242188 65.960938 C 185.570312 69.613281 182.574219 77.175781 184.941406 84.378906 C 185.570312 86.410156 185.621094 87.679688 185.234375 92.753906 C 184.941406 96.304688 184.363281 99.90625 183.734375 101.734375 C 183.203125 103.355469 182.71875 105.488281 182.71875 106.453125 C 182.71875 107.367188 182.378906 108.480469 181.992188 108.886719 C 181.414062 109.546875 181.269531 111.273438 181.269531 117.867188 C 181.269531 128.066406 180.351562 159.628906 179.964844 161.351562 C 179.625 162.722656 178.222656 149.632812 177.402344 138.0625 C 177.0625 132.988281 177.0625 129.082031 177.402344 125.175781 C 177.886719 119.847656 177.886719 119.492188 176.917969 118.121094 C 176 116.804688 175.855469 115.585938 175.46875 104.878906 C 175.226562 98.433594 174.742188 92.195312 174.453125 91.078125 C 173.246094 86.5625 171.359375 84.277344 167.300781 82.300781 C 165.074219 81.183594 163.867188 80.980469 160.484375 80.980469 C 153.8125 81.03125 148.496094 83.113281 146.464844 86.511719 C 145.933594 87.425781 144.917969 90.925781 144.289062 94.273438 C 143.613281 97.574219 142.648438 101.632812 142.113281 103.253906 C 140.617188 107.875 140.808594 109.546875 143.371094 112.796875 C 144.628906 114.367188 144.871094 116.957031 144.046875 120.507812 C 142.792969 126.140625 142.550781 130.910156 143.371094 135.527344 C 144.144531 139.890625 144.097656 140.246094 143.128906 146.285156 C 141.824219 153.996094 140.421875 162.46875 139.648438 167.441406 C 138.925781 172.160156 138.683594 172.667969 136.652344 173.835938 C 134.574219 175.054688 128.820312 181.699219 126.742188 185.351562 C 124.472656 189.261719 122.632812 194.285156 121.425781 199.660156 C 119.589844 207.78125 118.285156 214.628906 118.476562 214.78125 C 118.574219 214.882812 120.410156 215.746094 122.539062 216.761719 C 124.664062 217.777344 133.074219 222.039062 141.246094 226.25 C 149.414062 230.460938 156.421875 233.910156 156.808594 233.910156 C 158.019531 233.910156 158.210938 232.945312 158.550781 225.742188 C 158.839844 220.058594 159.082031 218.386719 159.953125 216.457031 C 162.367188 211.230469 168.554688 208.1875 187.019531 202.910156 C 196.207031 200.320312 199.007812 199.253906 206.5 195.296875 C 216.074219 190.273438 229.316406 181.546875 240 173.277344 C 252.664062 163.484375 261.605469 151.304688 262.914062 142.070312 C 263.734375 136.136719 264.992188 126.34375 265.234375 123.652344 C 265.523438 120.710938 264.75 119.238281 262.234375 118.019531 C 258.660156 116.246094 255.953125 118.273438 251.746094 125.988281 C 244.253906 139.789062 242.511719 141.613281 227.285156 151.660156 C 224.242188 153.640625 221.582031 155.265625 221.339844 155.265625 C 220.808594 155.265625 220.519531 153.234375 219.941406 145.117188 C 218.296875 121.523438 217.472656 105.691406 217.328125 94.121094 C 217.136719 79.304688 216.554688 75.09375 214.042969 70.933594 C 212.300781 68.042969 209.0625 66.214844 204.808594 65.65625 C 201.8125 65.300781 199.832031 64.085938 199.105469 62.054688 C 198.429688 60.125 199.058594 58.503906 200.75 57.84375 C 206.40625 55.660156 207.371094 54.34375 207.371094 48.964844 C 207.371094 43.941406 206.019531 42.011719 201.039062 40.136719 C 197.511719 38.765625 194.222656 38.816406 191.179688 40.289062 Z M 194.273438 89.25 C 195.285156 89.910156 194.660156 99.347656 193.351562 104.117188 C 191.613281 110.257812 189.632812 113.148438 187.117188 113.148438 C 184.992188 113.148438 185.328125 109.496094 188.085938 103.15625 C 188.90625 101.226562 189.875 97.777344 190.261719 95.441406 C 191.128906 89.707031 192.289062 87.933594 194.273438 89.25 Z M 164.058594 97.726562 C 165.074219 98.738281 165.027344 99.042969 163.769531 100.769531 C 162.753906 102.140625 162.660156 102.699219 162.707031 108.835938 C 162.753906 114.011719 162.996094 116.296875 163.820312 119.492188 C 164.882812 123.5 167.058594 128.421875 168.605469 130.25 C 170.296875 132.226562 171.699219 134.5625 171.359375 134.867188 C 171.214844 135.070312 170.925781 134.96875 170.730469 134.664062 C 170.539062 134.410156 169.425781 132.785156 168.21875 131.164062 C 163.578125 124.617188 162.464844 120.710938 162.078125 109.75 C 161.886719 103.660156 161.644531 101.328125 161.160156 100.921875 C 160.773438 100.617188 160.484375 99.855469 160.484375 99.246094 C 160.484375 97.066406 162.609375 96.152344 164.058594 97.726562 Z M 192.386719 113.402344 C 192.964844 114.164062 192.964844 115.992188 192.097656 127.105469 C 191.710938 132.328125 192.289062 134.5625 195.140625 138.621094 C 200.992188 146.839844 203.070312 151.003906 202.394531 152.878906 C 202.199219 153.386719 201.039062 153.691406 198.527344 153.84375 C 195.625 154.046875 194.222656 154.453125 191.226562 156.023438 C 189.148438 157.089844 186.488281 158.816406 185.234375 159.882812 C 184.023438 160.945312 182.863281 161.707031 182.621094 161.554688 C 181.367188 160.746094 183.394531 124.3125 184.941406 121.066406 C 186.152344 118.476562 190.40625 112.644531 191.128906 112.644531 C 191.46875 112.644531 192.046875 112.996094 192.386719 113.402344 Z M 150.816406 115.738281 C 150.816406 116.296875 150.140625 118.222656 149.316406 120 C 147.480469 124.058594 146.898438 128.726562 148.109375 130.605469 C 148.59375 131.417969 148.832031 132.734375 148.738281 134.308594 L 148.640625 136.746094 L 151.203125 136.996094 C 154.152344 137.300781 154.539062 137.757812 154.972656 141.414062 C 155.40625 145.066406 154.828125 148.515625 153.425781 151.054688 C 152.074219 153.539062 151.976562 155.0625 153.039062 162.773438 C 153.425781 165.867188 153.714844 169.421875 153.621094 170.585938 C 153.472656 172.71875 153.425781 172.769531 151.78125 172.667969 C 144.578125 172.160156 141.824219 171.855469 141.488281 171.550781 C 141.101562 171.144531 142.113281 163.382812 143.808594 154.554688 C 144.433594 151.15625 145.113281 147.246094 145.257812 145.878906 C 145.449219 144.457031 145.886719 142.121094 146.273438 140.601562 C 146.996094 137.960938 146.996094 137.859375 145.933594 136.84375 C 144.917969 135.832031 144.871094 135.578125 145.160156 129.183594 C 145.59375 119.441406 147.046875 114.671875 149.605469 114.671875 C 150.527344 114.671875 150.816406 114.925781 150.816406 115.738281 Z M 215.300781 124.667969 C 215.589844 125.480469 218.585938 147.347656 219.214844 153.082031 C 219.40625 155.164062 219.359375 156.277344 219.070312 156.277344 C 218.78125 156.277344 218.488281 156.074219 218.394531 155.875 C 218.34375 155.621094 217.28125 154.707031 216.121094 153.84375 C 214.527344 152.625 213.460938 152.21875 211.964844 152.21875 C 210.222656 152.21875 209.835938 152.015625 209.59375 151.054688 C 209.0625 148.871094 209.304688 144.863281 210.078125 143.695312 C 211.382812 141.664062 211.820312 139.433594 212.207031 132.074219 C 212.542969 124.871094 213.027344 123.09375 214.378906 123.601562 C 214.71875 123.753906 215.152344 124.210938 215.300781 124.667969 Z M 205.726562 126.089844 C 206.40625 127.203125 206.5 128.21875 206.261719 132.074219 C 205.726562 140.601562 205.148438 141.515625 202.78125 137.300781 C 200.410156 132.988281 200.265625 127.660156 202.585938 125.683594 C 203.988281 124.515625 204.808594 124.617188 205.726562 126.089844 Z M 166.089844 137.707031 C 166.863281 138.316406 167.007812 139.078125 167.007812 143.1875 C 167.007812 146.941406 166.816406 148.414062 165.945312 150.546875 C 164.640625 153.640625 164.542969 156.9375 165.511719 165.109375 C 165.898438 168.152344 166.089844 170.941406 165.945312 171.347656 C 165.65625 172.160156 162.996094 172.972656 159.082031 173.378906 L 155.988281 173.683594 L 156.277344 165.867188 C 156.519531 159.019531 156.714844 157.699219 157.777344 155.265625 C 158.886719 152.726562 160.484375 143.847656 160.484375 140.347656 C 160.484375 138.113281 161.449219 136.996094 163.382812 136.996094 C 164.351562 136.996094 165.558594 137.300781 166.089844 137.707031 Z M 175.613281 143.695312 C 176.726562 150.140625 178.367188 162.164062 178.367188 163.890625 C 178.367188 165.160156 177.933594 165.566406 174.40625 167.644531 C 169.234375 170.585938 168.894531 170.386719 168.992188 163.738281 C 169.039062 160.035156 169.328125 158.257812 170.394531 155.265625 C 171.3125 152.675781 171.792969 149.9375 172.035156 146.585938 C 172.328125 142.019531 173.292969 139.027344 174.40625 139.027344 C 174.648438 139.027344 175.179688 141.160156 175.613281 143.695312 Z M 234.441406 151.355469 C 234.441406 152.574219 230.71875 158.054688 228.207031 160.492188 C 224.628906 163.992188 221.050781 165.613281 216.796875 165.613281 C 213.992188 165.613281 213.074219 165.414062 211.820312 164.5 C 208.964844 162.367188 210.03125 160.339844 213.992188 160.339844 C 218.296875 160.339844 222.261719 158.664062 227.433594 154.707031 C 229.847656 152.828125 233.378906 150.699219 234.054688 150.699219 C 234.296875 150.699219 234.441406 151.003906 234.441406 151.355469 Z M 234.441406 151.355469 "/>
<path style=" stroke:none;fill-rule:nonzero;fill:rgb(0%,0%,0%);fill-opacity:1;" d="M 162.175781 57.894531 C 152.894531 58.859375 150.476562 59.925781 149.125 63.628906 C 148.300781 65.859375 148.300781 66.113281 149.125 69.414062 C 149.605469 71.289062 150.089844 73.574219 150.1875 74.433594 C 150.429688 75.90625 150.621094 76.109375 151.878906 76.109375 C 152.652344 76.109375 153.859375 75.652344 154.539062 75.09375 C 155.84375 74.03125 157.101562 73.777344 157.101562 74.585938 C 157.101562 74.839844 156.472656 75.550781 155.648438 76.210938 C 154.875 76.820312 154.199219 77.734375 154.199219 78.242188 C 154.199219 80.777344 158.550781 79.304688 159.566406 76.464844 L 160.144531 74.6875 L 164.011719 74.484375 C 167.492188 74.335938 167.925781 74.183594 168.992188 72.914062 C 170.488281 71.085938 170.441406 69.515625 168.941406 67.992188 C 167.445312 66.519531 167.445312 66.113281 168.941406 63.070312 C 169.714844 61.648438 170.152344 60.023438 170.054688 59.113281 C 169.910156 57.742188 169.714844 57.589844 168.21875 57.539062 C 167.300781 57.488281 164.59375 57.640625 162.175781 57.894531 Z M 162.175781 57.894531 "/>
<path style=" stroke:none;fill-rule:nonzero;fill:rgb(0%,0%,0%);fill-opacity:1;" d="M 277.605469 236.550781 C 272.578125 238.324219 268.90625 242.839844 266.539062 250.148438 C 265.28125 254.105469 265.28125 265.421875 266.539062 269.429688 C 268.519531 275.671875 271.757812 279.933594 276.300781 282.316406 C 284.277344 286.476562 294.960938 282.722656 298.828125 274.402344 C 300.179688 271.507812 300.953125 267.652344 300.328125 267.246094 C 300.132812 267.09375 298.34375 266.890625 296.363281 266.839844 L 292.785156 266.636719 L 292.109375 269.125 C 290.753906 273.945312 287.808594 276.53125 283.699219 276.53125 C 280.894531 276.53125 278.765625 274.910156 276.980469 271.40625 C 273.402344 264.304688 274.125 250.097656 278.332031 245.429688 C 280.941406 242.535156 284.230469 241.726562 287.082031 243.296875 C 289.160156 244.414062 291.433594 247.710938 292.058594 250.554688 L 292.640625 253.039062 L 296.265625 252.785156 C 298.296875 252.683594 300.085938 252.429688 300.328125 252.226562 C 300.90625 251.621094 298.828125 245.378906 297.136719 242.738281 C 295.203125 239.695312 291.480469 236.703125 288.773438 235.992188 C 285.535156 235.128906 280.941406 235.382812 277.605469 236.550781 Z M 277.605469 236.550781 "/>
<path style=" stroke:none;fill-rule:nonzero;fill:rgb(0%,0%,0%);fill-opacity:1;" d="M 87.832031 236.296875 C 87.6875 236.550781 84.738281 245.9375 81.257812 257.25 C 77.726562 268.566406 74.585938 278.714844 74.199219 279.832031 C 73.085938 283.078125 73.136719 283.128906 76.808594 283.128906 C 80.097656 283.128906 80.144531 283.128906 80.917969 281.402344 C 81.351562 280.441406 81.691406 279.476562 81.691406 279.171875 C 81.691406 278.917969 82.125 277.140625 82.660156 275.316406 L 83.671875 271.964844 L 91.792969 271.964844 C 97.738281 271.964844 100.058594 272.117188 100.398438 272.574219 C 100.6875 272.929688 101.605469 275.46875 102.527344 278.15625 L 104.121094 283.128906 L 108.375 283.128906 C 111.46875 283.128906 112.628906 282.976562 112.628906 282.519531 C 112.628906 282.164062 109.339844 271.507812 105.328125 258.925781 L 98.03125 235.941406 L 93.050781 235.941406 C 90.296875 235.941406 87.925781 236.09375 87.832031 236.296875 Z M 95.226562 255.222656 C 96.628906 259.839844 97.886719 263.898438 97.980469 264.203125 C 98.175781 264.710938 96.871094 264.863281 92.375 264.863281 C 88.265625 264.863281 86.527344 264.710938 86.527344 264.253906 C 86.527344 262.882812 92.035156 246.089844 92.375 246.445312 C 92.566406 246.648438 93.875 250.605469 95.226562 255.222656 Z M 95.226562 255.222656 "/>
<path style=" stroke:none;fill-rule:nonzero;fill:rgb(0%,0%,0%);fill-opacity:1;" d="M 135.347656 259.535156 L 135.347656 283.128906 L 162.898438 283.128906 L 162.898438 275.011719 L 144.046875 275.011719 L 144.046875 235.941406 L 135.347656 235.941406 Z M 135.347656 259.535156 "/>
<path style=" stroke:none;fill-rule:nonzero;fill:rgb(0%,0%,0%);fill-opacity:1;" d="M 184.652344 236.042969 C 184.652344 236.144531 184.605469 246.699219 184.605469 259.535156 L 184.605469 282.875 L 188.714844 283.027344 L 192.871094 283.179688 L 192.871094 264.964844 L 200.507812 264.761719 C 209.160156 264.558594 210.996094 264 214.332031 260.5 C 216.992188 257.65625 218.152344 254.664062 218.199219 250.402344 C 218.246094 242.941406 213.898438 237.714844 206.5 236.449219 C 204.132812 236.042969 184.652344 235.6875 184.652344 236.042969 Z M 206.210938 244.871094 C 208.53125 246.039062 209.304688 247.40625 209.304688 250.453125 C 209.304688 255.476562 206.886719 256.945312 198.429688 256.945312 L 193.113281 256.996094 L 192.964844 250.503906 L 192.820312 244.058594 L 198.71875 244.058594 C 203.117188 244.058594 204.953125 244.261719 206.210938 244.871094 Z M 206.210938 244.871094 "/>
<path style=" stroke:none;fill-rule:nonzero;fill:rgb(0%,0%,0%);fill-opacity:1;" d="M 234.441406 259.535156 L 234.441406 283.179688 L 238.597656 283.027344 L 242.707031 282.875 L 242.707031 260.042969 C 242.707031 247.457031 242.660156 236.90625 242.660156 236.550781 C 242.660156 236.09375 241.5 235.941406 238.550781 235.941406 L 234.441406 235.941406 Z M 234.441406 259.535156 "/>
<path style=" stroke:none;fill-rule:nonzero;fill:rgb(0%,0%,0%);fill-opacity:1;" d="M 118.429688 278.5625 L 118.429688 283.179688 L 122.632812 283.027344 L 126.792969 282.875 L 126.792969 274.25 L 122.632812 274.097656 L 118.429688 273.945312 Z M 118.429688 278.5625 "/>
<path style=" stroke:none;fill-rule:nonzero;fill:rgb(0%,0%,0%);fill-opacity:1;" d="M 167.6875 277.546875 C 167.636719 279.476562 167.589844 281.503906 167.539062 281.960938 C 167.492188 282.773438 168.023438 282.875 171.746094 283.027344 L 175.953125 283.179688 L 175.953125 273.996094 L 167.734375 273.996094 Z M 167.6875 277.546875 "/>
<path style=" stroke:none;fill-rule:nonzero;fill:rgb(0%,0%,0%);fill-opacity:1;" d="M 217.523438 278.5625 L 217.523438 283.179688 L 221.777344 283.027344 L 225.980469 282.875 L 225.980469 274.25 L 221.777344 274.097656 L 217.523438 273.945312 Z M 217.523438 278.5625 "/>
<path style=" stroke:none;fill-rule:nonzero;fill:rgb(0%,0%,0%);fill-opacity:1;" d="M 251.359375 278.5625 L 251.359375 283.179688 L 255.566406 283.027344 L 259.722656 282.875 L 259.722656 274.25 L 255.566406 274.097656 L 251.359375 273.945312 Z M 251.359375 278.5625 "/>
<path style=" stroke:none;fill-rule:nonzero;fill:rgb(0%,0%,0%);fill-opacity:1;" d="M 305.5 278.5625 L 305.5 283.128906 L 314.199219 283.128906 L 314.199219 273.996094 L 305.5 273.996094 Z M 305.5 278.5625 "/>
<path style=" stroke:none;fill-rule:nonzero;fill:rgb(0%,0%,0%);fill-opacity:1;" d="M 73.8125 291.246094 C 69.074219 292.210938 66.125 297.539062 67.238281 303.222656 C 68.011719 307.332031 71.636719 310.527344 75.503906 310.527344 C 77.921875 310.527344 80.578125 309.613281 82.03125 308.246094 C 83.285156 307.179688 83.285156 307.027344 82.511719 306.671875 C 81.980469 306.46875 80.820312 306.773438 79.566406 307.433594 C 77.101562 308.703125 75.40625 308.804688 73.28125 307.738281 C 69.171875 305.65625 68.445312 297.792969 72.074219 294.597656 C 73.8125 293.074219 77.4375 292.769531 79.710938 294.039062 C 80.964844 294.699219 81.160156 294.699219 81.691406 294.039062 C 82.609375 292.871094 81.546875 291.90625 78.742188 291.296875 C 77.390625 290.992188 76.179688 290.789062 75.988281 290.789062 C 75.792969 290.839844 74.828125 291.042969 73.8125 291.246094 Z M 73.8125 291.246094 "/>
<path style=" stroke:none;fill-rule:nonzero;fill:rgb(0%,0%,0%);fill-opacity:1;" d="M 233.234375 291.246094 C 230.429688 292.007812 229.21875 292.71875 228.011719 294.394531 C 224.339844 299.570312 225.402344 306.265625 230.378906 309.3125 C 232.3125 310.527344 232.941406 310.628906 235.792969 310.425781 C 237.582031 310.273438 239.757812 309.765625 240.628906 309.3125 C 242.175781 308.5 242.175781 308.449219 242.175781 304.695312 L 242.175781 300.886719 L 239.035156 300.886719 C 236.230469 300.886719 235.890625 300.988281 235.890625 301.902344 C 235.890625 302.714844 236.230469 302.917969 237.582031 302.917969 L 239.273438 302.917969 L 239.273438 307.941406 L 237.148438 308.246094 C 234.101562 308.753906 232.265625 308.144531 230.621094 306.214844 C 227.914062 302.96875 228.109375 297.488281 231.058594 294.546875 C 232.265625 293.328125 232.941406 293.074219 234.875 293.074219 C 236.179688 293.074219 237.582031 293.378906 238.019531 293.734375 C 238.886719 294.496094 240.820312 294.292969 241.0625 293.429688 C 241.5 292.007812 236.035156 290.484375 233.234375 291.246094 Z M 233.234375 291.246094 "/>
<path style=" stroke:none;fill-rule:nonzero;fill:rgb(0%,0%,0%);fill-opacity:1;" d="M 253.535156 290.992188 C 253.292969 291.09375 252.230469 291.296875 251.261719 291.5 C 245.992188 292.414062 242.898438 299.976562 245.558594 305.453125 C 248.992188 312.507812 260.300781 311.898438 263.203125 304.542969 C 264.074219 302.460938 264.121094 299.011719 263.394531 296.980469 C 262.71875 295.003906 260.15625 292.363281 258.417969 291.804688 C 256.386719 291.144531 254.113281 290.789062 253.535156 290.992188 Z M 258.367188 294.394531 C 261.847656 297.234375 261.898438 303.984375 258.417969 306.824219 C 255.515625 309.261719 251.019531 308.550781 248.796875 305.402344 C 247.636719 303.730469 247.203125 298.605469 248.074219 296.828125 C 249.8125 293.429688 255.515625 292.058594 258.367188 294.394531 Z M 258.367188 294.394531 "/>
<path style=" stroke:none;fill-rule:nonzero;fill:rgb(0%,0%,0%);fill-opacity:1;" d="M 90.925781 292.871094 C 90.683594 293.53125 89.039062 297.4375 87.300781 301.597656 C 85.558594 305.757812 84.109375 309.363281 84.109375 309.613281 C 84.109375 309.816406 84.640625 310.019531 85.269531 310.019531 C 86.285156 310.019531 86.71875 309.515625 87.78125 306.976562 L 89.085938 303.933594 L 92.035156 303.933594 C 93.632812 303.933594 95.226562 304.136719 95.566406 304.339844 C 95.855469 304.542969 96.53125 305.859375 97.015625 307.230469 C 97.789062 309.464844 98.078125 309.765625 99.480469 309.917969 C 100.300781 310.019531 101.027344 309.96875 101.027344 309.816406 C 101.027344 309.613281 100.109375 307.28125 99.046875 304.542969 C 93.679688 291.195312 94.066406 292.007812 92.664062 291.855469 C 91.648438 291.703125 91.261719 291.957031 90.925781 292.871094 Z M 90.925781 292.871094 "/>
<path style=" stroke:none;fill-rule:nonzero;fill:rgb(0%,0%,0%);fill-opacity:1;" d="M 102.960938 300.886719 L 102.960938 310.019531 L 105.859375 310.019531 L 105.859375 303.171875 C 105.859375 299.417969 106.007812 296.320312 106.246094 296.320312 C 106.441406 296.371094 107.988281 298.453125 109.726562 300.988281 C 114.078125 307.484375 116.351562 310.019531 117.753906 310.019531 L 118.914062 310.019531 L 118.914062 291.753906 L 116.058594 291.753906 L 115.914062 298.605469 L 115.769531 305.453125 L 112.144531 300.277344 C 106.78125 292.617188 105.957031 291.753906 104.363281 291.753906 L 102.960938 291.753906 Z M 102.960938 300.886719 "/>
<path style=" stroke:none;fill-rule:nonzero;fill:rgb(0%,0%,0%);fill-opacity:1;" d="M 127.128906 294.394531 C 126.550781 295.863281 125.535156 298.199219 124.953125 299.621094 C 122.78125 304.644531 120.847656 309.414062 120.847656 309.714844 C 120.847656 309.867188 121.472656 310.019531 122.246094 310.019531 C 123.40625 310.019531 123.746094 309.765625 123.988281 308.601562 C 124.132812 307.839844 124.664062 306.46875 125.195312 305.554688 C 126.113281 304.035156 126.308594 303.933594 128.917969 303.933594 C 130.464844 303.933594 132.011719 304.136719 132.351562 304.339844 C 132.6875 304.59375 133.367188 305.910156 133.847656 307.28125 C 134.621094 309.464844 134.960938 309.765625 136.265625 309.917969 C 137.085938 310.019531 137.765625 309.917969 137.765625 309.664062 C 137.765625 309.464844 136.21875 305.300781 134.285156 300.480469 C 130.996094 292.261719 130.707031 291.753906 129.5 291.753906 C 128.386719 291.753906 128.046875 292.160156 127.128906 294.394531 Z M 127.128906 294.394531 "/>
<path style=" stroke:none;fill-rule:nonzero;fill:rgb(0%,0%,0%);fill-opacity:1;" d="M 140.179688 300.886719 L 140.179688 310.019531 L 144.191406 310.019531 C 148.980469 310.019531 151.492188 308.957031 153.523438 306.164062 C 154.78125 304.492188 154.925781 303.832031 154.925781 300.683594 C 154.925781 297.691406 154.730469 296.777344 153.765625 295.355469 C 152.023438 292.769531 149.414062 291.753906 144.433594 291.753906 L 140.179688 291.753906 Z M 149.367188 294.699219 C 152.460938 297.082031 153.039062 301.851562 150.621094 305.199219 C 148.980469 307.433594 148.011719 307.941406 145.015625 308.246094 L 142.597656 308.449219 L 142.597656 301.191406 C 142.597656 297.234375 142.742188 293.785156 142.984375 293.582031 C 143.566406 292.921875 148.058594 293.683594 149.367188 294.699219 Z M 149.367188 294.699219 "/>
<path style=" stroke:none;fill-rule:nonzero;fill:rgb(0%,0%,0%);fill-opacity:1;" d="M 163.964844 292.617188 C 163.671875 293.125 162.222656 296.472656 160.726562 300.125 C 159.226562 303.730469 157.679688 307.382812 157.292969 308.195312 C 156.421875 310.070312 156.375 310.019531 158.019531 310.019531 C 159.179688 310.019531 159.515625 309.714844 160.242188 307.738281 C 161.449219 304.390625 162.078125 303.933594 165.21875 303.933594 C 166.71875 303.933594 168.21875 304.136719 168.507812 304.339844 C 168.796875 304.542969 169.425781 305.910156 169.910156 307.332031 C 170.78125 309.816406 170.925781 310.019531 172.421875 310.019531 C 174.019531 310.019531 174.355469 309.613281 173.582031 308.753906 C 173.390625 308.449219 172.421875 306.164062 171.457031 303.679688 C 167.445312 293.074219 166.914062 292.007812 165.605469 291.855469 C 164.832031 291.753906 164.253906 292.007812 163.964844 292.617188 Z M 163.964844 292.617188 "/>
<path style=" stroke:none;fill-rule:nonzero;fill:rgb(0%,0%,0%);fill-opacity:1;" d="M 184.167969 300.886719 L 184.167969 310.019531 L 188.277344 310.019531 C 193.160156 310.019531 194.949219 309.363281 197.125 306.773438 C 198.960938 304.542969 199.347656 303.222656 199.058594 299.570312 C 198.621094 294.191406 195.335938 291.753906 188.421875 291.753906 L 184.167969 291.753906 Z M 193.207031 294.546875 C 195.285156 296.015625 196.351562 298.300781 196.109375 301.191406 C 195.867188 305.097656 193.738281 307.484375 189.921875 308.195312 C 186.632812 308.804688 186.585938 308.703125 186.585938 300.9375 C 186.585938 297.082031 186.730469 293.785156 186.972656 293.582031 C 187.503906 292.972656 191.902344 293.632812 193.207031 294.546875 Z M 193.207031 294.546875 "/>
<path style=" stroke:none;fill-rule:nonzero;fill:rgb(0%,0%,0%);fill-opacity:1;" d="M 203.019531 300.886719 L 203.019531 310.019531 L 209.0625 310.019531 C 214.765625 310.019531 215.105469 309.96875 215.105469 309.007812 C 215.105469 308.042969 214.765625 307.992188 210.273438 307.992188 L 205.4375 307.992188 L 205.4375 301.394531 L 209.304688 301.394531 C 212.832031 301.394531 213.171875 301.292969 213.171875 300.378906 C 213.171875 299.46875 212.832031 299.367188 209.304688 299.367188 L 205.4375 299.367188 L 205.4375 293.785156 L 210.03125 293.785156 C 214.285156 293.785156 214.621094 293.734375 214.621094 292.769531 C 214.621094 291.804688 214.285156 291.753906 208.820312 291.753906 L 203.019531 291.753906 Z M 203.019531 300.886719 "/>
<path style=" stroke:none;fill-rule:nonzero;fill:rgb(0%,0%,0%);fill-opacity:1;" d="M 267.3125 300.886719 L 267.3125 310.019531 L 270.210938 310.019531 L 270.210938 298.097656 L 272.339844 303.628906 C 273.5 306.671875 274.753906 309.363281 275.140625 309.566406 C 276.882812 310.78125 277.65625 309.867188 279.878906 303.933594 L 282.054688 298.148438 L 282.199219 304.085938 L 282.34375 310.019531 L 285.195312 310.019531 L 285.195312 291.703125 L 283.699219 291.855469 C 282.34375 292.007812 282.101562 292.3125 280.074219 297.589844 C 275.964844 308.195312 276.398438 307.332031 275.820312 305.910156 C 275.578125 305.25 274.753906 303.324219 274.078125 301.648438 C 273.351562 299.976562 272.191406 297.082031 271.421875 295.15625 C 270.210938 292.109375 269.921875 291.753906 268.664062 291.753906 L 267.3125 291.753906 Z M 267.3125 300.886719 "/>
<path style=" stroke:none;fill-rule:nonzero;fill:rgb(0%,0%,0%);fill-opacity:1;" d="M 289.0625 300.886719 L 289.0625 310.019531 L 295.105469 310.019531 C 300.808594 310.019531 301.148438 309.96875 301.148438 309.007812 C 301.148438 308.042969 300.808594 307.992188 296.3125 307.992188 L 291.480469 307.992188 L 291.480469 301.394531 L 295.347656 301.394531 C 298.875 301.394531 299.214844 301.292969 299.214844 300.378906 C 299.214844 299.519531 298.828125 299.417969 295.492188 299.265625 L 291.722656 299.113281 L 291.578125 296.421875 L 291.433594 293.785156 L 296.3125 293.785156 C 300.714844 293.785156 301.195312 293.683594 301.050781 292.871094 C 300.90625 292.109375 300.179688 292.007812 294.960938 291.855469 L 289.0625 291.703125 Z M 289.0625 300.886719 "/>
<path style=" stroke:none;fill-rule:nonzero;fill:rgb(0%,0%,0%);fill-opacity:1;" d="M 303.082031 292.769531 C 303.082031 293.734375 303.421875 293.785156 308.15625 293.785156 C 310.960938 293.785156 313.234375 293.988281 313.234375 294.242188 C 313.234375 294.445312 312.410156 295.660156 311.394531 296.878906 C 306.367188 302.96875 303.082031 307.6875 303.082031 308.804688 L 303.082031 310.019531 L 310.140625 310.019531 C 316.375 310.019531 317.148438 309.917969 316.90625 309.210938 C 316.761719 308.753906 316.617188 308.296875 316.617188 308.195312 C 316.617188 308.09375 314.34375 307.992188 311.539062 307.992188 C 308.253906 307.992188 306.464844 307.789062 306.464844 307.433594 C 306.464844 307.128906 307.433594 305.605469 308.59375 304.035156 C 309.800781 302.460938 312.074219 299.367188 313.667969 297.183594 C 315.3125 295.054688 316.617188 292.921875 316.617188 292.515625 C 316.617188 291.855469 315.503906 291.753906 309.847656 291.753906 C 303.421875 291.753906 303.082031 291.804688 303.082031 292.769531 Z M 303.082031 292.769531 "/>
</g>
</svg>
