<?xml version="1.0" encoding="UTF-8"?>
<svg xmlns="http://www.w3.org/2000/svg" xmlns:xlink="http://www.w3.org/1999/xlink" width="192px" height="192px" viewBox="0 0 192 192" version="1.1">
<g id="surface1">
<path style=" stroke:none;fill-rule:nonzero;fill:rgb(0%,0%,0%);fill-opacity:1;" d="M 88.097656 0.507812 C 76.980469 1.523438 66.101562 4.363281 56.363281 8.804688 C 41.160156 15.703125 27.527344 26.992188 17.957031 40.515625 C 8.386719 54.089844 2.972656 68.21875 0.796875 85.242188 C 0.265625 89.429688 0.191406 101.757812 0.675781 106.171875 C 1.351562 112.363281 3.214844 120.835938 5.074219 126.417969 C 5.605469 127.992188 6.140625 129.488281 6.261719 129.765625 C 6.40625 130.046875 6.863281 131.1875 7.273438 132.304688 C 10.320312 140.144531 15.394531 148.769531 21.488281 156.40625 C 24.992188 160.796875 31.152344 166.984375 35.527344 170.484375 C 36.132812 170.96875 36.664062 171.425781 36.738281 171.527344 C 37.027344 171.882812 43.117188 176.144531 45.4375 177.589844 C 47.660156 178.984375 55.324219 183.171875 55.660156 183.171875 C 55.734375 183.171875 56.484375 183.5 57.328125 183.90625 C 64.363281 187.253906 75.214844 190.199219 85.316406 191.46875 C 90.199219 192.074219 101.65625 192.074219 106.585938 191.46875 C 121.5 189.566406 133.992188 185.25 145.980469 177.894531 C 148.058594 176.601562 153.570312 172.84375 154.441406 172.085938 C 154.632812 171.933594 155.746094 170.992188 156.882812 170.054688 C 160.289062 167.238281 161.886719 165.742188 165.460938 161.988281 C 179.890625 146.867188 188.785156 127.585938 191.226562 106.171875 C 191.710938 101.859375 191.636719 89.53125 191.105469 85.242188 C 189.632812 73.675781 186.898438 64.261719 182.113281 54.417969 C 179.554688 49.089844 177.039062 44.855469 173.847656 40.441406 C 171.359375 36.9375 171.167969 36.710938 168.191406 33.261719 C 156.132812 19.253906 140.109375 9.03125 122.054688 3.832031 C 117.847656 2.613281 112.628906 1.597656 107.117188 0.863281 C 103.539062 0.40625 91.769531 0.175781 88.097656 0.507812 Z M 104.289062 3.679688 C 124.664062 5.554688 143.203125 13.675781 158.429688 27.375 C 160.820312 29.53125 167.589844 36.9375 169.691406 39.703125 C 178.441406 51.246094 184.410156 64.390625 187.046875 78.011719 C 190.574219 96.304688 188.738281 114.671875 181.632812 132.050781 C 178.539062 139.609375 172.832031 148.972656 167.273438 155.644531 C 164.421875 159.070312 158.429688 164.980469 154.804688 167.976562 C 149.632812 172.261719 140.714844 177.894531 135.46875 180.203125 C 134.9375 180.429688 133.367188 181.117188 131.964844 181.726562 C 117.726562 188.015625 99.503906 190.375 82.898438 188.09375 C 63.152344 185.378906 44.058594 175.738281 29.875 161.351562 C 14.984375 146.234375 6.164062 127.585938 3.578125 105.792969 C 3.09375 101.632812 3.167969 89.503906 3.722656 85.242188 C 7.179688 58.222656 20.882812 35.417969 43.019531 19.863281 C 53.460938 12.53125 66.417969 7.105469 78.792969 4.84375 C 81.886719 4.289062 87.324219 3.601562 89.546875 3.476562 C 93.65625 3.246094 100.640625 3.347656 104.289062 3.679688 Z M 104.289062 3.679688 "/>
<path style=" stroke:none;fill-rule:nonzero;fill:rgb(0%,0%,0%);fill-opacity:1;" d="M 95.589844 20.144531 C 94.9375 20.472656 94.164062 20.980469 93.921875 21.285156 C 93.460938 21.816406 93.460938 21.84375 93.96875 22.984375 C 94.597656 24.304688 94.621094 24.988281 94.140625 25.980469 C 93.65625 26.941406 93.679688 28.238281 94.210938 28.746094 C 94.429688 28.945312 95.058594 29.25 95.589844 29.402344 C 96.992188 29.785156 97.644531 30.34375 97.644531 31.15625 C 97.644531 32.066406 97.5 32.21875 96.121094 32.980469 C 92.785156 34.808594 91.285156 38.585938 92.472656 42.191406 C 92.785156 43.203125 92.808594 43.839844 92.617188 46.375 C 92.472656 48.152344 92.179688 49.953125 91.867188 50.867188 C 91.601562 51.679688 91.359375 52.746094 91.359375 53.226562 C 91.359375 53.683594 91.191406 54.242188 90.996094 54.445312 C 90.707031 54.773438 90.632812 55.636719 90.632812 58.933594 C 90.632812 64.035156 90.175781 79.8125 89.980469 80.675781 C 89.8125 81.363281 89.113281 74.816406 88.699219 69.03125 C 88.53125 66.496094 88.53125 64.542969 88.699219 62.585938 C 88.941406 59.925781 88.941406 59.746094 88.460938 59.0625 C 88 58.402344 87.925781 57.792969 87.734375 52.441406 C 87.613281 49.21875 87.371094 46.097656 87.226562 45.539062 C 86.621094 43.28125 85.679688 42.140625 83.648438 41.148438 C 82.539062 40.59375 81.933594 40.492188 80.242188 40.492188 C 76.90625 40.515625 74.246094 41.554688 73.234375 43.253906 C 72.964844 43.710938 72.460938 45.464844 72.144531 47.136719 C 71.808594 48.785156 71.324219 50.816406 71.058594 51.628906 C 70.308594 53.9375 70.40625 54.773438 71.6875 56.398438 C 72.3125 57.183594 72.433594 58.476562 72.023438 60.253906 C 71.394531 63.070312 71.273438 65.453125 71.6875 67.761719 C 72.074219 69.945312 72.046875 70.121094 71.566406 73.140625 C 70.914062 76.996094 70.210938 81.234375 69.824219 83.722656 C 69.460938 86.082031 69.339844 86.335938 68.328125 86.917969 C 67.285156 87.527344 64.410156 90.851562 63.371094 92.675781 C 62.234375 94.628906 61.316406 97.140625 60.714844 99.832031 C 59.792969 103.890625 59.140625 107.316406 59.238281 107.390625 C 59.285156 107.441406 60.207031 107.875 61.269531 108.378906 C 62.332031 108.886719 66.539062 111.019531 70.621094 113.125 C 74.707031 115.230469 78.210938 116.957031 78.40625 116.957031 C 79.007812 116.957031 79.105469 116.472656 79.273438 112.871094 C 79.421875 110.03125 79.539062 109.191406 79.976562 108.226562 C 81.183594 105.613281 84.277344 104.09375 93.511719 101.453125 C 98.101562 100.160156 99.503906 99.628906 103.25 97.648438 C 108.035156 95.136719 114.660156 90.773438 120 86.636719 C 126.332031 81.742188 130.804688 75.652344 131.457031 71.035156 C 131.867188 68.066406 132.496094 63.171875 132.617188 61.828125 C 132.761719 60.355469 132.375 59.621094 131.117188 59.011719 C 129.328125 58.121094 127.976562 59.136719 125.875 62.992188 C 122.125 69.894531 121.257812 70.808594 113.644531 75.832031 C 112.121094 76.820312 110.792969 77.632812 110.671875 77.632812 C 110.40625 77.632812 110.261719 76.617188 109.96875 72.558594 C 109.148438 60.761719 108.738281 52.84375 108.664062 47.0625 C 108.566406 39.652344 108.277344 37.546875 107.019531 35.46875 C 106.152344 34.019531 104.53125 33.109375 102.40625 32.828125 C 100.90625 32.652344 99.914062 32.042969 99.554688 31.027344 C 99.214844 30.0625 99.527344 29.25 100.375 28.921875 C 103.203125 27.832031 103.6875 27.171875 103.6875 24.480469 C 103.6875 21.96875 103.007812 21.007812 100.519531 20.066406 C 98.753906 19.382812 97.113281 19.40625 95.589844 20.144531 Z M 97.136719 44.625 C 97.644531 44.957031 97.328125 49.675781 96.675781 52.058594 C 95.808594 55.128906 94.816406 56.574219 93.558594 56.574219 C 92.496094 56.574219 92.664062 54.75 94.042969 51.578125 C 94.453125 50.613281 94.9375 48.886719 95.128906 47.722656 C 95.566406 44.855469 96.144531 43.964844 97.136719 44.625 Z M 82.03125 48.863281 C 82.539062 49.371094 82.511719 49.523438 81.886719 50.386719 C 81.378906 51.070312 81.328125 51.347656 81.351562 54.417969 C 81.378906 57.007812 81.5 58.148438 81.910156 59.746094 C 82.441406 61.75 83.527344 64.210938 84.300781 65.125 C 85.148438 66.113281 85.847656 67.28125 85.679688 67.433594 C 85.605469 67.535156 85.460938 67.484375 85.367188 67.332031 C 85.269531 67.203125 84.714844 66.394531 84.109375 65.582031 C 81.789062 62.308594 81.234375 60.355469 81.039062 54.875 C 80.941406 51.832031 80.820312 50.664062 80.578125 50.460938 C 80.386719 50.308594 80.242188 49.929688 80.242188 49.625 C 80.242188 48.53125 81.304688 48.074219 82.03125 48.863281 Z M 96.191406 56.703125 C 96.484375 57.082031 96.484375 57.996094 96.046875 63.550781 C 95.855469 66.164062 96.144531 67.28125 97.570312 69.3125 C 100.496094 73.421875 101.535156 75.5 101.195312 76.441406 C 101.101562 76.695312 100.519531 76.84375 99.261719 76.921875 C 97.8125 77.023438 97.113281 77.226562 95.613281 78.011719 C 94.574219 78.546875 93.246094 79.40625 92.617188 79.941406 C 92.011719 80.472656 91.433594 80.855469 91.3125 80.777344 C 90.683594 80.371094 91.699219 62.15625 92.472656 60.53125 C 93.074219 59.238281 95.203125 56.320312 95.566406 56.320312 C 95.734375 56.320312 96.023438 56.5 96.191406 56.703125 Z M 75.40625 57.867188 C 75.40625 58.148438 75.070312 59.113281 74.660156 60 C 73.738281 62.03125 73.449219 64.363281 74.054688 65.300781 C 74.296875 65.707031 74.417969 66.367188 74.367188 67.15625 L 74.320312 68.371094 L 75.601562 68.5 C 77.074219 68.652344 77.269531 68.878906 77.488281 70.707031 C 77.703125 72.53125 77.414062 74.257812 76.714844 75.527344 C 76.035156 76.769531 75.988281 77.53125 76.519531 81.386719 C 76.714844 82.933594 76.859375 84.710938 76.808594 85.292969 C 76.738281 86.359375 76.714844 86.386719 75.890625 86.335938 C 72.289062 86.082031 70.914062 85.929688 70.742188 85.777344 C 70.550781 85.574219 71.058594 81.691406 71.902344 77.277344 C 72.21875 75.578125 72.554688 73.625 72.628906 72.9375 C 72.726562 72.226562 72.941406 71.0625 73.136719 70.300781 C 73.5 68.980469 73.5 68.929688 72.964844 68.421875 C 72.460938 67.914062 72.433594 67.789062 72.578125 64.59375 C 72.796875 59.722656 73.523438 57.335938 74.804688 57.335938 C 75.261719 57.335938 75.40625 57.464844 75.40625 57.867188 Z M 107.648438 62.335938 C 107.792969 62.738281 109.292969 73.675781 109.605469 76.542969 C 109.703125 77.582031 109.679688 78.140625 109.535156 78.140625 C 109.390625 78.140625 109.246094 78.039062 109.195312 77.9375 C 109.171875 77.808594 108.640625 77.351562 108.058594 76.921875 C 107.261719 76.3125 106.730469 76.109375 105.980469 76.109375 C 105.113281 76.109375 104.917969 76.007812 104.796875 75.527344 C 104.53125 74.433594 104.652344 72.429688 105.039062 71.847656 C 105.691406 70.832031 105.910156 69.714844 106.101562 66.039062 C 106.273438 62.433594 106.511719 61.546875 107.191406 61.800781 C 107.359375 61.878906 107.578125 62.105469 107.648438 62.335938 Z M 102.863281 63.042969 C 103.203125 63.601562 103.25 64.109375 103.128906 66.039062 C 102.863281 70.300781 102.574219 70.757812 101.390625 68.652344 C 100.207031 66.496094 100.132812 63.832031 101.292969 62.839844 C 101.992188 62.257812 102.40625 62.308594 102.863281 63.042969 Z M 83.046875 68.855469 C 83.433594 69.160156 83.503906 69.539062 83.503906 71.59375 C 83.503906 73.472656 83.40625 74.207031 82.972656 75.273438 C 82.320312 76.820312 82.273438 78.46875 82.753906 82.554688 C 82.949219 84.074219 83.046875 85.472656 82.972656 85.675781 C 82.828125 86.082031 81.5 86.484375 79.539062 86.6875 L 77.992188 86.839844 L 78.140625 82.933594 C 78.261719 79.507812 78.355469 78.851562 78.886719 77.632812 C 79.445312 76.363281 80.242188 71.925781 80.242188 70.171875 C 80.242188 69.058594 80.726562 68.5 81.691406 68.5 C 82.175781 68.5 82.78125 68.652344 83.046875 68.855469 Z M 87.808594 71.847656 C 88.363281 75.070312 89.183594 81.082031 89.183594 81.945312 C 89.183594 82.578125 88.964844 82.78125 87.203125 83.824219 C 84.617188 85.292969 84.445312 85.191406 84.496094 81.867188 C 84.519531 80.015625 84.664062 79.128906 85.195312 77.632812 C 85.65625 76.339844 85.898438 74.96875 86.019531 73.292969 C 86.164062 71.011719 86.648438 69.515625 87.203125 69.515625 C 87.324219 69.515625 87.589844 70.578125 87.808594 71.847656 Z M 117.21875 75.679688 C 117.21875 76.289062 115.359375 79.027344 114.101562 80.246094 C 112.3125 81.996094 110.527344 82.808594 108.398438 82.808594 C 106.996094 82.808594 106.539062 82.707031 105.910156 82.25 C 104.484375 81.183594 105.015625 80.167969 106.996094 80.167969 C 109.148438 80.167969 111.128906 79.332031 113.714844 77.351562 C 114.925781 76.414062 116.6875 75.347656 117.027344 75.347656 C 117.148438 75.347656 117.21875 75.5 117.21875 75.679688 Z M 117.21875 75.679688 "/>
<path style=" stroke:none;fill-rule:nonzero;fill:rgb(0%,0%,0%);fill-opacity:1;" d="M 81.085938 28.945312 C 76.445312 29.429688 75.238281 29.960938 74.5625 31.8125 C 74.152344 32.929688 74.152344 33.058594 74.5625 34.707031 C 74.804688 35.644531 75.046875 36.785156 75.09375 37.21875 C 75.214844 37.953125 75.3125 38.054688 75.941406 38.054688 C 76.328125 38.054688 76.929688 37.828125 77.269531 37.546875 C 77.921875 37.015625 78.550781 36.886719 78.550781 37.292969 C 78.550781 37.421875 78.234375 37.777344 77.824219 38.105469 C 77.4375 38.410156 77.101562 38.867188 77.101562 39.121094 C 77.101562 40.390625 79.273438 39.652344 79.78125 38.234375 L 80.074219 37.34375 L 82.007812 37.242188 C 83.746094 37.167969 83.964844 37.089844 84.496094 36.457031 C 85.246094 35.542969 85.21875 34.757812 84.472656 33.996094 C 83.722656 33.261719 83.722656 33.058594 84.472656 31.535156 C 84.859375 30.824219 85.074219 30.011719 85.027344 29.554688 C 84.953125 28.871094 84.859375 28.796875 84.109375 28.769531 C 83.648438 28.746094 82.296875 28.820312 81.085938 28.945312 Z M 81.085938 28.945312 "/>
<path style=" stroke:none;fill-rule:nonzero;fill:rgb(0%,0%,0%);fill-opacity:1;" d="M 138.804688 118.273438 C 136.289062 119.164062 134.453125 121.421875 133.269531 125.074219 C 132.640625 127.054688 132.640625 132.710938 133.269531 134.714844 C 134.261719 137.835938 135.878906 139.964844 138.152344 141.160156 C 142.140625 143.238281 147.480469 141.363281 149.414062 137.199219 C 150.089844 135.753906 150.476562 133.828125 150.164062 133.625 C 150.066406 133.546875 149.171875 133.445312 148.179688 133.421875 L 146.394531 133.320312 L 146.054688 134.5625 C 145.378906 136.972656 143.902344 138.265625 141.847656 138.265625 C 140.445312 138.265625 139.382812 137.453125 138.488281 135.703125 C 136.699219 132.152344 137.0625 125.046875 139.167969 122.714844 C 140.472656 121.269531 142.113281 120.863281 143.539062 121.648438 C 144.578125 122.207031 145.714844 123.855469 146.03125 125.277344 L 146.320312 126.519531 L 148.132812 126.394531 C 149.148438 126.34375 150.042969 126.214844 150.164062 126.113281 C 150.453125 125.808594 149.414062 122.6875 148.566406 121.371094 C 147.601562 119.847656 145.738281 118.351562 144.386719 117.996094 C 142.765625 117.566406 140.472656 117.691406 138.804688 118.273438 Z M 138.804688 118.273438 "/>
<path style=" stroke:none;fill-rule:nonzero;fill:rgb(0%,0%,0%);fill-opacity:1;" d="M 43.914062 118.148438 C 43.84375 118.273438 42.367188 122.96875 40.628906 128.625 C 38.863281 134.285156 37.292969 139.355469 37.101562 139.914062 C 36.542969 141.539062 36.566406 141.566406 38.40625 141.566406 C 40.046875 141.566406 40.074219 141.566406 40.460938 140.703125 C 40.675781 140.21875 40.847656 139.738281 40.847656 139.585938 C 40.847656 139.457031 41.0625 138.570312 41.328125 137.65625 L 41.835938 135.984375 L 45.898438 135.984375 C 48.871094 135.984375 50.03125 136.058594 50.199219 136.289062 C 50.34375 136.464844 50.804688 137.734375 51.261719 139.078125 L 52.058594 141.566406 L 54.1875 141.566406 C 55.734375 141.566406 56.3125 141.488281 56.3125 141.261719 C 56.3125 141.082031 54.671875 135.753906 52.664062 129.464844 L 49.015625 117.96875 L 46.527344 117.96875 C 45.148438 117.96875 43.964844 118.046875 43.914062 118.148438 Z M 47.613281 127.609375 C 48.3125 129.917969 48.941406 131.949219 48.992188 132.101562 C 49.085938 132.355469 48.433594 132.429688 46.1875 132.429688 C 44.132812 132.429688 43.261719 132.355469 43.261719 132.125 C 43.261719 131.441406 46.019531 123.042969 46.1875 123.222656 C 46.285156 123.324219 46.9375 125.300781 47.613281 127.609375 Z M 47.613281 127.609375 "/>
<path style=" stroke:none;fill-rule:nonzero;fill:rgb(0%,0%,0%);fill-opacity:1;" d="M 67.671875 129.765625 L 67.671875 141.566406 L 81.449219 141.566406 L 81.449219 137.503906 L 72.023438 137.503906 L 72.023438 117.96875 L 67.671875 117.96875 Z M 67.671875 129.765625 "/>
<path style=" stroke:none;fill-rule:nonzero;fill:rgb(0%,0%,0%);fill-opacity:1;" d="M 92.328125 118.019531 C 92.328125 118.070312 92.300781 123.347656 92.300781 129.765625 L 92.300781 141.4375 L 94.355469 141.515625 L 96.433594 141.589844 L 96.433594 132.480469 L 100.253906 132.378906 C 104.578125 132.277344 105.5 132 107.167969 130.25 C 108.496094 128.828125 109.074219 127.332031 109.101562 125.199219 C 109.125 121.472656 106.949219 118.859375 103.25 118.222656 C 102.066406 118.019531 92.328125 117.84375 92.328125 118.019531 Z M 103.105469 122.433594 C 104.265625 123.019531 104.652344 123.703125 104.652344 125.226562 C 104.652344 127.738281 103.445312 128.472656 99.214844 128.472656 L 96.554688 128.5 L 96.484375 125.25 L 96.410156 122.03125 L 99.359375 122.03125 C 101.558594 122.03125 102.476562 122.132812 103.105469 122.433594 Z M 103.105469 122.433594 "/>
<path style=" stroke:none;fill-rule:nonzero;fill:rgb(0%,0%,0%);fill-opacity:1;" d="M 117.21875 129.765625 L 117.21875 141.589844 L 119.300781 141.515625 L 121.351562 141.4375 L 121.351562 130.019531 C 121.351562 123.730469 121.328125 118.453125 121.328125 118.273438 C 121.328125 118.046875 120.75 117.96875 119.273438 117.96875 L 117.21875 117.96875 Z M 117.21875 129.765625 "/>
<path style=" stroke:none;fill-rule:nonzero;fill:rgb(0%,0%,0%);fill-opacity:1;" d="M 59.214844 139.28125 L 59.214844 141.589844 L 61.316406 141.515625 L 63.394531 141.4375 L 63.394531 137.125 L 61.316406 137.046875 L 59.214844 136.972656 Z M 59.214844 139.28125 "/>
<path style=" stroke:none;fill-rule:nonzero;fill:rgb(0%,0%,0%);fill-opacity:1;" d="M 83.84375 138.773438 C 83.820312 139.738281 83.792969 140.753906 83.769531 140.980469 C 83.746094 141.386719 84.011719 141.4375 85.875 141.515625 L 87.976562 141.589844 L 87.976562 136.996094 L 83.867188 136.996094 Z M 83.84375 138.773438 "/>
<path style=" stroke:none;fill-rule:nonzero;fill:rgb(0%,0%,0%);fill-opacity:1;" d="M 108.761719 139.28125 L 108.761719 141.589844 L 110.886719 141.515625 L 112.992188 141.4375 L 112.992188 137.125 L 110.886719 137.046875 L 108.761719 136.972656 Z M 108.761719 139.28125 "/>
<path style=" stroke:none;fill-rule:nonzero;fill:rgb(0%,0%,0%);fill-opacity:1;" d="M 125.679688 139.28125 L 125.679688 141.589844 L 127.78125 141.515625 L 129.859375 141.4375 L 129.859375 137.125 L 127.78125 137.046875 L 125.679688 136.972656 Z M 125.679688 139.28125 "/>
<path style=" stroke:none;fill-rule:nonzero;fill:rgb(0%,0%,0%);fill-opacity:1;" d="M 152.75 139.28125 L 152.75 141.566406 L 157.101562 141.566406 L 157.101562 136.996094 L 152.75 136.996094 Z M 152.75 139.28125 "/>
<path style=" stroke:none;fill-rule:nonzero;fill:rgb(0%,0%,0%);fill-opacity:1;" d="M 36.90625 145.625 C 34.539062 146.105469 33.0625 148.769531 33.621094 151.609375 C 34.007812 153.664062 35.820312 155.265625 37.753906 155.265625 C 38.960938 155.265625 40.289062 154.808594 41.015625 154.121094 C 41.644531 153.589844 41.644531 153.515625 41.257812 153.335938 C 40.992188 153.234375 40.410156 153.386719 39.78125 153.714844 C 38.550781 154.351562 37.703125 154.402344 36.640625 153.867188 C 34.585938 152.828125 34.222656 148.894531 36.035156 147.296875 C 36.90625 146.535156 38.71875 146.386719 39.855469 147.019531 C 40.484375 147.347656 40.578125 147.347656 40.847656 147.019531 C 41.304688 146.433594 40.773438 145.953125 39.371094 145.648438 C 38.695312 145.496094 38.089844 145.394531 37.992188 145.394531 C 37.898438 145.421875 37.414062 145.523438 36.90625 145.625 Z M 36.90625 145.625 "/>
<path style=" stroke:none;fill-rule:nonzero;fill:rgb(0%,0%,0%);fill-opacity:1;" d="M 116.617188 145.625 C 115.214844 146.003906 114.609375 146.359375 114.007812 147.195312 C 112.167969 149.785156 112.699219 153.132812 115.191406 154.65625 C 116.15625 155.265625 116.472656 155.316406 117.898438 155.214844 C 118.792969 155.136719 119.878906 154.882812 120.3125 154.65625 C 121.085938 154.25 121.085938 154.222656 121.085938 152.347656 L 121.085938 150.445312 L 119.515625 150.445312 C 118.113281 150.445312 117.945312 150.496094 117.945312 150.953125 C 117.945312 151.355469 118.113281 151.457031 118.792969 151.457031 L 119.636719 151.457031 L 119.636719 153.96875 L 118.574219 154.121094 C 117.050781 154.375 116.132812 154.070312 115.3125 153.109375 C 113.957031 151.484375 114.054688 148.746094 115.527344 147.273438 C 116.132812 146.664062 116.472656 146.535156 117.4375 146.535156 C 118.089844 146.535156 118.792969 146.6875 119.007812 146.867188 C 119.445312 147.246094 120.410156 147.144531 120.53125 146.714844 C 120.75 146.003906 118.019531 145.242188 116.617188 145.625 Z M 116.617188 145.625 "/>
<path style=" stroke:none;fill-rule:nonzero;fill:rgb(0%,0%,0%);fill-opacity:1;" d="M 126.765625 145.496094 C 126.648438 145.546875 126.113281 145.648438 125.632812 145.75 C 122.996094 146.207031 121.449219 149.988281 122.78125 152.726562 C 124.496094 156.253906 130.152344 155.949219 131.601562 152.269531 C 132.035156 151.230469 132.058594 149.503906 131.699219 148.492188 C 131.359375 147.5 130.078125 146.183594 129.207031 145.902344 C 128.191406 145.574219 127.058594 145.394531 126.765625 145.496094 Z M 129.183594 147.195312 C 130.925781 148.617188 130.949219 151.992188 129.207031 153.414062 C 127.757812 154.628906 125.511719 154.273438 124.398438 152.703125 C 123.820312 151.863281 123.601562 149.300781 124.035156 148.414062 C 124.90625 146.714844 127.757812 146.03125 129.183594 147.195312 Z M 129.183594 147.195312 "/>
<path style=" stroke:none;fill-rule:nonzero;fill:rgb(0%,0%,0%);fill-opacity:1;" d="M 45.460938 146.433594 C 45.339844 146.765625 44.519531 148.71875 43.648438 150.800781 C 42.78125 152.878906 42.054688 154.679688 42.054688 154.808594 C 42.054688 154.910156 42.320312 155.011719 42.632812 155.011719 C 43.140625 155.011719 43.359375 154.757812 43.890625 153.488281 L 44.542969 151.964844 L 46.019531 151.964844 C 46.816406 151.964844 47.613281 152.066406 47.78125 152.167969 C 47.925781 152.269531 48.265625 152.929688 48.507812 153.613281 C 48.894531 154.730469 49.039062 154.882812 49.738281 154.960938 C 50.152344 155.011719 50.511719 154.984375 50.511719 154.910156 C 50.511719 154.808594 50.054688 153.640625 49.523438 152.269531 C 46.839844 145.597656 47.035156 146.003906 46.332031 145.929688 C 45.824219 145.851562 45.632812 145.980469 45.460938 146.433594 Z M 45.460938 146.433594 "/>
<path style=" stroke:none;fill-rule:nonzero;fill:rgb(0%,0%,0%);fill-opacity:1;" d="M 51.480469 150.445312 L 51.480469 155.011719 L 52.929688 155.011719 L 52.929688 151.585938 C 52.929688 149.707031 53.003906 148.160156 53.125 148.160156 C 53.21875 148.1875 53.992188 149.226562 54.863281 150.496094 C 57.039062 153.742188 58.175781 155.011719 58.875 155.011719 L 59.457031 155.011719 L 59.457031 145.878906 L 58.03125 145.878906 L 57.957031 149.300781 L 57.886719 152.726562 L 56.074219 150.140625 C 53.390625 146.308594 52.980469 145.878906 52.179688 145.878906 L 51.480469 145.878906 Z M 51.480469 150.445312 "/>
<path style=" stroke:none;fill-rule:nonzero;fill:rgb(0%,0%,0%);fill-opacity:1;" d="M 63.566406 147.195312 C 63.273438 147.933594 62.765625 149.097656 62.476562 149.808594 C 61.390625 152.320312 60.421875 154.707031 60.421875 154.859375 C 60.421875 154.933594 60.738281 155.011719 61.125 155.011719 C 61.703125 155.011719 61.875 154.882812 61.992188 154.300781 C 62.066406 153.917969 62.332031 153.234375 62.597656 152.777344 C 63.058594 152.015625 63.152344 151.964844 64.460938 151.964844 C 65.234375 151.964844 66.007812 152.066406 66.175781 152.167969 C 66.34375 152.296875 66.683594 152.957031 66.925781 153.640625 C 67.3125 154.730469 67.480469 154.882812 68.132812 154.960938 C 68.542969 155.011719 68.882812 154.960938 68.882812 154.832031 C 68.882812 154.730469 68.109375 152.652344 67.140625 150.242188 C 65.5 146.132812 65.351562 145.878906 64.75 145.878906 C 64.191406 145.878906 64.023438 146.082031 63.566406 147.195312 Z M 63.566406 147.195312 "/>
<path style=" stroke:none;fill-rule:nonzero;fill:rgb(0%,0%,0%);fill-opacity:1;" d="M 70.089844 150.445312 L 70.089844 155.011719 L 72.097656 155.011719 C 74.488281 155.011719 75.746094 154.476562 76.761719 153.082031 C 77.390625 152.246094 77.460938 151.914062 77.460938 150.34375 C 77.460938 148.84375 77.367188 148.390625 76.882812 147.679688 C 76.011719 146.386719 74.707031 145.878906 72.21875 145.878906 L 70.089844 145.878906 Z M 74.683594 147.347656 C 76.230469 148.542969 76.519531 150.925781 75.3125 152.601562 C 74.488281 153.714844 74.007812 153.96875 72.507812 154.121094 L 71.300781 154.222656 L 71.300781 150.597656 C 71.300781 148.617188 71.371094 146.890625 71.492188 146.789062 C 71.78125 146.460938 74.03125 146.839844 74.683594 147.347656 Z M 74.683594 147.347656 "/>
<path style=" stroke:none;fill-rule:nonzero;fill:rgb(0%,0%,0%);fill-opacity:1;" d="M 81.980469 146.308594 C 81.835938 146.5625 81.113281 148.238281 80.363281 150.0625 C 79.613281 151.863281 78.839844 153.691406 78.648438 154.097656 C 78.210938 155.035156 78.1875 155.011719 79.007812 155.011719 C 79.589844 155.011719 79.757812 154.859375 80.121094 153.867188 C 80.726562 152.195312 81.039062 151.964844 82.609375 151.964844 C 83.359375 151.964844 84.109375 152.066406 84.253906 152.167969 C 84.398438 152.269531 84.714844 152.957031 84.953125 153.664062 C 85.390625 154.910156 85.460938 155.011719 86.210938 155.011719 C 87.007812 155.011719 87.179688 154.808594 86.792969 154.375 C 86.695312 154.222656 86.210938 153.082031 85.726562 151.839844 C 83.722656 146.535156 83.457031 146.003906 82.804688 145.929688 C 82.417969 145.878906 82.125 146.003906 81.980469 146.308594 Z M 81.980469 146.308594 "/>
<path style=" stroke:none;fill-rule:nonzero;fill:rgb(0%,0%,0%);fill-opacity:1;" d="M 92.085938 150.445312 L 92.085938 155.011719 L 94.140625 155.011719 C 96.578125 155.011719 97.472656 154.679688 98.5625 153.386719 C 99.480469 152.269531 99.671875 151.609375 99.527344 149.785156 C 99.3125 147.09375 97.667969 145.878906 94.210938 145.878906 L 92.085938 145.878906 Z M 96.605469 147.273438 C 97.644531 148.007812 98.175781 149.148438 98.054688 150.597656 C 97.933594 152.550781 96.871094 153.742188 94.960938 154.097656 C 93.316406 154.402344 93.292969 154.351562 93.292969 150.46875 C 93.292969 148.542969 93.367188 146.890625 93.488281 146.789062 C 93.753906 146.484375 95.953125 146.816406 96.605469 147.273438 Z M 96.605469 147.273438 "/>
<path style=" stroke:none;fill-rule:nonzero;fill:rgb(0%,0%,0%);fill-opacity:1;" d="M 101.511719 150.445312 L 101.511719 155.011719 L 104.53125 155.011719 C 107.382812 155.011719 107.554688 154.984375 107.554688 154.503906 C 107.554688 154.019531 107.382812 153.996094 105.136719 153.996094 L 102.71875 153.996094 L 102.71875 150.699219 L 104.652344 150.699219 C 106.417969 150.699219 106.585938 150.648438 106.585938 150.191406 C 106.585938 149.734375 106.417969 149.683594 104.652344 149.683594 L 102.71875 149.683594 L 102.71875 146.890625 L 105.015625 146.890625 C 107.140625 146.890625 107.3125 146.867188 107.3125 146.386719 C 107.3125 145.902344 107.140625 145.878906 104.410156 145.878906 L 101.511719 145.878906 Z M 101.511719 150.445312 "/>
<path style=" stroke:none;fill-rule:nonzero;fill:rgb(0%,0%,0%);fill-opacity:1;" d="M 133.65625 150.445312 L 133.65625 155.011719 L 135.105469 155.011719 L 135.105469 149.046875 L 136.167969 151.8125 C 136.75 153.335938 137.378906 154.679688 137.570312 154.78125 C 138.441406 155.390625 138.828125 154.933594 139.941406 151.964844 L 141.027344 149.074219 L 141.101562 152.042969 L 141.171875 155.011719 L 142.597656 155.011719 L 142.597656 145.851562 L 141.847656 145.929688 C 141.171875 146.003906 141.050781 146.15625 140.035156 148.796875 C 137.980469 154.097656 138.199219 153.664062 137.910156 152.957031 C 137.789062 152.625 137.378906 151.660156 137.039062 150.824219 C 136.675781 149.988281 136.097656 148.542969 135.710938 147.578125 C 135.105469 146.054688 134.960938 145.878906 134.332031 145.878906 L 133.65625 145.878906 Z M 133.65625 150.445312 "/>
<path style=" stroke:none;fill-rule:nonzero;fill:rgb(0%,0%,0%);fill-opacity:1;" d="M 144.53125 150.445312 L 144.53125 155.011719 L 147.554688 155.011719 C 150.40625 155.011719 150.574219 154.984375 150.574219 154.503906 C 150.574219 154.019531 150.40625 153.996094 148.15625 153.996094 L 145.738281 153.996094 L 145.738281 150.699219 L 147.671875 150.699219 C 149.4375 150.699219 149.605469 150.648438 149.605469 150.191406 C 149.605469 149.757812 149.414062 149.707031 147.746094 149.632812 L 145.859375 149.554688 L 145.789062 148.210938 L 145.714844 146.890625 L 148.15625 146.890625 C 150.355469 146.890625 150.597656 146.839844 150.527344 146.433594 C 150.453125 146.054688 150.089844 146.003906 147.480469 145.929688 L 144.53125 145.851562 Z M 144.53125 150.445312 "/>
<path style=" stroke:none;fill-rule:nonzero;fill:rgb(0%,0%,0%);fill-opacity:1;" d="M 151.539062 146.386719 C 151.539062 146.867188 151.710938 146.890625 154.078125 146.890625 C 155.480469 146.890625 156.617188 146.992188 156.617188 147.121094 C 156.617188 147.222656 156.207031 147.832031 155.699219 148.441406 C 153.183594 151.484375 151.539062 153.84375 151.539062 154.402344 L 151.539062 155.011719 L 155.070312 155.011719 C 158.1875 155.011719 158.574219 154.960938 158.453125 154.605469 C 158.378906 154.375 158.308594 154.148438 158.308594 154.097656 C 158.308594 154.046875 157.171875 153.996094 155.769531 153.996094 C 154.125 153.996094 153.234375 153.894531 153.234375 153.714844 C 153.234375 153.566406 153.714844 152.804688 154.296875 152.015625 C 154.898438 151.230469 156.035156 149.683594 156.832031 148.59375 C 157.65625 147.527344 158.308594 146.460938 158.308594 146.257812 C 158.308594 145.929688 157.753906 145.878906 154.925781 145.878906 C 151.710938 145.878906 151.539062 145.902344 151.539062 146.386719 Z M 151.539062 146.386719 "/>
</g>
</svg>
