<?xml version="1.0" encoding="UTF-8"?>
<svg xmlns="http://www.w3.org/2000/svg" xmlns:xlink="http://www.w3.org/1999/xlink" width="128px" height="128px" viewBox="0 0 128 128" version="1.1">
<g id="surface1">
<path style=" stroke:none;fill-rule:nonzero;fill:rgb(0%,0%,0%);fill-opacity:1;" d="M 58.730469 0.339844 C 51.320312 1.015625 44.070312 2.910156 37.574219 5.867188 C 27.441406 10.46875 18.351562 17.996094 11.972656 27.011719 C 5.589844 36.058594 1.980469 45.480469 0.53125 56.828125 C 0.175781 59.621094 0.128906 67.839844 0.449219 70.78125 C 0.902344 74.910156 2.144531 80.558594 3.382812 84.277344 C 3.738281 85.328125 4.09375 86.324219 4.171875 86.511719 C 4.269531 86.699219 4.574219 87.457031 4.851562 88.203125 C 6.878906 93.429688 10.265625 99.179688 14.324219 104.269531 C 16.660156 107.195312 20.769531 111.324219 23.6875 113.65625 C 24.089844 113.980469 24.441406 114.285156 24.492188 114.351562 C 24.683594 114.585938 28.746094 117.429688 30.292969 118.394531 C 31.773438 119.324219 36.882812 122.113281 37.109375 122.113281 C 37.15625 122.113281 37.65625 122.335938 38.21875 122.605469 C 42.910156 124.835938 50.144531 126.800781 56.878906 127.644531 C 60.132812 128.050781 67.769531 128.050781 71.058594 127.644531 C 81 126.375 89.328125 123.5 97.320312 118.597656 C 98.707031 117.734375 102.378906 115.230469 102.960938 114.722656 C 103.089844 114.621094 103.832031 113.996094 104.589844 113.371094 C 106.859375 111.492188 107.921875 110.496094 110.308594 107.992188 C 119.925781 97.910156 125.855469 85.058594 127.484375 70.78125 C 127.808594 67.90625 127.757812 59.6875 127.402344 56.828125 C 126.421875 49.117188 124.601562 42.839844 121.410156 36.277344 C 119.703125 32.726562 118.027344 29.902344 115.898438 26.960938 C 114.238281 24.625 114.109375 24.472656 112.128906 22.171875 C 104.089844 12.835938 93.40625 6.019531 81.371094 2.554688 C 78.566406 1.742188 75.085938 1.066406 71.410156 0.574219 C 69.027344 0.269531 61.179688 0.117188 58.730469 0.339844 Z M 69.527344 2.453125 C 83.109375 3.703125 95.46875 9.117188 105.621094 18.25 C 107.214844 19.6875 111.726562 24.625 113.128906 26.46875 C 118.960938 34.164062 122.941406 42.925781 124.695312 52.007812 C 127.050781 64.203125 125.824219 76.449219 121.085938 88.035156 C 119.023438 93.074219 115.222656 99.316406 111.515625 103.761719 C 109.617188 106.046875 105.621094 109.988281 103.203125 111.984375 C 99.753906 114.839844 93.808594 118.597656 90.3125 120.136719 C 89.957031 120.289062 88.910156 120.746094 87.976562 121.148438 C 78.484375 125.34375 66.335938 126.917969 55.265625 125.394531 C 42.101562 123.585938 29.375 117.160156 19.914062 107.570312 C 9.988281 97.488281 4.109375 85.058594 2.382812 70.527344 C 2.0625 67.753906 2.109375 59.671875 2.480469 56.828125 C 4.785156 38.816406 13.921875 23.609375 28.679688 13.242188 C 35.640625 8.355469 44.277344 4.734375 52.527344 3.230469 C 54.589844 2.859375 58.214844 2.402344 59.699219 2.316406 C 62.4375 2.164062 67.09375 2.234375 69.527344 2.453125 Z M 69.527344 2.453125 "/>
<path style=" stroke:none;fill-rule:nonzero;fill:rgb(0%,0%,0%);fill-opacity:1;" d="M 63.726562 13.429688 C 63.292969 13.648438 62.777344 13.988281 62.613281 14.191406 C 62.308594 14.546875 62.308594 14.5625 62.648438 15.324219 C 63.066406 16.203125 63.082031 16.660156 62.757812 17.320312 C 62.4375 17.960938 62.453125 18.824219 62.808594 19.164062 C 62.953125 19.296875 63.371094 19.5 63.726562 19.601562 C 64.660156 19.855469 65.09375 20.226562 65.09375 20.769531 C 65.09375 21.378906 65 21.480469 64.082031 21.988281 C 61.855469 23.203125 60.859375 25.726562 61.648438 28.125 C 61.855469 28.804688 61.875 29.226562 61.746094 30.917969 C 61.648438 32.101562 61.453125 33.300781 61.246094 33.910156 C 61.066406 34.453125 60.90625 35.164062 60.90625 35.484375 C 60.90625 35.789062 60.792969 36.160156 60.664062 36.296875 C 60.472656 36.515625 60.421875 37.089844 60.421875 39.289062 C 60.421875 42.6875 60.117188 53.210938 59.988281 53.785156 C 59.875 54.242188 59.40625 49.878906 59.132812 46.019531 C 59.019531 44.328125 59.019531 43.027344 59.132812 41.726562 C 59.296875 39.949219 59.296875 39.832031 58.972656 39.375 C 58.667969 38.933594 58.617188 38.527344 58.488281 34.960938 C 58.410156 32.8125 58.246094 30.730469 58.152344 30.359375 C 57.75 28.855469 57.121094 28.09375 55.765625 27.433594 C 55.023438 27.0625 54.621094 26.992188 53.496094 26.992188 C 51.269531 27.011719 49.5 27.703125 48.820312 28.835938 C 48.644531 29.140625 48.304688 30.308594 48.097656 31.425781 C 47.871094 32.523438 47.550781 33.878906 47.371094 34.417969 C 46.871094 35.957031 46.9375 36.515625 47.789062 37.597656 C 48.210938 38.121094 48.289062 38.984375 48.015625 40.167969 C 47.597656 42.046875 47.515625 43.636719 47.789062 45.175781 C 48.046875 46.628906 48.03125 46.75 47.710938 48.761719 C 47.273438 51.332031 46.808594 54.15625 46.550781 55.8125 C 46.308594 57.386719 46.226562 57.554688 45.550781 57.945312 C 44.859375 58.351562 42.941406 60.566406 42.246094 61.785156 C 41.492188 63.085938 40.878906 64.761719 40.476562 66.554688 C 39.863281 69.261719 39.429688 71.542969 39.492188 71.59375 C 39.523438 71.628906 40.136719 71.914062 40.847656 72.253906 C 41.554688 72.59375 44.359375 74.011719 47.082031 75.417969 C 49.804688 76.820312 52.140625 77.96875 52.269531 77.96875 C 52.671875 77.96875 52.738281 77.648438 52.851562 75.246094 C 52.945312 73.351562 53.027344 72.796875 53.316406 72.152344 C 54.121094 70.410156 56.183594 69.394531 62.339844 67.636719 C 65.402344 66.773438 66.335938 66.417969 68.832031 65.097656 C 72.023438 63.425781 76.4375 60.515625 80 57.757812 C 84.222656 54.496094 87.203125 50.433594 87.636719 47.355469 C 87.910156 45.378906 88.332031 42.113281 88.410156 41.21875 C 88.507812 40.238281 88.25 39.746094 87.410156 39.339844 C 86.21875 38.75 85.316406 39.425781 83.914062 41.996094 C 81.417969 46.597656 80.835938 47.203125 75.761719 50.554688 C 74.746094 51.214844 73.859375 51.753906 73.78125 51.753906 C 73.601562 51.753906 73.507812 51.078125 73.3125 48.371094 C 72.765625 40.507812 72.492188 35.230469 72.441406 31.375 C 72.378906 26.433594 72.183594 25.03125 71.347656 23.644531 C 70.765625 22.679688 69.6875 22.070312 68.269531 21.886719 C 67.269531 21.765625 66.609375 21.363281 66.367188 20.683594 C 66.144531 20.042969 66.351562 19.5 66.917969 19.28125 C 68.800781 18.554688 69.125 18.113281 69.125 16.320312 C 69.125 14.648438 68.671875 14.003906 67.011719 13.378906 C 65.835938 12.921875 64.742188 12.9375 63.726562 13.429688 Z M 64.757812 29.75 C 65.09375 29.96875 64.886719 33.117188 64.449219 34.707031 C 63.871094 36.753906 63.210938 37.714844 62.371094 37.714844 C 61.664062 37.714844 61.777344 36.5 62.695312 34.386719 C 62.96875 33.742188 63.292969 32.59375 63.421875 31.8125 C 63.710938 29.902344 64.097656 29.3125 64.757812 29.75 Z M 54.6875 32.574219 C 55.023438 32.914062 55.007812 33.015625 54.589844 33.589844 C 54.25 34.046875 54.21875 34.234375 54.234375 36.277344 C 54.25 38.003906 54.332031 38.765625 54.605469 39.832031 C 54.960938 41.167969 55.6875 42.808594 56.203125 43.417969 C 56.765625 44.074219 57.234375 44.855469 57.121094 44.957031 C 57.070312 45.023438 56.976562 44.988281 56.910156 44.886719 C 56.847656 44.804688 56.476562 44.261719 56.074219 43.722656 C 54.527344 41.539062 54.15625 40.238281 54.027344 36.582031 C 53.960938 34.554688 53.882812 33.777344 53.71875 33.640625 C 53.589844 33.539062 53.496094 33.285156 53.496094 33.082031 C 53.496094 32.355469 54.203125 32.050781 54.6875 32.574219 Z M 64.128906 37.800781 C 64.320312 38.054688 64.320312 38.664062 64.03125 42.367188 C 63.902344 44.109375 64.097656 44.855469 65.046875 46.207031 C 66.996094 48.945312 67.691406 50.335938 67.464844 50.960938 C 67.398438 51.128906 67.011719 51.230469 66.175781 51.28125 C 65.207031 51.347656 64.742188 51.484375 63.742188 52.007812 C 63.050781 52.363281 62.164062 52.9375 61.746094 53.292969 C 61.339844 53.648438 60.953125 53.902344 60.875 53.851562 C 60.457031 53.582031 61.132812 41.4375 61.648438 40.355469 C 62.050781 39.492188 63.46875 37.546875 63.710938 37.546875 C 63.824219 37.546875 64.015625 37.664062 64.128906 37.800781 Z M 50.273438 38.578125 C 50.273438 38.765625 50.046875 39.40625 49.773438 40 C 49.160156 41.351562 48.964844 42.910156 49.371094 43.535156 C 49.53125 43.804688 49.609375 44.246094 49.578125 44.769531 L 49.546875 45.582031 L 50.402344 45.664062 C 51.382812 45.765625 51.511719 45.917969 51.65625 47.136719 C 51.800781 48.355469 51.609375 49.503906 51.140625 50.351562 C 50.691406 51.179688 50.660156 51.6875 51.011719 54.257812 C 51.140625 55.289062 51.238281 56.472656 51.207031 56.863281 C 51.15625 57.574219 51.140625 57.589844 50.59375 57.554688 C 48.191406 57.386719 47.273438 57.285156 47.164062 57.183594 C 47.035156 57.046875 47.371094 54.460938 47.9375 51.519531 C 48.144531 50.386719 48.371094 49.082031 48.417969 48.625 C 48.484375 48.152344 48.628906 47.375 48.757812 46.867188 C 49 45.988281 49 45.953125 48.644531 45.613281 C 48.304688 45.277344 48.289062 45.191406 48.386719 43.0625 C 48.53125 39.8125 49.015625 38.222656 49.867188 38.222656 C 50.175781 38.222656 50.273438 38.308594 50.273438 38.578125 Z M 71.765625 41.554688 C 71.863281 41.828125 72.863281 49.117188 73.070312 51.027344 C 73.136719 51.722656 73.121094 52.09375 73.023438 52.09375 C 72.925781 52.09375 72.828125 52.023438 72.796875 51.957031 C 72.78125 51.875 72.425781 51.570312 72.039062 51.28125 C 71.507812 50.875 71.152344 50.738281 70.65625 50.738281 C 70.074219 50.738281 69.945312 50.671875 69.863281 50.351562 C 69.6875 49.625 69.769531 48.289062 70.027344 47.898438 C 70.460938 47.222656 70.605469 46.476562 70.734375 44.023438 C 70.847656 41.625 71.007812 41.03125 71.460938 41.199219 C 71.574219 41.25 71.71875 41.402344 71.765625 41.554688 Z M 68.574219 42.03125 C 68.800781 42.402344 68.832031 42.738281 68.753906 44.023438 C 68.574219 46.867188 68.382812 47.171875 67.59375 45.765625 C 66.804688 44.328125 66.753906 42.554688 67.527344 41.894531 C 67.996094 41.503906 68.269531 41.539062 68.574219 42.03125 Z M 55.363281 45.902344 C 55.621094 46.105469 55.667969 46.359375 55.667969 47.730469 C 55.667969 48.980469 55.605469 49.472656 55.316406 50.183594 C 54.878906 51.214844 54.847656 52.3125 55.171875 55.035156 C 55.300781 56.050781 55.363281 56.980469 55.316406 57.117188 C 55.21875 57.386719 54.332031 57.65625 53.027344 57.792969 L 51.996094 57.894531 L 52.09375 55.289062 C 52.171875 53.007812 52.238281 52.566406 52.59375 51.753906 C 52.960938 50.910156 53.496094 47.949219 53.496094 46.78125 C 53.496094 46.039062 53.816406 45.664062 54.460938 45.664062 C 54.785156 45.664062 55.1875 45.765625 55.363281 45.902344 Z M 58.539062 47.898438 C 58.910156 50.046875 59.457031 54.054688 59.457031 54.628906 C 59.457031 55.054688 59.3125 55.1875 58.136719 55.882812 C 56.410156 56.863281 56.296875 56.796875 56.332031 54.578125 C 56.347656 53.34375 56.441406 52.753906 56.796875 51.753906 C 57.105469 50.890625 57.265625 49.980469 57.34375 48.863281 C 57.441406 47.339844 57.765625 46.34375 58.136719 46.34375 C 58.214844 46.34375 58.394531 47.054688 58.539062 47.898438 Z M 78.148438 50.453125 C 78.148438 50.859375 76.90625 52.683594 76.070312 53.496094 C 74.875 54.664062 73.683594 55.203125 72.265625 55.203125 C 71.332031 55.203125 71.023438 55.136719 70.605469 54.832031 C 69.65625 54.121094 70.011719 53.445312 71.332031 53.445312 C 72.765625 53.445312 74.085938 52.886719 75.8125 51.570312 C 76.617188 50.941406 77.792969 50.234375 78.019531 50.234375 C 78.097656 50.234375 78.148438 50.335938 78.148438 50.453125 Z M 78.148438 50.453125 "/>
<path style=" stroke:none;fill-rule:nonzero;fill:rgb(0%,0%,0%);fill-opacity:1;" d="M 54.058594 19.296875 C 50.964844 19.621094 50.160156 19.976562 49.707031 21.210938 C 49.433594 21.953125 49.433594 22.039062 49.707031 23.136719 C 49.867188 23.761719 50.03125 24.523438 50.0625 24.8125 C 50.144531 25.300781 50.207031 25.371094 50.625 25.371094 C 50.882812 25.371094 51.285156 25.21875 51.511719 25.03125 C 51.949219 24.675781 52.367188 24.59375 52.367188 24.863281 C 52.367188 24.945312 52.15625 25.183594 51.882812 25.402344 C 51.625 25.605469 51.398438 25.910156 51.398438 26.082031 C 51.398438 26.925781 52.851562 26.433594 53.1875 25.488281 L 53.382812 24.894531 L 54.671875 24.828125 C 55.832031 24.777344 55.976562 24.726562 56.332031 24.304688 C 56.828125 23.695312 56.8125 23.171875 56.3125 22.664062 C 55.816406 22.171875 55.816406 22.039062 56.3125 21.023438 C 56.570312 20.550781 56.71875 20.007812 56.683594 19.703125 C 56.636719 19.246094 56.570312 19.195312 56.074219 19.179688 C 55.765625 19.164062 54.863281 19.214844 54.058594 19.296875 Z M 54.058594 19.296875 "/>
<path style=" stroke:none;fill-rule:nonzero;fill:rgb(0%,0%,0%);fill-opacity:1;" d="M 92.535156 78.851562 C 90.859375 79.441406 89.636719 80.945312 88.847656 83.382812 C 88.425781 84.703125 88.425781 88.472656 88.847656 89.808594 C 89.507812 91.890625 90.585938 93.3125 92.101562 94.105469 C 94.757812 95.492188 98.320312 94.242188 99.609375 91.46875 C 100.058594 90.503906 100.316406 89.21875 100.109375 89.082031 C 100.042969 89.03125 99.449219 88.964844 98.789062 88.945312 L 97.59375 88.878906 L 97.371094 89.707031 C 96.917969 91.316406 95.9375 92.175781 94.566406 92.175781 C 93.632812 92.175781 92.921875 91.636719 92.328125 90.46875 C 91.132812 88.101562 91.375 83.367188 92.777344 81.808594 C 93.648438 80.84375 94.742188 80.574219 95.695312 81.097656 C 96.386719 81.472656 97.144531 82.570312 97.351562 83.519531 L 97.546875 84.347656 L 98.753906 84.261719 C 99.433594 84.226562 100.027344 84.144531 100.109375 84.074219 C 100.300781 83.875 99.609375 81.792969 99.046875 80.914062 C 98.402344 79.898438 97.160156 78.902344 96.257812 78.664062 C 95.179688 78.375 93.648438 78.460938 92.535156 78.851562 Z M 92.535156 78.851562 "/>
<path style=" stroke:none;fill-rule:nonzero;fill:rgb(0%,0%,0%);fill-opacity:1;" d="M 29.277344 78.765625 C 29.230469 78.851562 28.246094 81.980469 27.085938 85.75 C 25.910156 89.523438 24.863281 92.90625 24.734375 93.277344 C 24.363281 94.359375 24.378906 94.375 25.601562 94.375 C 26.699219 94.375 26.714844 94.375 26.972656 93.800781 C 27.117188 93.480469 27.230469 93.160156 27.230469 93.058594 C 27.230469 92.972656 27.375 92.378906 27.554688 91.773438 L 27.890625 90.65625 L 30.597656 90.65625 C 32.578125 90.65625 33.351562 90.707031 33.464844 90.859375 C 33.5625 90.976562 33.867188 91.824219 34.175781 92.71875 L 34.707031 94.375 L 36.125 94.375 C 37.15625 94.375 37.542969 94.324219 37.542969 94.171875 C 37.542969 94.054688 36.445312 90.503906 35.109375 86.308594 L 32.675781 78.648438 L 31.015625 78.648438 C 30.097656 78.648438 29.308594 78.699219 29.277344 78.765625 Z M 31.742188 85.074219 C 32.210938 86.613281 32.628906 87.964844 32.660156 88.066406 C 32.726562 88.238281 32.289062 88.289062 30.792969 88.289062 C 29.421875 88.289062 28.84375 88.238281 28.84375 88.085938 C 28.84375 87.628906 30.679688 82.03125 30.792969 82.148438 C 30.855469 82.214844 31.292969 83.535156 31.742188 85.074219 Z M 31.742188 85.074219 "/>
<path style=" stroke:none;fill-rule:nonzero;fill:rgb(0%,0%,0%);fill-opacity:1;" d="M 45.117188 86.511719 L 45.117188 94.375 L 54.300781 94.375 L 54.300781 91.671875 L 48.015625 91.671875 L 48.015625 78.648438 L 45.117188 78.648438 Z M 45.117188 86.511719 "/>
<path style=" stroke:none;fill-rule:nonzero;fill:rgb(0%,0%,0%);fill-opacity:1;" d="M 61.550781 78.679688 C 61.550781 78.714844 61.535156 82.234375 61.535156 86.511719 L 61.535156 94.292969 L 62.90625 94.34375 L 64.289062 94.394531 L 64.289062 88.320312 L 66.835938 88.253906 C 69.71875 88.1875 70.332031 88 71.445312 86.832031 C 72.332031 85.886719 72.71875 84.886719 72.734375 83.46875 C 72.75 80.980469 71.300781 79.238281 68.832031 78.816406 C 68.042969 78.679688 61.550781 78.5625 61.550781 78.679688 Z M 68.738281 81.625 C 69.511719 82.011719 69.769531 82.46875 69.769531 83.484375 C 69.769531 85.160156 68.960938 85.648438 66.144531 85.648438 L 64.371094 85.664062 L 64.320312 83.5 L 64.273438 81.351562 L 66.238281 81.351562 C 67.707031 81.351562 68.316406 81.421875 68.738281 81.625 Z M 68.738281 81.625 "/>
<path style=" stroke:none;fill-rule:nonzero;fill:rgb(0%,0%,0%);fill-opacity:1;" d="M 78.148438 86.511719 L 78.148438 94.394531 L 79.53125 94.34375 L 80.902344 94.292969 L 80.902344 86.679688 C 80.902344 82.484375 80.886719 78.96875 80.886719 78.851562 C 80.886719 78.699219 80.5 78.648438 79.515625 78.648438 L 78.148438 78.648438 Z M 78.148438 86.511719 "/>
<path style=" stroke:none;fill-rule:nonzero;fill:rgb(0%,0%,0%);fill-opacity:1;" d="M 39.476562 92.855469 L 39.476562 94.394531 L 40.878906 94.34375 L 42.265625 94.292969 L 42.265625 91.417969 L 40.878906 91.367188 L 39.476562 91.316406 Z M 39.476562 92.855469 "/>
<path style=" stroke:none;fill-rule:nonzero;fill:rgb(0%,0%,0%);fill-opacity:1;" d="M 55.894531 92.515625 C 55.878906 93.160156 55.863281 93.835938 55.847656 93.988281 C 55.832031 94.257812 56.007812 94.292969 57.25 94.34375 L 58.652344 94.394531 L 58.652344 91.332031 L 55.910156 91.332031 Z M 55.894531 92.515625 "/>
<path style=" stroke:none;fill-rule:nonzero;fill:rgb(0%,0%,0%);fill-opacity:1;" d="M 72.507812 92.855469 L 72.507812 94.394531 L 73.925781 94.34375 L 75.328125 94.292969 L 75.328125 91.417969 L 73.925781 91.367188 L 72.507812 91.316406 Z M 72.507812 92.855469 "/>
<path style=" stroke:none;fill-rule:nonzero;fill:rgb(0%,0%,0%);fill-opacity:1;" d="M 83.785156 92.855469 L 83.785156 94.394531 L 85.1875 94.34375 L 86.574219 94.292969 L 86.574219 91.417969 L 85.1875 91.367188 L 83.785156 91.316406 Z M 83.785156 92.855469 "/>
<path style=" stroke:none;fill-rule:nonzero;fill:rgb(0%,0%,0%);fill-opacity:1;" d="M 101.832031 92.855469 L 101.832031 94.375 L 104.734375 94.375 L 104.734375 91.332031 L 101.832031 91.332031 Z M 101.832031 92.855469 "/>
<path style=" stroke:none;fill-rule:nonzero;fill:rgb(0%,0%,0%);fill-opacity:1;" d="M 24.605469 97.082031 C 23.023438 97.402344 22.042969 99.179688 22.414062 101.074219 C 22.671875 102.445312 23.878906 103.507812 25.167969 103.507812 C 25.972656 103.507812 26.859375 103.203125 27.34375 102.75 C 27.761719 102.394531 27.761719 102.34375 27.503906 102.222656 C 27.328125 102.15625 26.941406 102.257812 26.523438 102.476562 C 25.699219 102.902344 25.136719 102.933594 24.425781 102.578125 C 23.058594 101.886719 22.816406 99.265625 24.023438 98.199219 C 24.605469 97.691406 25.8125 97.589844 26.570312 98.011719 C 26.988281 98.234375 27.054688 98.234375 27.230469 98.011719 C 27.535156 97.625 27.183594 97.300781 26.246094 97.097656 C 25.796875 96.996094 25.394531 96.929688 25.328125 96.929688 C 25.265625 96.945312 24.941406 97.015625 24.605469 97.082031 Z M 24.605469 97.082031 "/>
<path style=" stroke:none;fill-rule:nonzero;fill:rgb(0%,0%,0%);fill-opacity:1;" d="M 77.746094 97.082031 C 76.808594 97.335938 76.40625 97.574219 76.003906 98.132812 C 74.78125 99.855469 75.132812 102.089844 76.792969 103.105469 C 77.4375 103.507812 77.648438 103.542969 78.597656 103.476562 C 79.195312 103.425781 79.917969 103.253906 80.210938 103.105469 C 80.726562 102.832031 80.726562 102.816406 80.726562 101.566406 L 80.726562 100.296875 L 79.679688 100.296875 C 78.742188 100.296875 78.628906 100.328125 78.628906 100.632812 C 78.628906 100.90625 78.742188 100.972656 79.195312 100.972656 L 79.757812 100.972656 L 79.757812 102.648438 L 79.050781 102.75 C 78.035156 102.917969 77.421875 102.714844 76.875 102.070312 C 75.972656 100.988281 76.035156 99.164062 77.019531 98.183594 C 77.421875 97.777344 77.648438 97.691406 78.292969 97.691406 C 78.726562 97.691406 79.195312 97.792969 79.339844 97.910156 C 79.628906 98.164062 80.273438 98.097656 80.355469 97.808594 C 80.5 97.335938 78.679688 96.828125 77.746094 97.082031 Z M 77.746094 97.082031 "/>
<path style=" stroke:none;fill-rule:nonzero;fill:rgb(0%,0%,0%);fill-opacity:1;" d="M 84.511719 96.996094 C 84.429688 97.03125 84.078125 97.097656 83.753906 97.167969 C 81.996094 97.472656 80.964844 99.992188 81.851562 101.816406 C 82.996094 104.167969 86.765625 103.964844 87.734375 101.515625 C 88.023438 100.820312 88.039062 99.671875 87.796875 98.992188 C 87.574219 98.335938 86.71875 97.453125 86.140625 97.269531 C 85.460938 97.046875 84.703125 96.929688 84.511719 96.996094 Z M 86.121094 98.132812 C 87.28125 99.078125 87.300781 101.328125 86.140625 102.273438 C 85.171875 103.085938 83.671875 102.851562 82.933594 101.800781 C 82.546875 101.242188 82.402344 99.535156 82.691406 98.941406 C 83.269531 97.808594 85.171875 97.351562 86.121094 98.132812 Z M 86.121094 98.132812 "/>
<path style=" stroke:none;fill-rule:nonzero;fill:rgb(0%,0%,0%);fill-opacity:1;" d="M 30.308594 97.625 C 30.226562 97.84375 29.679688 99.144531 29.101562 100.53125 C 28.519531 101.917969 28.035156 103.121094 28.035156 103.203125 C 28.035156 103.273438 28.214844 103.339844 28.421875 103.339844 C 28.761719 103.339844 28.90625 103.171875 29.261719 102.324219 L 29.695312 101.3125 L 30.679688 101.3125 C 31.210938 101.3125 31.742188 101.378906 31.855469 101.445312 C 31.953125 101.515625 32.175781 101.953125 32.339844 102.410156 C 32.597656 103.15625 32.691406 103.253906 33.160156 103.304688 C 33.433594 103.339844 33.675781 103.324219 33.675781 103.273438 C 33.675781 103.203125 33.371094 102.425781 33.015625 101.515625 C 31.226562 97.066406 31.355469 97.335938 30.886719 97.285156 C 30.550781 97.234375 30.421875 97.320312 30.308594 97.625 Z M 30.308594 97.625 "/>
<path style=" stroke:none;fill-rule:nonzero;fill:rgb(0%,0%,0%);fill-opacity:1;" d="M 34.320312 100.296875 L 34.320312 103.339844 L 35.285156 103.339844 L 35.285156 101.058594 C 35.285156 99.804688 35.335938 98.773438 35.414062 98.773438 C 35.480469 98.789062 35.996094 99.484375 36.574219 100.328125 C 38.027344 102.496094 38.785156 103.339844 39.25 103.339844 L 39.636719 103.339844 L 39.636719 97.25 L 38.6875 97.25 L 38.636719 99.535156 L 38.589844 101.816406 L 37.382812 100.09375 C 35.59375 97.539062 35.320312 97.25 34.789062 97.25 L 34.320312 97.25 Z M 34.320312 100.296875 "/>
<path style=" stroke:none;fill-rule:nonzero;fill:rgb(0%,0%,0%);fill-opacity:1;" d="M 42.375 98.132812 C 42.183594 98.621094 41.84375 99.398438 41.652344 99.875 C 40.925781 101.546875 40.28125 103.136719 40.28125 103.238281 C 40.28125 103.289062 40.492188 103.339844 40.75 103.339844 C 41.136719 103.339844 41.25 103.253906 41.328125 102.867188 C 41.378906 102.613281 41.554688 102.15625 41.730469 101.851562 C 42.039062 101.34375 42.101562 101.3125 42.972656 101.3125 C 43.488281 101.3125 44.003906 101.378906 44.117188 101.445312 C 44.230469 101.53125 44.457031 101.96875 44.617188 102.425781 C 44.875 103.15625 44.988281 103.253906 45.421875 103.304688 C 45.695312 103.339844 45.921875 103.304688 45.921875 103.222656 C 45.921875 103.15625 45.40625 101.765625 44.761719 100.160156 C 43.664062 97.421875 43.570312 97.25 43.167969 97.25 C 42.796875 97.25 42.683594 97.386719 42.375 98.132812 Z M 42.375 98.132812 "/>
<path style=" stroke:none;fill-rule:nonzero;fill:rgb(0%,0%,0%);fill-opacity:1;" d="M 46.726562 100.296875 L 46.726562 103.339844 L 48.0625 103.339844 C 49.660156 103.339844 50.496094 102.984375 51.175781 102.054688 C 51.59375 101.496094 51.640625 101.277344 51.640625 100.226562 C 51.640625 99.230469 51.578125 98.925781 51.253906 98.453125 C 50.675781 97.589844 49.804688 97.25 48.144531 97.25 L 46.726562 97.25 Z M 49.789062 98.234375 C 50.820312 99.027344 51.011719 100.617188 50.207031 101.734375 C 49.660156 102.476562 49.335938 102.648438 48.339844 102.75 L 47.53125 102.816406 L 47.53125 100.398438 C 47.53125 99.078125 47.582031 97.929688 47.660156 97.859375 C 47.855469 97.640625 49.351562 97.894531 49.789062 98.234375 Z M 49.789062 98.234375 "/>
<path style=" stroke:none;fill-rule:nonzero;fill:rgb(0%,0%,0%);fill-opacity:1;" d="M 54.65625 97.539062 C 54.558594 97.707031 54.074219 98.824219 53.574219 100.042969 C 53.074219 101.242188 52.558594 102.460938 52.429688 102.730469 C 52.140625 103.355469 52.125 103.339844 52.671875 103.339844 C 53.058594 103.339844 53.171875 103.238281 53.414062 102.578125 C 53.816406 101.464844 54.027344 101.3125 55.074219 101.3125 C 55.574219 101.3125 56.074219 101.378906 56.167969 101.445312 C 56.265625 101.515625 56.476562 101.96875 56.636719 102.445312 C 56.925781 103.273438 56.976562 103.339844 57.472656 103.339844 C 58.007812 103.339844 58.117188 103.203125 57.859375 102.917969 C 57.796875 102.816406 57.472656 102.054688 57.152344 101.226562 C 55.816406 97.691406 55.636719 97.335938 55.203125 97.285156 C 54.945312 97.25 54.75 97.335938 54.65625 97.539062 Z M 54.65625 97.539062 "/>
<path style=" stroke:none;fill-rule:nonzero;fill:rgb(0%,0%,0%);fill-opacity:1;" d="M 61.390625 100.296875 L 61.390625 103.339844 L 62.757812 103.339844 C 64.386719 103.339844 64.984375 103.121094 65.707031 102.257812 C 66.320312 101.515625 66.449219 101.074219 66.351562 99.855469 C 66.207031 98.0625 65.113281 97.25 62.808594 97.25 L 61.390625 97.25 Z M 64.402344 98.183594 C 65.09375 98.671875 65.449219 99.433594 65.371094 100.398438 C 65.289062 101.699219 64.578125 102.496094 63.308594 102.730469 C 62.210938 102.933594 62.195312 102.902344 62.195312 100.3125 C 62.195312 99.027344 62.242188 97.929688 62.324219 97.859375 C 62.5 97.65625 63.96875 97.878906 64.402344 98.183594 Z M 64.402344 98.183594 "/>
<path style=" stroke:none;fill-rule:nonzero;fill:rgb(0%,0%,0%);fill-opacity:1;" d="M 67.671875 100.296875 L 67.671875 103.339844 L 69.6875 103.339844 C 71.589844 103.339844 71.703125 103.324219 71.703125 103.003906 C 71.703125 102.679688 71.589844 102.664062 70.089844 102.664062 L 68.480469 102.664062 L 68.480469 100.464844 L 69.769531 100.464844 C 70.945312 100.464844 71.058594 100.429688 71.058594 100.125 C 71.058594 99.824219 70.945312 99.789062 69.769531 99.789062 L 68.480469 99.789062 L 68.480469 97.929688 L 70.011719 97.929688 C 71.429688 97.929688 71.539062 97.910156 71.539062 97.589844 C 71.539062 97.269531 71.429688 97.25 69.605469 97.25 L 67.671875 97.25 Z M 67.671875 100.296875 "/>
<path style=" stroke:none;fill-rule:nonzero;fill:rgb(0%,0%,0%);fill-opacity:1;" d="M 89.105469 100.296875 L 89.105469 103.339844 L 90.070312 103.339844 L 90.070312 99.367188 L 90.78125 101.210938 C 91.167969 102.222656 91.585938 103.121094 91.714844 103.1875 C 92.292969 103.59375 92.550781 103.289062 93.292969 101.3125 L 94.019531 99.382812 L 94.066406 101.363281 L 94.113281 103.339844 L 95.066406 103.339844 L 95.066406 97.234375 L 94.566406 97.285156 C 94.113281 97.335938 94.035156 97.4375 93.359375 99.195312 C 91.988281 102.730469 92.132812 102.445312 91.941406 101.96875 C 91.859375 101.75 91.585938 101.109375 91.359375 100.550781 C 91.117188 99.992188 90.730469 99.027344 90.472656 98.386719 C 90.070312 97.371094 89.972656 97.25 89.554688 97.25 L 89.105469 97.25 Z M 89.105469 100.296875 "/>
<path style=" stroke:none;fill-rule:nonzero;fill:rgb(0%,0%,0%);fill-opacity:1;" d="M 96.355469 100.296875 L 96.355469 103.339844 L 98.367188 103.339844 C 100.269531 103.339844 100.382812 103.324219 100.382812 103.003906 C 100.382812 102.679688 100.269531 102.664062 98.769531 102.664062 L 97.160156 102.664062 L 97.160156 100.464844 L 98.449219 100.464844 C 99.625 100.464844 99.738281 100.429688 99.738281 100.125 C 99.738281 99.839844 99.609375 99.804688 98.496094 99.753906 L 97.242188 99.703125 L 97.191406 98.808594 L 97.144531 97.929688 L 98.769531 97.929688 C 100.238281 97.929688 100.398438 97.894531 100.351562 97.625 C 100.300781 97.371094 100.058594 97.335938 98.320312 97.285156 L 96.355469 97.234375 Z M 96.355469 100.296875 "/>
<path style=" stroke:none;fill-rule:nonzero;fill:rgb(0%,0%,0%);fill-opacity:1;" d="M 101.027344 97.589844 C 101.027344 97.910156 101.140625 97.929688 102.71875 97.929688 C 103.652344 97.929688 104.410156 97.996094 104.410156 98.082031 C 104.410156 98.148438 104.136719 98.554688 103.796875 98.960938 C 102.121094 100.988281 101.027344 102.5625 101.027344 102.933594 L 101.027344 103.339844 L 103.378906 103.339844 C 105.457031 103.339844 105.714844 103.304688 105.636719 103.070312 C 105.585938 102.917969 105.539062 102.765625 105.539062 102.730469 C 105.539062 102.699219 104.78125 102.664062 103.847656 102.664062 C 102.75 102.664062 102.15625 102.597656 102.15625 102.476562 C 102.15625 102.375 102.476562 101.867188 102.863281 101.34375 C 103.265625 100.820312 104.023438 99.789062 104.554688 99.0625 C 105.105469 98.351562 105.539062 97.640625 105.539062 97.503906 C 105.539062 97.285156 105.167969 97.25 103.28125 97.25 C 101.140625 97.25 101.027344 97.269531 101.027344 97.589844 Z M 101.027344 97.589844 "/>
</g>
</svg>
