<?xml version="1.0" encoding="UTF-8"?>
<svg xmlns="http://www.w3.org/2000/svg" xmlns:xlink="http://www.w3.org/1999/xlink" width="152px" height="152px" viewBox="0 0 152 152" version="1.1">
<g id="surface1">
<path style=" stroke:none;fill-rule:nonzero;fill:rgb(0%,0%,0%);fill-opacity:1;" d="M 69.742188 0.402344 C 60.941406 1.203125 52.332031 3.453125 44.621094 6.96875 C 32.585938 12.433594 21.792969 21.371094 14.214844 32.074219 C 6.640625 42.820312 2.351562 54.007812 0.632812 67.484375 C 0.210938 70.796875 0.152344 80.558594 0.535156 84.054688 C 1.070312 88.953125 2.542969 95.664062 4.019531 100.082031 C 4.4375 101.328125 4.859375 102.511719 4.957031 102.734375 C 5.070312 102.953125 5.433594 103.855469 5.757812 104.742188 C 8.171875 110.945312 12.1875 117.777344 17.011719 123.820312 C 19.785156 127.296875 24.664062 132.195312 28.125 134.96875 C 28.605469 135.351562 29.027344 135.710938 29.082031 135.792969 C 29.3125 136.074219 34.136719 139.445312 35.972656 140.59375 C 37.730469 141.695312 43.796875 145.011719 44.066406 145.011719 C 44.121094 145.011719 44.714844 145.273438 45.386719 145.59375 C 50.953125 148.246094 59.542969 150.574219 67.542969 151.578125 C 71.40625 152.058594 80.476562 152.058594 84.378906 151.578125 C 96.1875 150.070312 106.078125 146.65625 115.570312 140.832031 C 117.214844 139.808594 121.578125 136.835938 122.265625 136.234375 C 122.417969 136.113281 123.300781 135.371094 124.199219 134.625 C 126.894531 132.398438 128.160156 131.210938 130.992188 128.238281 C 142.414062 116.269531 149.457031 101.003906 151.386719 84.054688 C 151.769531 80.640625 151.714844 70.878906 151.292969 67.484375 C 150.125 58.324219 147.960938 50.875 144.175781 43.082031 C 142.144531 38.863281 140.15625 35.507812 137.628906 32.015625 C 135.660156 29.242188 135.507812 29.0625 133.152344 26.332031 C 123.605469 15.246094 110.917969 7.148438 96.625 3.03125 C 93.296875 2.070312 89.164062 1.265625 84.800781 0.683594 C 81.96875 0.320312 72.652344 0.140625 69.742188 0.402344 Z M 82.5625 2.914062 C 98.691406 4.398438 113.367188 10.824219 125.421875 21.671875 C 127.316406 23.378906 132.675781 29.242188 134.339844 31.433594 C 141.265625 40.570312 145.992188 50.976562 148.078125 61.761719 C 150.871094 76.242188 149.417969 90.78125 143.792969 104.539062 C 141.34375 110.523438 136.828125 117.9375 132.425781 123.21875 C 130.167969 125.929688 125.421875 130.609375 122.554688 132.980469 C 118.457031 136.375 111.398438 140.832031 107.246094 142.660156 C 106.824219 142.839844 105.582031 143.382812 104.472656 143.867188 C 93.203125 148.847656 78.773438 150.714844 65.628906 148.90625 C 49.996094 146.757812 34.882812 139.125 23.648438 127.738281 C 11.863281 115.765625 4.878906 101.003906 2.832031 83.753906 C 2.449219 80.457031 2.507812 70.859375 2.945312 67.484375 C 5.683594 46.09375 16.53125 28.039062 34.058594 15.726562 C 42.324219 9.921875 52.578125 5.625 62.375 3.835938 C 64.824219 3.394531 69.132812 2.851562 70.890625 2.75 C 74.144531 2.570312 79.671875 2.652344 82.5625 2.914062 Z M 82.5625 2.914062 "/>
<path style=" stroke:none;fill-rule:nonzero;fill:rgb(0%,0%,0%);fill-opacity:1;" d="M 75.675781 15.945312 C 75.15625 16.207031 74.546875 16.609375 74.355469 16.851562 C 73.992188 17.273438 73.992188 17.292969 74.394531 18.195312 C 74.890625 19.242188 74.910156 19.785156 74.527344 20.566406 C 74.144531 21.328125 74.164062 22.355469 74.585938 22.753906 C 74.757812 22.917969 75.253906 23.15625 75.675781 23.277344 C 76.785156 23.578125 77.300781 24.019531 77.300781 24.664062 C 77.300781 25.386719 77.1875 25.507812 76.09375 26.109375 C 73.457031 27.554688 72.269531 30.546875 73.207031 33.402344 C 73.457031 34.203125 73.472656 34.707031 73.320312 36.714844 C 73.207031 38.121094 72.976562 39.546875 72.726562 40.269531 C 72.519531 40.914062 72.328125 41.753906 72.328125 42.136719 C 72.328125 42.5 72.191406 42.941406 72.039062 43.101562 C 71.808594 43.363281 71.753906 44.046875 71.753906 46.65625 C 71.753906 50.695312 71.390625 63.1875 71.234375 63.867188 C 71.101562 64.410156 70.546875 59.230469 70.222656 54.648438 C 70.085938 52.640625 70.085938 51.09375 70.222656 49.546875 C 70.414062 47.441406 70.414062 47.300781 70.03125 46.757812 C 69.667969 46.234375 69.609375 45.753906 69.457031 41.515625 C 69.359375 38.964844 69.167969 36.492188 69.054688 36.050781 C 68.574219 34.265625 67.828125 33.359375 66.222656 32.578125 C 65.34375 32.136719 64.863281 32.054688 63.523438 32.054688 C 60.882812 32.074219 58.78125 32.898438 57.976562 34.246094 C 57.765625 34.605469 57.363281 35.992188 57.113281 37.316406 C 56.847656 38.621094 56.464844 40.230469 56.253906 40.871094 C 55.660156 42.699219 55.738281 43.363281 56.75 44.648438 C 57.25 45.269531 57.34375 46.296875 57.019531 47.699219 C 56.523438 49.929688 56.425781 51.816406 56.75 53.644531 C 57.058594 55.375 57.039062 55.515625 56.65625 57.902344 C 56.140625 60.957031 55.585938 64.3125 55.277344 66.277344 C 54.992188 68.148438 54.894531 68.347656 54.089844 68.808594 C 53.269531 69.292969 50.992188 71.921875 50.167969 73.367188 C 49.269531 74.914062 48.542969 76.902344 48.0625 79.03125 C 47.335938 82.246094 46.820312 84.957031 46.898438 85.019531 C 46.9375 85.058594 47.664062 85.398438 48.503906 85.800781 C 49.347656 86.203125 52.675781 87.890625 55.910156 89.558594 C 59.144531 91.222656 61.917969 92.589844 62.070312 92.589844 C 62.550781 92.589844 62.625 92.207031 62.757812 89.355469 C 62.875 87.105469 62.96875 86.445312 63.3125 85.679688 C 64.269531 83.613281 66.71875 82.40625 74.027344 80.316406 C 77.664062 79.292969 78.773438 78.871094 81.738281 77.304688 C 85.527344 75.316406 90.769531 71.863281 95 68.589844 C 100.011719 64.710938 103.554688 59.890625 104.070312 56.238281 C 104.394531 53.886719 104.890625 50.011719 104.988281 48.945312 C 105.101562 47.78125 104.796875 47.199219 103.800781 46.714844 C 102.386719 46.015625 101.3125 46.816406 99.648438 49.871094 C 96.683594 55.332031 95.996094 56.054688 89.96875 60.03125 C 88.761719 60.816406 87.710938 61.457031 87.613281 61.457031 C 87.402344 61.457031 87.289062 60.65625 87.058594 57.441406 C 86.410156 48.101562 86.082031 41.835938 86.027344 37.257812 C 85.949219 31.390625 85.71875 29.726562 84.726562 28.078125 C 84.035156 26.933594 82.753906 26.210938 81.070312 25.988281 C 79.882812 25.847656 79.101562 25.367188 78.8125 24.5625 C 78.542969 23.800781 78.792969 23.15625 79.464844 22.894531 C 81.703125 22.03125 82.085938 21.511719 82.085938 19.382812 C 82.085938 17.394531 81.550781 16.628906 79.578125 15.886719 C 78.179688 15.34375 76.878906 15.363281 75.675781 15.945312 Z M 76.898438 35.328125 C 77.300781 35.589844 77.050781 39.324219 76.535156 41.214844 C 75.847656 43.644531 75.0625 44.789062 74.066406 44.789062 C 73.226562 44.789062 73.359375 43.34375 74.449219 40.832031 C 74.777344 40.070312 75.15625 38.703125 75.3125 37.777344 C 75.65625 35.507812 76.113281 34.804688 76.898438 35.328125 Z M 64.941406 38.683594 C 65.34375 39.085938 65.324219 39.203125 64.824219 39.886719 C 64.425781 40.429688 64.386719 40.652344 64.40625 43.082031 C 64.425781 45.128906 64.519531 46.035156 64.84375 47.300781 C 65.265625 48.886719 66.125 50.835938 66.738281 51.558594 C 67.410156 52.339844 67.964844 53.265625 67.828125 53.386719 C 67.773438 53.464844 67.65625 53.425781 67.582031 53.304688 C 67.503906 53.203125 67.0625 52.5625 66.585938 51.917969 C 64.75 49.328125 64.308594 47.78125 64.15625 43.441406 C 64.078125 41.03125 63.984375 40.109375 63.792969 39.949219 C 63.640625 39.828125 63.523438 39.527344 63.523438 39.285156 C 63.523438 38.421875 64.367188 38.058594 64.941406 38.683594 Z M 76.152344 44.890625 C 76.382812 45.191406 76.382812 45.914062 76.039062 50.3125 C 75.886719 52.378906 76.113281 53.265625 77.242188 54.871094 C 79.558594 58.125 80.382812 59.773438 80.113281 60.515625 C 80.039062 60.714844 79.578125 60.835938 78.582031 60.894531 C 77.433594 60.976562 76.878906 61.136719 75.695312 61.761719 C 74.871094 62.183594 73.820312 62.863281 73.320312 63.285156 C 72.84375 63.707031 72.382812 64.007812 72.289062 63.949219 C 71.789062 63.628906 72.59375 49.207031 73.207031 47.921875 C 73.683594 46.898438 75.367188 44.585938 75.65625 44.585938 C 75.789062 44.585938 76.019531 44.726562 76.152344 44.890625 Z M 59.699219 45.8125 C 59.699219 46.035156 59.429688 46.796875 59.105469 47.5 C 58.378906 49.105469 58.148438 50.953125 58.625 51.699219 C 58.816406 52.019531 58.914062 52.542969 58.875 53.164062 L 58.835938 54.128906 L 59.851562 54.226562 C 61.019531 54.347656 61.171875 54.53125 61.34375 55.976562 C 61.515625 57.421875 61.285156 58.789062 60.730469 59.792969 C 60.195312 60.777344 60.15625 61.378906 60.578125 64.429688 C 60.730469 65.65625 60.847656 67.0625 60.808594 67.523438 C 60.75 68.367188 60.730469 68.386719 60.082031 68.347656 C 57.230469 68.148438 56.140625 68.027344 56.003906 67.90625 C 55.851562 67.746094 56.253906 64.671875 56.921875 61.175781 C 57.171875 59.832031 57.441406 58.285156 57.496094 57.742188 C 57.574219 57.179688 57.746094 56.257812 57.898438 55.65625 C 58.1875 54.609375 58.1875 54.570312 57.765625 54.167969 C 57.363281 53.765625 57.34375 53.664062 57.460938 51.136719 C 57.632812 47.277344 58.207031 45.390625 59.21875 45.390625 C 59.582031 45.390625 59.699219 45.492188 59.699219 45.8125 Z M 85.222656 49.347656 C 85.335938 49.667969 86.523438 58.324219 86.773438 60.59375 C 86.847656 61.417969 86.828125 61.859375 86.714844 61.859375 C 86.601562 61.859375 86.484375 61.78125 86.445312 61.699219 C 86.429688 61.597656 86.007812 61.238281 85.546875 60.894531 C 84.917969 60.414062 84.496094 60.253906 83.902344 60.253906 C 83.214844 60.253906 83.058594 60.171875 82.964844 59.792969 C 82.753906 58.929688 82.851562 57.339844 83.15625 56.878906 C 83.671875 56.074219 83.84375 55.191406 83.996094 52.28125 C 84.132812 49.429688 84.324219 48.726562 84.859375 48.925781 C 84.992188 48.984375 85.164062 49.167969 85.222656 49.347656 Z M 81.433594 49.910156 C 81.703125 50.351562 81.738281 50.753906 81.644531 52.28125 C 81.433594 55.65625 81.203125 56.015625 80.265625 54.347656 C 79.328125 52.640625 79.273438 50.53125 80.191406 49.75 C 80.746094 49.289062 81.070312 49.328125 81.433594 49.910156 Z M 65.746094 54.507812 C 66.050781 54.75 66.109375 55.050781 66.109375 56.679688 C 66.109375 58.164062 66.03125 58.746094 65.6875 59.589844 C 65.171875 60.816406 65.132812 62.121094 65.515625 65.355469 C 65.667969 66.558594 65.746094 67.664062 65.6875 67.824219 C 65.570312 68.148438 64.519531 68.46875 62.96875 68.628906 L 61.746094 68.75 L 61.859375 65.65625 C 61.957031 62.945312 62.03125 62.421875 62.453125 61.457031 C 62.894531 60.453125 63.523438 56.941406 63.523438 55.554688 C 63.523438 54.671875 63.90625 54.226562 64.671875 54.226562 C 65.054688 54.226562 65.535156 54.347656 65.746094 54.507812 Z M 69.511719 56.878906 C 69.953125 59.429688 70.605469 64.191406 70.605469 64.875 C 70.605469 65.375 70.433594 65.535156 69.035156 66.359375 C 66.988281 67.523438 66.855469 67.445312 66.890625 64.8125 C 66.910156 63.347656 67.027344 62.644531 67.445312 61.457031 C 67.8125 60.433594 68.003906 59.351562 68.097656 58.023438 C 68.210938 56.214844 68.59375 55.03125 69.035156 55.03125 C 69.132812 55.03125 69.339844 55.875 69.511719 56.878906 Z M 92.800781 59.914062 C 92.800781 60.394531 91.328125 62.5625 90.332031 63.527344 C 88.914062 64.914062 87.5 65.554688 85.816406 65.554688 C 84.707031 65.554688 84.34375 65.476562 83.84375 65.113281 C 82.714844 64.269531 83.136719 63.46875 84.707031 63.46875 C 86.410156 63.46875 87.976562 62.804688 90.023438 61.238281 C 90.980469 60.496094 92.378906 59.652344 92.648438 59.652344 C 92.742188 59.652344 92.800781 59.773438 92.800781 59.914062 Z M 92.800781 59.914062 "/>
<path style=" stroke:none;fill-rule:nonzero;fill:rgb(0%,0%,0%);fill-opacity:1;" d="M 64.195312 22.917969 C 60.519531 23.296875 59.5625 23.71875 59.027344 25.1875 C 58.703125 26.070312 58.703125 26.171875 59.027344 27.476562 C 59.21875 28.21875 59.410156 29.121094 59.449219 29.464844 C 59.542969 30.046875 59.621094 30.125 60.117188 30.125 C 60.425781 30.125 60.902344 29.945312 61.171875 29.726562 C 61.6875 29.304688 62.183594 29.203125 62.183594 29.523438 C 62.183594 29.625 61.9375 29.90625 61.609375 30.167969 C 61.304688 30.40625 61.039062 30.769531 61.039062 30.96875 C 61.039062 31.976562 62.757812 31.390625 63.160156 30.265625 L 63.390625 29.566406 L 64.921875 29.484375 C 66.300781 29.425781 66.472656 29.363281 66.890625 28.863281 C 67.484375 28.136719 67.464844 27.515625 66.875 26.914062 C 66.28125 26.332031 66.28125 26.171875 66.875 24.964844 C 67.179688 24.402344 67.351562 23.761719 67.3125 23.398438 C 67.253906 22.855469 67.179688 22.796875 66.585938 22.777344 C 66.222656 22.753906 65.152344 22.816406 64.195312 22.917969 Z M 64.195312 22.917969 "/>
<path style=" stroke:none;fill-rule:nonzero;fill:rgb(0%,0%,0%);fill-opacity:1;" d="M 109.886719 93.632812 C 107.894531 94.335938 106.441406 96.125 105.503906 99.015625 C 105.007812 100.582031 105.007812 105.0625 105.503906 106.648438 C 106.289062 109.121094 107.570312 110.804688 109.371094 111.75 C 112.527344 113.398438 116.753906 111.910156 118.285156 108.617188 C 118.820312 107.472656 119.128906 105.945312 118.878906 105.785156 C 118.800781 105.726562 118.09375 105.644531 117.308594 105.625 L 115.894531 105.542969 L 115.625 106.527344 C 115.089844 108.4375 113.921875 109.460938 112.296875 109.460938 C 111.1875 109.460938 110.34375 108.816406 109.636719 107.433594 C 108.222656 104.621094 108.507812 98.996094 110.171875 97.148438 C 111.207031 96.003906 112.507812 95.683594 113.636719 96.304688 C 114.460938 96.746094 115.359375 98.054688 115.605469 99.175781 L 115.835938 100.160156 L 117.273438 100.0625 C 118.074219 100.019531 118.785156 99.921875 118.878906 99.839844 C 119.109375 99.597656 118.285156 97.128906 117.617188 96.085938 C 116.851562 94.878906 115.378906 93.695312 114.304688 93.414062 C 113.023438 93.070312 111.207031 93.171875 109.886719 93.632812 Z M 109.886719 93.632812 "/>
<path style=" stroke:none;fill-rule:nonzero;fill:rgb(0%,0%,0%);fill-opacity:1;" d="M 34.765625 93.535156 C 34.707031 93.632812 33.542969 97.351562 32.164062 101.828125 C 30.765625 106.308594 29.523438 110.324219 29.371094 110.765625 C 28.929688 112.050781 28.949219 112.070312 30.402344 112.070312 C 31.703125 112.070312 31.722656 112.070312 32.03125 111.390625 C 32.203125 111.007812 32.335938 110.625 32.335938 110.503906 C 32.335938 110.40625 32.507812 109.703125 32.71875 108.980469 L 33.121094 107.652344 L 36.335938 107.652344 C 38.6875 107.652344 39.605469 107.714844 39.742188 107.894531 C 39.855469 108.035156 40.21875 109.039062 40.582031 110.105469 L 41.214844 112.070312 L 42.898438 112.070312 C 44.121094 112.070312 44.582031 112.011719 44.582031 111.832031 C 44.582031 111.691406 43.28125 107.472656 41.691406 102.492188 L 38.804688 93.394531 L 36.832031 93.394531 C 35.742188 93.394531 34.804688 93.453125 34.765625 93.535156 Z M 37.695312 101.023438 C 38.25 102.851562 38.746094 104.460938 38.785156 104.582031 C 38.859375 104.78125 38.34375 104.839844 36.566406 104.839844 C 34.9375 104.839844 34.25 104.78125 34.25 104.601562 C 34.25 104.058594 36.429688 97.410156 36.566406 97.550781 C 36.640625 97.632812 37.15625 99.199219 37.695312 101.023438 Z M 37.695312 101.023438 "/>
<path style=" stroke:none;fill-rule:nonzero;fill:rgb(0%,0%,0%);fill-opacity:1;" d="M 53.574219 102.734375 L 53.574219 112.070312 L 64.480469 112.070312 L 64.480469 108.859375 L 57.019531 108.859375 L 57.019531 93.394531 L 53.574219 93.394531 Z M 53.574219 102.734375 "/>
<path style=" stroke:none;fill-rule:nonzero;fill:rgb(0%,0%,0%);fill-opacity:1;" d="M 73.089844 93.433594 C 73.089844 93.472656 73.074219 97.652344 73.074219 102.734375 L 73.074219 111.972656 L 74.699219 112.03125 L 76.34375 112.09375 L 76.34375 104.882812 L 79.367188 104.800781 C 82.792969 104.722656 83.519531 104.5 84.839844 103.113281 C 85.890625 101.988281 86.351562 100.804688 86.371094 99.117188 C 86.390625 96.164062 84.667969 94.097656 81.738281 93.59375 C 80.800781 93.433594 73.089844 93.292969 73.089844 93.433594 Z M 81.625 96.929688 C 82.542969 97.390625 82.851562 97.933594 82.851562 99.136719 C 82.851562 101.125 81.894531 101.707031 78.542969 101.707031 L 76.441406 101.726562 L 76.382812 99.15625 L 76.324219 96.605469 L 78.660156 96.605469 C 80.402344 96.605469 81.128906 96.6875 81.625 96.929688 Z M 81.625 96.929688 "/>
<path style=" stroke:none;fill-rule:nonzero;fill:rgb(0%,0%,0%);fill-opacity:1;" d="M 92.800781 102.734375 L 92.800781 112.09375 L 94.445312 112.03125 L 96.070312 111.972656 L 96.070312 102.933594 C 96.070312 97.953125 96.050781 93.773438 96.050781 93.632812 C 96.050781 93.453125 95.59375 93.394531 94.425781 93.394531 L 92.800781 93.394531 Z M 92.800781 102.734375 "/>
<path style=" stroke:none;fill-rule:nonzero;fill:rgb(0%,0%,0%);fill-opacity:1;" d="M 46.878906 110.265625 L 46.878906 112.09375 L 48.542969 112.03125 L 50.1875 111.972656 L 50.1875 108.558594 L 48.542969 108.496094 L 46.878906 108.4375 Z M 46.878906 110.265625 "/>
<path style=" stroke:none;fill-rule:nonzero;fill:rgb(0%,0%,0%);fill-opacity:1;" d="M 66.375 109.863281 C 66.355469 110.625 66.335938 111.429688 66.316406 111.609375 C 66.300781 111.929688 66.507812 111.972656 67.984375 112.03125 L 69.648438 112.09375 L 69.648438 108.457031 L 66.394531 108.457031 Z M 66.375 109.863281 "/>
<path style=" stroke:none;fill-rule:nonzero;fill:rgb(0%,0%,0%);fill-opacity:1;" d="M 86.101562 110.265625 L 86.101562 112.09375 L 87.785156 112.03125 L 89.449219 111.972656 L 89.449219 108.558594 L 87.785156 108.496094 L 86.101562 108.4375 Z M 86.101562 110.265625 "/>
<path style=" stroke:none;fill-rule:nonzero;fill:rgb(0%,0%,0%);fill-opacity:1;" d="M 99.496094 110.265625 L 99.496094 112.09375 L 101.160156 112.03125 L 102.808594 111.972656 L 102.808594 108.558594 L 101.160156 108.496094 L 99.496094 108.4375 Z M 99.496094 110.265625 "/>
<path style=" stroke:none;fill-rule:nonzero;fill:rgb(0%,0%,0%);fill-opacity:1;" d="M 120.925781 110.265625 L 120.925781 112.070312 L 124.371094 112.070312 L 124.371094 108.457031 L 120.925781 108.457031 Z M 120.925781 110.265625 "/>
<path style=" stroke:none;fill-rule:nonzero;fill:rgb(0%,0%,0%);fill-opacity:1;" d="M 29.21875 115.285156 C 27.34375 115.667969 26.175781 117.777344 26.617188 120.023438 C 26.921875 121.652344 28.355469 122.917969 29.886719 122.917969 C 30.84375 122.917969 31.894531 122.554688 32.46875 122.015625 C 32.96875 121.59375 32.96875 121.53125 32.660156 121.390625 C 32.449219 121.3125 31.992188 121.429688 31.496094 121.691406 C 30.519531 122.195312 29.847656 122.234375 29.007812 121.8125 C 27.378906 120.988281 27.09375 117.875 28.527344 116.609375 C 29.21875 116.007812 30.652344 115.886719 31.550781 116.390625 C 32.050781 116.652344 32.125 116.652344 32.335938 116.390625 C 32.699219 115.929688 32.277344 115.546875 31.167969 115.304688 C 30.632812 115.183594 30.15625 115.105469 30.078125 115.105469 C 30.003906 115.125 29.621094 115.203125 29.21875 115.285156 Z M 29.21875 115.285156 "/>
<path style=" stroke:none;fill-rule:nonzero;fill:rgb(0%,0%,0%);fill-opacity:1;" d="M 92.320312 115.285156 C 91.210938 115.585938 90.734375 115.867188 90.253906 116.53125 C 88.800781 118.578125 89.222656 121.230469 91.191406 122.433594 C 91.957031 122.917969 92.207031 122.957031 93.335938 122.878906 C 94.042969 122.816406 94.90625 122.617188 95.25 122.433594 C 95.859375 122.113281 95.859375 122.09375 95.859375 120.609375 L 95.859375 119.101562 L 94.617188 119.101562 C 93.507812 119.101562 93.375 119.140625 93.375 119.503906 C 93.375 119.824219 93.507812 119.90625 94.042969 119.90625 L 94.714844 119.90625 L 94.714844 121.894531 L 93.871094 122.015625 C 92.664062 122.214844 91.9375 121.972656 91.289062 121.210938 C 90.214844 119.925781 90.292969 117.753906 91.460938 116.589844 C 91.9375 116.109375 92.207031 116.007812 92.972656 116.007812 C 93.488281 116.007812 94.042969 116.128906 94.214844 116.269531 C 94.558594 116.570312 95.324219 116.492188 95.421875 116.148438 C 95.59375 115.585938 93.429688 114.984375 92.320312 115.285156 Z M 92.320312 115.285156 "/>
<path style=" stroke:none;fill-rule:nonzero;fill:rgb(0%,0%,0%);fill-opacity:1;" d="M 100.359375 115.183594 C 100.261719 115.226562 99.839844 115.304688 99.457031 115.386719 C 97.371094 115.746094 96.148438 118.738281 97.199219 120.910156 C 98.558594 123.699219 103.035156 123.460938 104.183594 120.546875 C 104.527344 119.722656 104.546875 118.359375 104.261719 117.554688 C 103.992188 116.773438 102.980469 115.726562 102.289062 115.507812 C 101.488281 115.246094 100.585938 115.105469 100.359375 115.183594 Z M 102.269531 116.53125 C 103.648438 117.65625 103.667969 120.328125 102.289062 121.453125 C 101.140625 122.414062 99.363281 122.132812 98.480469 120.890625 C 98.023438 120.226562 97.851562 118.199219 98.195312 117.496094 C 98.882812 116.148438 101.140625 115.605469 102.269531 116.53125 Z M 102.269531 116.53125 "/>
<path style=" stroke:none;fill-rule:nonzero;fill:rgb(0%,0%,0%);fill-opacity:1;" d="M 35.992188 115.929688 C 35.894531 116.1875 35.246094 117.734375 34.554688 119.382812 C 33.867188 121.03125 33.292969 122.457031 33.292969 122.554688 C 33.292969 122.636719 33.503906 122.714844 33.753906 122.714844 C 34.152344 122.714844 34.328125 122.515625 34.746094 121.511719 L 35.265625 120.304688 L 36.429688 120.304688 C 37.0625 120.304688 37.695312 120.386719 37.828125 120.46875 C 37.941406 120.546875 38.210938 121.070312 38.402344 121.613281 C 38.707031 122.496094 38.824219 122.617188 39.378906 122.675781 C 39.703125 122.714844 39.988281 122.695312 39.988281 122.636719 C 39.988281 122.554688 39.625 121.632812 39.207031 120.546875 C 37.082031 115.265625 37.234375 115.585938 36.679688 115.527344 C 36.277344 115.464844 36.125 115.566406 35.992188 115.929688 Z M 35.992188 115.929688 "/>
<path style=" stroke:none;fill-rule:nonzero;fill:rgb(0%,0%,0%);fill-opacity:1;" d="M 40.753906 119.101562 L 40.753906 122.714844 L 41.902344 122.714844 L 41.902344 120.003906 C 41.902344 118.519531 41.960938 117.292969 42.054688 117.292969 C 42.132812 117.3125 42.746094 118.136719 43.433594 119.140625 C 45.15625 121.710938 46.054688 122.714844 46.609375 122.714844 L 47.070312 122.714844 L 47.070312 115.484375 L 45.941406 115.484375 L 45.882812 118.199219 L 45.824219 120.910156 L 44.390625 118.859375 C 42.265625 115.828125 41.941406 115.484375 41.308594 115.484375 L 40.753906 115.484375 Z M 40.753906 119.101562 "/>
<path style=" stroke:none;fill-rule:nonzero;fill:rgb(0%,0%,0%);fill-opacity:1;" d="M 50.320312 116.53125 C 50.09375 117.113281 49.691406 118.035156 49.460938 118.597656 C 48.601562 120.585938 47.835938 122.476562 47.835938 122.597656 C 47.835938 122.65625 48.082031 122.714844 48.390625 122.714844 C 48.847656 122.714844 48.984375 122.617188 49.078125 122.15625 C 49.136719 121.851562 49.347656 121.3125 49.558594 120.949219 C 49.921875 120.347656 49.996094 120.304688 51.03125 120.304688 C 51.640625 120.304688 52.253906 120.386719 52.390625 120.46875 C 52.523438 120.566406 52.789062 121.089844 52.980469 121.632812 C 53.289062 122.496094 53.421875 122.617188 53.9375 122.675781 C 54.265625 122.714844 54.53125 122.675781 54.53125 122.574219 C 54.53125 122.496094 53.917969 120.847656 53.152344 118.941406 C 51.851562 115.6875 51.738281 115.484375 51.261719 115.484375 C 50.820312 115.484375 50.6875 115.648438 50.320312 116.53125 Z M 50.320312 116.53125 "/>
<path style=" stroke:none;fill-rule:nonzero;fill:rgb(0%,0%,0%);fill-opacity:1;" d="M 55.488281 119.101562 L 55.488281 122.714844 L 57.078125 122.714844 C 58.972656 122.714844 59.964844 122.296875 60.769531 121.191406 C 61.265625 120.527344 61.324219 120.265625 61.324219 119.019531 C 61.324219 117.835938 61.246094 117.476562 60.863281 116.914062 C 60.175781 115.886719 59.144531 115.484375 57.171875 115.484375 L 55.488281 115.484375 Z M 59.125 116.652344 C 60.347656 117.59375 60.578125 119.484375 59.621094 120.808594 C 58.972656 121.691406 58.589844 121.894531 57.402344 122.015625 L 56.445312 122.09375 L 56.445312 119.222656 C 56.445312 117.65625 56.503906 116.289062 56.597656 116.210938 C 56.828125 115.949219 58.605469 116.25 59.125 116.652344 Z M 59.125 116.652344 "/>
<path style=" stroke:none;fill-rule:nonzero;fill:rgb(0%,0%,0%);fill-opacity:1;" d="M 64.902344 115.828125 C 64.789062 116.027344 64.214844 117.355469 63.621094 118.800781 C 63.027344 120.226562 62.414062 121.671875 62.261719 121.992188 C 61.917969 122.738281 61.898438 122.714844 62.550781 122.714844 C 63.007812 122.714844 63.140625 122.597656 63.429688 121.8125 C 63.90625 120.488281 64.15625 120.304688 65.398438 120.304688 C 65.992188 120.304688 66.585938 120.386719 66.699219 120.46875 C 66.816406 120.546875 67.0625 121.089844 67.253906 121.652344 C 67.601562 122.636719 67.65625 122.714844 68.25 122.714844 C 68.882812 122.714844 69.015625 122.554688 68.710938 122.214844 C 68.632812 122.09375 68.25 121.191406 67.867188 120.207031 C 66.28125 116.007812 66.070312 115.585938 65.554688 115.527344 C 65.246094 115.484375 65.015625 115.585938 64.902344 115.828125 Z M 64.902344 115.828125 "/>
<path style=" stroke:none;fill-rule:nonzero;fill:rgb(0%,0%,0%);fill-opacity:1;" d="M 72.898438 119.101562 L 72.898438 122.714844 L 74.527344 122.714844 C 76.460938 122.714844 77.167969 122.457031 78.027344 121.429688 C 78.753906 120.546875 78.910156 120.023438 78.792969 118.578125 C 78.621094 116.449219 77.320312 115.484375 74.585938 115.484375 L 72.898438 115.484375 Z M 76.476562 116.589844 C 77.300781 117.171875 77.722656 118.078125 77.625 119.222656 C 77.53125 120.769531 76.6875 121.710938 75.175781 121.992188 C 73.875 122.234375 73.855469 122.195312 73.855469 119.121094 C 73.855469 117.59375 73.914062 116.289062 74.011719 116.210938 C 74.21875 115.96875 75.960938 116.230469 76.476562 116.589844 Z M 76.476562 116.589844 "/>
<path style=" stroke:none;fill-rule:nonzero;fill:rgb(0%,0%,0%);fill-opacity:1;" d="M 80.363281 119.101562 L 80.363281 122.714844 L 82.753906 122.714844 C 85.011719 122.714844 85.144531 122.695312 85.144531 122.316406 C 85.144531 121.933594 85.011719 121.914062 83.234375 121.914062 L 81.320312 121.914062 L 81.320312 119.300781 L 82.851562 119.300781 C 84.246094 119.300781 84.378906 119.261719 84.378906 118.902344 C 84.378906 118.539062 84.246094 118.5 82.851562 118.5 L 81.320312 118.5 L 81.320312 116.289062 L 83.136719 116.289062 C 84.820312 116.289062 84.953125 116.269531 84.953125 115.886719 C 84.953125 115.507812 84.820312 115.484375 82.660156 115.484375 L 80.363281 115.484375 Z M 80.363281 119.101562 "/>
<path style=" stroke:none;fill-rule:nonzero;fill:rgb(0%,0%,0%);fill-opacity:1;" d="M 105.8125 119.101562 L 105.8125 122.714844 L 106.957031 122.714844 L 106.957031 117.996094 L 107.800781 120.1875 C 108.261719 121.390625 108.757812 122.457031 108.910156 122.535156 C 109.597656 123.019531 109.90625 122.65625 110.785156 120.304688 L 111.648438 118.015625 L 111.703125 120.367188 L 111.761719 122.714844 L 112.890625 122.714844 L 112.890625 115.464844 L 112.296875 115.527344 C 111.761719 115.585938 111.664062 115.707031 110.863281 117.796875 C 109.234375 121.992188 109.40625 121.652344 109.179688 121.089844 C 109.082031 120.828125 108.757812 120.066406 108.488281 119.402344 C 108.203125 118.738281 107.742188 117.59375 107.4375 116.832031 C 106.957031 115.625 106.84375 115.484375 106.347656 115.484375 L 105.8125 115.484375 Z M 105.8125 119.101562 "/>
<path style=" stroke:none;fill-rule:nonzero;fill:rgb(0%,0%,0%);fill-opacity:1;" d="M 114.421875 119.101562 L 114.421875 122.714844 L 116.8125 122.714844 C 119.070312 122.714844 119.203125 122.695312 119.203125 122.316406 C 119.203125 121.933594 119.070312 121.914062 117.292969 121.914062 L 115.378906 121.914062 L 115.378906 119.300781 L 116.910156 119.300781 C 118.304688 119.300781 118.4375 119.261719 118.4375 118.902344 C 118.4375 118.558594 118.285156 118.519531 116.964844 118.457031 L 115.472656 118.398438 L 115.414062 117.335938 L 115.359375 116.289062 L 117.292969 116.289062 C 119.03125 116.289062 119.222656 116.25 119.167969 115.929688 C 119.109375 115.625 118.820312 115.585938 116.753906 115.527344 L 114.421875 115.464844 Z M 114.421875 119.101562 "/>
<path style=" stroke:none;fill-rule:nonzero;fill:rgb(0%,0%,0%);fill-opacity:1;" d="M 119.96875 115.886719 C 119.96875 116.269531 120.105469 116.289062 121.980469 116.289062 C 123.089844 116.289062 123.988281 116.371094 123.988281 116.46875 C 123.988281 116.550781 123.664062 117.03125 123.261719 117.515625 C 121.269531 119.925781 119.96875 121.792969 119.96875 122.234375 L 119.96875 122.714844 L 122.761719 122.714844 C 125.230469 122.714844 125.539062 122.675781 125.441406 122.394531 C 125.382812 122.214844 125.328125 122.035156 125.328125 121.992188 C 125.328125 121.953125 124.429688 121.914062 123.316406 121.914062 C 122.015625 121.914062 121.308594 121.832031 121.308594 121.691406 C 121.308594 121.570312 121.691406 120.96875 122.152344 120.347656 C 122.628906 119.722656 123.527344 118.5 124.160156 117.636719 C 124.8125 116.792969 125.328125 115.949219 125.328125 115.789062 C 125.328125 115.527344 124.886719 115.484375 122.648438 115.484375 C 120.105469 115.484375 119.96875 115.507812 119.96875 115.886719 Z M 119.96875 115.886719 "/>
</g>
</svg>
