<?xml version="1.0" encoding="UTF-8"?>
<svg xmlns="http://www.w3.org/2000/svg" xmlns:xlink="http://www.w3.org/1999/xlink" width="144px" height="144px" viewBox="0 0 144 144" version="1.1">
<g id="surface1">
<path style=" stroke:none;fill-rule:nonzero;fill:rgb(0%,0%,0%);fill-opacity:1;" d="M 66.074219 0.378906 C 57.734375 1.140625 49.578125 3.273438 42.273438 6.601562 C 30.871094 11.777344 20.648438 20.246094 13.46875 30.386719 C 6.289062 40.566406 2.230469 51.164062 0.597656 63.933594 C 0.199219 67.070312 0.144531 76.320312 0.507812 79.628906 C 1.015625 84.273438 2.410156 90.628906 3.808594 94.8125 C 4.207031 95.992188 4.605469 97.117188 4.695312 97.324219 C 4.804688 97.535156 5.148438 98.390625 5.457031 99.226562 C 7.738281 105.109375 11.546875 111.578125 16.113281 117.304688 C 18.742188 120.597656 23.367188 125.238281 26.648438 127.863281 C 27.101562 128.226562 27.5 128.570312 27.554688 128.644531 C 27.769531 128.910156 32.339844 132.109375 34.078125 133.191406 C 35.746094 134.238281 41.492188 137.378906 41.746094 137.378906 C 41.800781 137.378906 42.363281 137.625 42.996094 137.929688 C 48.273438 140.441406 56.410156 142.648438 63.988281 143.601562 C 67.648438 144.058594 76.242188 144.058594 79.941406 143.601562 C 91.125 142.171875 100.496094 138.9375 109.488281 133.421875 C 111.046875 132.449219 115.179688 129.632812 115.832031 129.0625 C 115.976562 128.949219 116.808594 128.246094 117.660156 127.542969 C 120.21875 125.429688 121.414062 124.304688 124.097656 121.492188 C 134.917969 110.148438 141.589844 95.6875 143.421875 79.628906 C 143.78125 76.394531 143.726562 67.148438 143.328125 63.933594 C 142.222656 55.253906 140.175781 48.195312 136.585938 40.8125 C 134.664062 36.816406 132.78125 33.640625 130.386719 30.328125 C 128.519531 27.703125 128.375 27.53125 126.144531 24.945312 C 117.101562 14.441406 105.082031 6.773438 91.539062 2.875 C 88.386719 1.960938 84.472656 1.199219 80.339844 0.648438 C 77.65625 0.304688 68.828125 0.132812 66.074219 0.378906 Z M 78.21875 2.757812 C 93.5 4.167969 107.402344 10.253906 118.820312 20.53125 C 120.617188 22.148438 125.691406 27.703125 127.269531 29.777344 C 133.832031 38.433594 138.308594 48.292969 140.285156 58.507812 C 142.929688 72.226562 141.554688 86.003906 136.222656 99.039062 C 133.902344 104.707031 129.625 111.730469 125.457031 116.734375 C 123.316406 119.300781 118.820312 123.734375 116.101562 125.980469 C 112.222656 129.195312 105.535156 133.421875 101.601562 135.152344 C 101.203125 135.324219 100.023438 135.835938 98.972656 136.292969 C 88.296875 141.011719 74.628906 142.78125 62.175781 141.070312 C 47.367188 139.035156 33.046875 131.804688 22.40625 121.015625 C 11.238281 109.675781 4.621094 95.6875 2.683594 79.34375 C 2.320312 76.222656 2.375 67.128906 2.792969 63.933594 C 5.382812 43.667969 15.660156 26.5625 32.265625 14.898438 C 40.097656 9.398438 49.8125 5.328125 59.09375 3.632812 C 61.414062 3.214844 65.492188 2.703125 67.160156 2.605469 C 70.242188 2.433594 75.480469 2.511719 78.21875 2.757812 Z M 78.21875 2.757812 "/>
<path style=" stroke:none;fill-rule:nonzero;fill:rgb(0%,0%,0%);fill-opacity:1;" d="M 71.691406 15.109375 C 71.203125 15.355469 70.621094 15.734375 70.441406 15.964844 C 70.097656 16.363281 70.097656 16.382812 70.476562 17.238281 C 70.949219 18.226562 70.964844 18.742188 70.605469 19.484375 C 70.242188 20.207031 70.261719 21.175781 70.660156 21.558594 C 70.820312 21.710938 71.292969 21.9375 71.691406 22.054688 C 72.742188 22.339844 73.234375 22.757812 73.234375 23.367188 C 73.234375 24.050781 73.125 24.164062 72.089844 24.734375 C 69.589844 26.105469 68.464844 28.941406 69.351562 31.644531 C 69.589844 32.402344 69.605469 32.878906 69.460938 34.78125 C 69.351562 36.113281 69.136719 37.464844 68.898438 38.148438 C 68.699219 38.757812 68.519531 39.558594 68.519531 39.917969 C 68.519531 40.261719 68.394531 40.679688 68.246094 40.832031 C 68.03125 41.082031 67.976562 41.726562 67.976562 44.199219 C 67.976562 48.023438 67.632812 59.859375 67.488281 60.507812 C 67.359375 61.019531 66.832031 56.113281 66.527344 51.773438 C 66.398438 49.871094 66.398438 48.40625 66.527344 46.941406 C 66.707031 44.941406 66.707031 44.808594 66.34375 44.296875 C 66 43.800781 65.945312 43.34375 65.800781 39.328125 C 65.710938 36.914062 65.527344 34.574219 65.421875 34.15625 C 64.964844 32.460938 64.261719 31.605469 62.738281 30.863281 C 61.902344 30.445312 61.449219 30.367188 60.179688 30.367188 C 57.679688 30.386719 55.6875 31.167969 54.925781 32.441406 C 54.726562 32.785156 54.34375 34.097656 54.109375 35.351562 C 53.855469 36.589844 53.492188 38.113281 53.292969 38.722656 C 52.730469 40.453125 52.804688 41.082031 53.765625 42.296875 C 54.234375 42.886719 54.328125 43.859375 54.019531 45.191406 C 53.546875 47.300781 53.457031 49.089844 53.765625 50.824219 C 54.054688 52.457031 54.035156 52.59375 53.671875 54.855469 C 53.183594 57.75 52.660156 60.925781 52.367188 62.789062 C 52.097656 64.558594 52.007812 64.75 51.246094 65.1875 C 50.464844 65.644531 48.308594 68.136719 47.527344 69.507812 C 46.675781 70.972656 45.988281 72.855469 45.535156 74.875 C 44.847656 77.917969 44.355469 80.484375 44.429688 80.542969 C 44.464844 80.582031 45.152344 80.90625 45.953125 81.285156 C 46.75 81.664062 49.902344 83.265625 52.964844 84.84375 C 56.03125 86.421875 58.660156 87.714844 58.804688 87.714844 C 59.257812 87.714844 59.328125 87.355469 59.457031 84.652344 C 59.566406 82.523438 59.65625 81.894531 59.980469 81.171875 C 60.886719 79.210938 63.207031 78.070312 70.132812 76.089844 C 73.578125 75.121094 74.628906 74.722656 77.4375 73.238281 C 81.027344 71.351562 85.992188 68.082031 90 64.980469 C 94.75 61.304688 98.101562 56.738281 98.59375 53.277344 C 98.898438 51.050781 99.371094 47.378906 99.460938 46.371094 C 99.570312 45.265625 99.28125 44.714844 98.339844 44.257812 C 96.996094 43.59375 95.980469 44.351562 94.40625 47.246094 C 91.59375 52.421875 90.941406 53.105469 85.234375 56.875 C 84.089844 57.613281 83.09375 58.222656 83.003906 58.222656 C 82.804688 58.222656 82.695312 57.464844 82.476562 54.417969 C 81.859375 45.570312 81.554688 39.632812 81.5 35.296875 C 81.425781 29.738281 81.207031 28.160156 80.265625 26.601562 C 79.613281 25.515625 78.398438 24.832031 76.804688 24.621094 C 75.679688 24.488281 74.9375 24.03125 74.664062 23.269531 C 74.410156 22.546875 74.648438 21.9375 75.28125 21.691406 C 77.402344 20.875 77.765625 20.378906 77.765625 18.363281 C 77.765625 16.476562 77.257812 15.753906 75.390625 15.050781 C 74.066406 14.535156 72.832031 14.554688 71.691406 15.109375 Z M 72.851562 33.46875 C 73.234375 33.714844 72.996094 37.253906 72.507812 39.042969 C 71.855469 41.347656 71.113281 42.429688 70.167969 42.429688 C 69.371094 42.429688 69.5 41.0625 70.53125 38.683594 C 70.839844 37.960938 71.203125 36.664062 71.347656 35.789062 C 71.671875 33.640625 72.109375 32.976562 72.851562 33.46875 Z M 61.523438 36.648438 C 61.902344 37.027344 61.886719 37.140625 61.414062 37.789062 C 61.035156 38.300781 60.996094 38.511719 61.015625 40.8125 C 61.035156 42.753906 61.125 43.609375 61.433594 44.808594 C 61.832031 46.3125 62.648438 48.160156 63.226562 48.84375 C 63.859375 49.585938 64.386719 50.460938 64.261719 50.574219 C 64.207031 50.652344 64.097656 50.613281 64.023438 50.5 C 63.953125 50.402344 63.535156 49.796875 63.082031 49.1875 C 61.339844 46.730469 60.925781 45.265625 60.78125 41.15625 C 60.707031 38.875 60.617188 37.996094 60.433594 37.84375 C 60.289062 37.730469 60.179688 37.445312 60.179688 37.21875 C 60.179688 36.398438 60.980469 36.058594 61.523438 36.648438 Z M 72.144531 42.527344 C 72.363281 42.8125 72.363281 43.496094 72.035156 47.664062 C 71.890625 49.625 72.109375 50.460938 73.179688 51.984375 C 75.371094 55.066406 76.152344 56.625 75.898438 57.328125 C 75.824219 57.519531 75.390625 57.632812 74.445312 57.691406 C 73.359375 57.765625 72.832031 57.917969 71.710938 58.507812 C 70.929688 58.910156 69.933594 59.554688 69.460938 59.957031 C 69.007812 60.355469 68.574219 60.640625 68.484375 60.582031 C 68.011719 60.277344 68.773438 46.617188 69.351562 45.398438 C 69.808594 44.429688 71.402344 42.242188 71.671875 42.242188 C 71.800781 42.242188 72.019531 42.375 72.144531 42.527344 Z M 56.554688 43.402344 C 56.554688 43.609375 56.300781 44.335938 55.992188 45 C 55.304688 46.523438 55.085938 48.273438 55.539062 48.976562 C 55.722656 49.28125 55.8125 49.777344 55.777344 50.367188 L 55.738281 51.277344 L 56.699219 51.375 C 57.808594 51.488281 57.953125 51.660156 58.113281 53.03125 C 58.277344 54.398438 58.058594 55.695312 57.535156 56.644531 C 57.027344 57.578125 56.992188 58.148438 57.390625 61.039062 C 57.535156 62.199219 57.644531 63.53125 57.605469 63.96875 C 57.554688 64.769531 57.535156 64.789062 56.917969 64.75 C 54.21875 64.558594 53.183594 64.445312 53.058594 64.332031 C 52.914062 64.179688 53.292969 61.269531 53.925781 57.957031 C 54.164062 56.683594 54.417969 55.21875 54.472656 54.703125 C 54.542969 54.171875 54.707031 53.296875 54.851562 52.726562 C 55.125 51.734375 55.125 51.699219 54.726562 51.316406 C 54.34375 50.9375 54.328125 50.839844 54.433594 48.445312 C 54.597656 44.789062 55.140625 43.003906 56.101562 43.003906 C 56.445312 43.003906 56.554688 43.097656 56.554688 43.402344 Z M 80.738281 46.75 C 80.847656 47.054688 81.96875 55.253906 82.207031 57.40625 C 82.277344 58.1875 82.261719 58.605469 82.152344 58.605469 C 82.042969 58.605469 81.933594 58.527344 81.898438 58.453125 C 81.878906 58.355469 81.480469 58.015625 81.046875 57.691406 C 80.445312 57.234375 80.046875 57.082031 79.488281 57.082031 C 78.832031 57.082031 78.6875 57.007812 78.597656 56.644531 C 78.398438 55.828125 78.488281 54.324219 78.78125 53.886719 C 79.269531 53.125 79.433594 52.289062 79.578125 49.527344 C 79.703125 46.828125 79.886719 46.160156 80.394531 46.351562 C 80.519531 46.40625 80.683594 46.578125 80.738281 46.75 Z M 77.148438 47.285156 C 77.402344 47.703125 77.4375 48.082031 77.347656 49.527344 C 77.148438 52.726562 76.929688 53.066406 76.042969 51.488281 C 75.152344 49.871094 75.101562 47.875 75.96875 47.132812 C 76.496094 46.695312 76.804688 46.730469 77.148438 47.285156 Z M 62.285156 51.640625 C 62.574219 51.867188 62.628906 52.15625 62.628906 53.695312 C 62.628906 55.105469 62.554688 55.65625 62.230469 56.453125 C 61.738281 57.613281 61.703125 58.851562 62.066406 61.914062 C 62.210938 63.058594 62.285156 64.105469 62.230469 64.253906 C 62.121094 64.558594 61.125 64.863281 59.65625 65.015625 L 58.496094 65.132812 L 58.605469 62.199219 C 58.695312 59.632812 58.765625 59.136719 59.167969 58.222656 C 59.582031 57.273438 60.179688 53.941406 60.179688 52.628906 C 60.179688 51.792969 60.542969 51.375 61.269531 51.375 C 61.632812 51.375 62.085938 51.488281 62.285156 51.640625 Z M 65.855469 53.886719 C 66.273438 56.300781 66.886719 60.8125 66.886719 61.457031 C 66.886719 61.933594 66.726562 62.085938 65.402344 62.867188 C 63.460938 63.96875 63.335938 63.894531 63.371094 61.402344 C 63.390625 60.011719 63.5 59.347656 63.898438 58.222656 C 64.242188 57.253906 64.421875 56.226562 64.511719 54.96875 C 64.621094 53.257812 64.984375 52.136719 65.402344 52.136719 C 65.492188 52.136719 65.691406 52.933594 65.855469 53.886719 Z M 87.914062 56.757812 C 87.914062 57.214844 86.519531 59.269531 85.578125 60.183594 C 84.234375 61.496094 82.894531 62.105469 81.300781 62.105469 C 80.246094 62.105469 79.902344 62.03125 79.433594 61.6875 C 78.363281 60.886719 78.761719 60.125 80.246094 60.125 C 81.859375 60.125 83.347656 59.5 85.285156 58.015625 C 86.191406 57.3125 87.515625 56.511719 87.769531 56.511719 C 87.859375 56.511719 87.914062 56.625 87.914062 56.757812 Z M 87.914062 56.757812 "/>
<path style=" stroke:none;fill-rule:nonzero;fill:rgb(0%,0%,0%);fill-opacity:1;" d="M 60.816406 21.710938 C 57.335938 22.070312 56.429688 22.472656 55.921875 23.859375 C 55.613281 24.699219 55.613281 24.792969 55.921875 26.03125 C 56.101562 26.734375 56.285156 27.589844 56.320312 27.914062 C 56.410156 28.464844 56.484375 28.542969 56.953125 28.542969 C 57.246094 28.542969 57.699219 28.371094 57.953125 28.160156 C 58.441406 27.761719 58.914062 27.664062 58.914062 27.96875 C 58.914062 28.066406 58.675781 28.332031 58.367188 28.578125 C 58.078125 28.808594 57.824219 29.148438 57.824219 29.339844 C 57.824219 30.292969 59.457031 29.738281 59.835938 28.675781 L 60.054688 28.007812 L 61.503906 27.933594 C 62.808594 27.875 62.972656 27.816406 63.371094 27.34375 C 63.933594 26.65625 63.914062 26.066406 63.351562 25.496094 C 62.792969 24.945312 62.792969 24.792969 63.351562 23.652344 C 63.644531 23.117188 63.808594 22.507812 63.769531 22.167969 C 63.714844 21.652344 63.644531 21.597656 63.082031 21.578125 C 62.738281 21.558594 61.722656 21.613281 60.816406 21.710938 Z M 60.816406 21.710938 "/>
<path style=" stroke:none;fill-rule:nonzero;fill:rgb(0%,0%,0%);fill-opacity:1;" d="M 104.101562 88.707031 C 102.21875 89.371094 100.839844 91.066406 99.953125 93.804688 C 99.480469 95.289062 99.480469 99.53125 99.953125 101.035156 C 100.695312 103.375 101.910156 104.976562 103.613281 105.867188 C 106.605469 107.429688 110.609375 106.019531 112.058594 102.902344 C 112.566406 101.816406 112.859375 100.371094 112.621094 100.21875 C 112.550781 100.160156 111.878906 100.085938 111.136719 100.066406 L 109.792969 99.988281 L 109.539062 100.921875 C 109.035156 102.730469 107.925781 103.699219 106.386719 103.699219 C 105.335938 103.699219 104.539062 103.089844 103.867188 101.777344 C 102.527344 99.113281 102.796875 93.785156 104.375 92.035156 C 105.351562 90.953125 106.585938 90.648438 107.65625 91.238281 C 108.433594 91.65625 109.285156 92.890625 109.523438 93.957031 L 109.738281 94.890625 L 111.101562 94.796875 C 111.859375 94.757812 112.53125 94.660156 112.621094 94.585938 C 112.839844 94.355469 112.058594 92.015625 111.425781 91.027344 C 110.699219 89.886719 109.304688 88.761719 108.289062 88.496094 C 107.074219 88.171875 105.351562 88.269531 104.101562 88.707031 Z M 104.101562 88.707031 "/>
<path style=" stroke:none;fill-rule:nonzero;fill:rgb(0%,0%,0%);fill-opacity:1;" d="M 32.9375 88.609375 C 32.882812 88.707031 31.777344 92.226562 30.472656 96.46875 C 29.148438 100.710938 27.96875 104.519531 27.824219 104.9375 C 27.40625 106.15625 27.425781 106.171875 28.804688 106.171875 C 30.035156 106.171875 30.054688 106.171875 30.34375 105.527344 C 30.507812 105.164062 30.632812 104.804688 30.632812 104.6875 C 30.632812 104.59375 30.796875 103.929688 30.996094 103.242188 L 31.378906 101.988281 L 34.421875 101.988281 C 36.652344 101.988281 37.523438 102.042969 37.648438 102.214844 C 37.757812 102.347656 38.101562 103.300781 38.445312 104.308594 L 39.046875 106.171875 L 40.640625 106.171875 C 41.800781 106.171875 42.234375 106.117188 42.234375 105.945312 C 42.234375 105.8125 41.003906 101.816406 39.5 97.097656 L 36.761719 88.476562 L 34.894531 88.476562 C 33.859375 88.476562 32.972656 88.535156 32.9375 88.609375 Z M 35.710938 95.707031 C 36.234375 97.441406 36.707031 98.960938 36.742188 99.074219 C 36.816406 99.265625 36.328125 99.324219 34.640625 99.324219 C 33.101562 99.324219 32.445312 99.265625 32.445312 99.09375 C 32.445312 98.582031 34.511719 92.285156 34.640625 92.417969 C 34.714844 92.492188 35.203125 93.976562 35.710938 95.707031 Z M 35.710938 95.707031 "/>
<path style=" stroke:none;fill-rule:nonzero;fill:rgb(0%,0%,0%);fill-opacity:1;" d="M 50.753906 97.324219 L 50.753906 106.171875 L 61.085938 106.171875 L 61.085938 103.128906 L 54.019531 103.128906 L 54.019531 88.476562 L 50.753906 88.476562 Z M 50.753906 97.324219 "/>
<path style=" stroke:none;fill-rule:nonzero;fill:rgb(0%,0%,0%);fill-opacity:1;" d="M 69.246094 88.515625 C 69.246094 88.554688 69.226562 92.511719 69.226562 97.324219 L 69.226562 106.078125 L 70.765625 106.136719 L 72.328125 106.191406 L 72.328125 99.363281 L 75.191406 99.285156 C 78.433594 99.210938 79.125 99 80.375 97.6875 C 81.371094 96.621094 81.808594 95.5 81.824219 93.902344 C 81.84375 91.105469 80.210938 89.144531 77.4375 88.667969 C 76.550781 88.515625 69.246094 88.382812 69.246094 88.515625 Z M 77.328125 91.828125 C 78.199219 92.265625 78.488281 92.777344 78.488281 93.917969 C 78.488281 95.804688 77.582031 96.355469 74.410156 96.355469 L 72.417969 96.375 L 72.363281 93.9375 L 72.308594 91.523438 L 74.519531 91.523438 C 76.167969 91.523438 76.859375 91.597656 77.328125 91.828125 Z M 77.328125 91.828125 "/>
<path style=" stroke:none;fill-rule:nonzero;fill:rgb(0%,0%,0%);fill-opacity:1;" d="M 87.914062 97.324219 L 87.914062 106.191406 L 89.472656 106.136719 L 91.015625 106.078125 L 91.015625 97.515625 C 91.015625 92.796875 90.996094 88.839844 90.996094 88.707031 C 90.996094 88.535156 90.5625 88.476562 89.457031 88.476562 L 87.914062 88.476562 Z M 87.914062 97.324219 "/>
<path style=" stroke:none;fill-rule:nonzero;fill:rgb(0%,0%,0%);fill-opacity:1;" d="M 44.410156 104.460938 L 44.410156 106.191406 L 45.988281 106.136719 L 47.546875 106.078125 L 47.546875 102.84375 L 45.988281 102.785156 L 44.410156 102.730469 Z M 44.410156 104.460938 "/>
<path style=" stroke:none;fill-rule:nonzero;fill:rgb(0%,0%,0%);fill-opacity:1;" d="M 62.882812 104.082031 C 62.863281 104.804688 62.847656 105.566406 62.828125 105.734375 C 62.808594 106.039062 63.007812 106.078125 64.40625 106.136719 L 65.980469 106.191406 L 65.980469 102.75 L 62.898438 102.75 Z M 62.882812 104.082031 "/>
<path style=" stroke:none;fill-rule:nonzero;fill:rgb(0%,0%,0%);fill-opacity:1;" d="M 81.570312 104.460938 L 81.570312 106.191406 L 83.167969 106.136719 L 84.742188 106.078125 L 84.742188 102.84375 L 83.167969 102.785156 L 81.570312 102.730469 Z M 81.570312 104.460938 "/>
<path style=" stroke:none;fill-rule:nonzero;fill:rgb(0%,0%,0%);fill-opacity:1;" d="M 94.261719 104.460938 L 94.261719 106.191406 L 95.835938 106.136719 L 97.394531 106.078125 L 97.394531 102.84375 L 95.835938 102.785156 L 94.261719 102.730469 Z M 94.261719 104.460938 "/>
<path style=" stroke:none;fill-rule:nonzero;fill:rgb(0%,0%,0%);fill-opacity:1;" d="M 114.5625 104.460938 L 114.5625 106.171875 L 117.824219 106.171875 L 117.824219 102.75 L 114.5625 102.75 Z M 114.5625 104.460938 "/>
<path style=" stroke:none;fill-rule:nonzero;fill:rgb(0%,0%,0%);fill-opacity:1;" d="M 27.679688 109.21875 C 25.902344 109.578125 24.796875 111.578125 25.214844 113.707031 C 25.503906 115.25 26.863281 116.449219 28.3125 116.449219 C 29.21875 116.449219 30.21875 116.105469 30.761719 115.59375 C 31.234375 115.191406 31.234375 115.136719 30.941406 115.003906 C 30.742188 114.925781 30.308594 115.039062 29.835938 115.289062 C 28.914062 115.761719 28.277344 115.800781 27.480469 115.402344 C 25.941406 114.621094 25.667969 111.671875 27.027344 110.472656 C 27.679688 109.902344 29.039062 109.789062 29.890625 110.265625 C 30.363281 110.511719 30.433594 110.511719 30.632812 110.265625 C 30.980469 109.828125 30.578125 109.464844 29.527344 109.238281 C 29.019531 109.121094 28.566406 109.046875 28.496094 109.046875 C 28.421875 109.066406 28.058594 109.140625 27.679688 109.21875 Z M 27.679688 109.21875 "/>
<path style=" stroke:none;fill-rule:nonzero;fill:rgb(0%,0%,0%);fill-opacity:1;" d="M 87.460938 109.21875 C 86.410156 109.503906 85.957031 109.769531 85.503906 110.398438 C 84.125 112.339844 84.527344 114.851562 86.394531 115.992188 C 87.117188 116.449219 87.351562 116.484375 88.421875 116.410156 C 89.09375 116.351562 89.910156 116.164062 90.234375 115.992188 C 90.816406 115.6875 90.816406 115.667969 90.816406 114.261719 L 90.816406 112.832031 L 89.636719 112.832031 C 88.585938 112.832031 88.460938 112.871094 88.460938 113.214844 C 88.460938 113.519531 88.585938 113.59375 89.09375 113.59375 L 89.726562 113.59375 L 89.726562 115.476562 L 88.929688 115.59375 C 87.789062 115.78125 87.101562 115.554688 86.484375 114.832031 C 85.46875 113.613281 85.539062 111.558594 86.648438 110.453125 C 87.101562 109.996094 87.351562 109.902344 88.078125 109.902344 C 88.566406 109.902344 89.09375 110.015625 89.257812 110.148438 C 89.582031 110.433594 90.308594 110.359375 90.398438 110.035156 C 90.5625 109.503906 88.511719 108.933594 87.460938 109.21875 Z M 87.460938 109.21875 "/>
<path style=" stroke:none;fill-rule:nonzero;fill:rgb(0%,0%,0%);fill-opacity:1;" d="M 95.074219 109.121094 C 94.984375 109.160156 94.585938 109.238281 94.222656 109.3125 C 92.246094 109.65625 91.085938 112.492188 92.085938 114.546875 C 93.371094 117.191406 97.613281 116.960938 98.699219 114.203125 C 99.027344 113.421875 99.046875 112.128906 98.773438 111.367188 C 98.519531 110.625 97.558594 109.636719 96.90625 109.425781 C 96.144531 109.179688 95.292969 109.046875 95.074219 109.121094 Z M 96.886719 110.398438 C 98.191406 111.464844 98.210938 113.992188 96.90625 115.058594 C 95.820312 115.972656 94.132812 115.707031 93.300781 114.527344 C 92.863281 113.898438 92.699219 111.976562 93.027344 111.3125 C 93.679688 110.035156 95.820312 109.523438 96.886719 110.398438 Z M 96.886719 110.398438 "/>
<path style=" stroke:none;fill-rule:nonzero;fill:rgb(0%,0%,0%);fill-opacity:1;" d="M 34.097656 109.828125 C 34.007812 110.074219 33.390625 111.539062 32.738281 113.097656 C 32.085938 114.660156 31.539062 116.011719 31.539062 116.105469 C 31.539062 116.183594 31.738281 116.257812 31.976562 116.257812 C 32.355469 116.257812 32.519531 116.066406 32.917969 115.117188 L 33.40625 113.976562 L 34.511719 113.976562 C 35.113281 113.976562 35.710938 114.050781 35.835938 114.125 C 35.945312 114.203125 36.199219 114.699219 36.378906 115.210938 C 36.671875 116.046875 36.78125 116.164062 37.304688 116.21875 C 37.613281 116.257812 37.886719 116.238281 37.886719 116.183594 C 37.886719 116.105469 37.539062 115.230469 37.140625 114.203125 C 35.128906 109.199219 35.273438 109.503906 34.75 109.445312 C 34.367188 109.390625 34.222656 109.484375 34.097656 109.828125 Z M 34.097656 109.828125 "/>
<path style=" stroke:none;fill-rule:nonzero;fill:rgb(0%,0%,0%);fill-opacity:1;" d="M 38.609375 112.832031 L 38.609375 116.257812 L 39.699219 116.257812 L 39.699219 113.6875 C 39.699219 112.28125 39.753906 111.121094 39.84375 111.121094 C 39.914062 111.140625 40.496094 111.917969 41.148438 112.871094 C 42.78125 115.304688 43.632812 116.257812 44.15625 116.257812 L 44.59375 116.257812 L 44.59375 109.40625 L 43.523438 109.40625 L 43.414062 114.546875 L 42.054688 112.605469 C 40.042969 109.730469 39.734375 109.40625 39.136719 109.40625 L 38.609375 109.40625 Z M 38.609375 112.832031 "/>
<path style=" stroke:none;fill-rule:nonzero;fill:rgb(0%,0%,0%);fill-opacity:1;" d="M 47.671875 110.398438 C 47.457031 110.949219 47.074219 111.824219 46.859375 112.355469 C 46.042969 114.242188 45.316406 116.03125 45.316406 116.144531 C 45.316406 116.199219 45.554688 116.257812 45.84375 116.257812 C 46.277344 116.257812 46.40625 116.164062 46.496094 115.726562 C 46.550781 115.441406 46.75 114.925781 46.949219 114.582031 C 47.292969 114.011719 47.367188 113.976562 48.34375 113.976562 C 48.925781 113.976562 49.503906 114.050781 49.632812 114.125 C 49.757812 114.222656 50.011719 114.714844 50.191406 115.230469 C 50.484375 116.046875 50.609375 116.164062 51.101562 116.21875 C 51.40625 116.257812 51.660156 116.21875 51.660156 116.125 C 51.660156 116.046875 51.082031 114.488281 50.355469 112.679688 C 49.125 109.597656 49.015625 109.40625 48.5625 109.40625 C 48.144531 109.40625 48.019531 109.558594 47.671875 110.398438 Z M 47.671875 110.398438 "/>
<path style=" stroke:none;fill-rule:nonzero;fill:rgb(0%,0%,0%);fill-opacity:1;" d="M 52.566406 112.832031 L 52.566406 116.257812 L 54.074219 116.257812 C 55.867188 116.257812 56.808594 115.859375 57.570312 114.8125 C 58.042969 114.183594 58.097656 113.9375 58.097656 112.757812 C 58.097656 111.632812 58.023438 111.292969 57.660156 110.757812 C 57.007812 109.789062 56.03125 109.40625 54.164062 109.40625 L 52.566406 109.40625 Z M 56.011719 110.511719 C 57.171875 111.40625 57.390625 113.195312 56.484375 114.449219 C 55.867188 115.289062 55.503906 115.476562 54.378906 115.59375 L 53.472656 115.667969 L 53.472656 112.945312 C 53.472656 111.464844 53.527344 110.167969 53.621094 110.09375 C 53.835938 109.84375 55.523438 110.132812 56.011719 110.511719 Z M 56.011719 110.511719 "/>
<path style=" stroke:none;fill-rule:nonzero;fill:rgb(0%,0%,0%);fill-opacity:1;" d="M 61.488281 109.730469 C 61.378906 109.921875 60.832031 111.175781 60.273438 112.546875 C 59.710938 113.898438 59.128906 115.269531 58.984375 115.574219 C 58.660156 116.277344 58.640625 116.257812 59.257812 116.257812 C 59.691406 116.257812 59.820312 116.144531 60.089844 115.402344 C 60.542969 114.144531 60.78125 113.976562 61.957031 113.976562 C 62.519531 113.976562 63.082031 114.050781 63.191406 114.125 C 63.300781 114.203125 63.535156 114.714844 63.714844 115.25 C 64.042969 116.183594 64.097656 116.257812 64.660156 116.257812 C 65.257812 116.257812 65.382812 116.105469 65.09375 115.78125 C 65.019531 115.667969 64.660156 114.8125 64.296875 113.878906 C 62.792969 109.902344 62.59375 109.503906 62.101562 109.445312 C 61.8125 109.40625 61.59375 109.503906 61.488281 109.730469 Z M 61.488281 109.730469 "/>
<path style=" stroke:none;fill-rule:nonzero;fill:rgb(0%,0%,0%);fill-opacity:1;" d="M 69.0625 112.832031 L 69.0625 116.257812 L 70.605469 116.257812 C 72.433594 116.257812 73.105469 116.011719 73.921875 115.039062 C 74.609375 114.203125 74.753906 113.707031 74.648438 112.339844 C 74.484375 110.320312 73.25 109.40625 70.660156 109.40625 L 69.0625 109.40625 Z M 72.453125 110.453125 C 73.234375 111.007812 73.632812 111.863281 73.539062 112.945312 C 73.449219 114.414062 72.652344 115.304688 71.21875 115.574219 C 69.988281 115.800781 69.96875 115.761719 69.96875 112.851562 C 69.96875 111.40625 70.023438 110.167969 70.113281 110.09375 C 70.3125 109.863281 71.964844 110.113281 72.453125 110.453125 Z M 72.453125 110.453125 "/>
<path style=" stroke:none;fill-rule:nonzero;fill:rgb(0%,0%,0%);fill-opacity:1;" d="M 76.132812 112.832031 L 76.132812 116.257812 L 78.398438 116.257812 C 80.539062 116.257812 80.664062 116.238281 80.664062 115.878906 C 80.664062 115.515625 80.539062 115.496094 78.851562 115.496094 L 77.039062 115.496094 L 77.039062 113.023438 L 78.488281 113.023438 C 79.8125 113.023438 79.941406 112.984375 79.941406 112.644531 C 79.941406 112.300781 79.8125 112.261719 78.488281 112.261719 L 77.039062 112.261719 L 77.039062 110.167969 L 78.761719 110.167969 C 80.355469 110.167969 80.484375 110.148438 80.484375 109.789062 C 80.484375 109.425781 80.355469 109.40625 78.308594 109.40625 L 76.132812 109.40625 Z M 76.132812 112.832031 "/>
<path style=" stroke:none;fill-rule:nonzero;fill:rgb(0%,0%,0%);fill-opacity:1;" d="M 100.242188 112.832031 L 100.242188 116.257812 L 101.328125 116.257812 L 101.328125 111.785156 L 102.125 113.859375 C 102.5625 115.003906 103.035156 116.011719 103.179688 116.085938 C 103.832031 116.542969 104.121094 116.199219 104.953125 113.976562 L 105.769531 111.804688 L 105.878906 116.257812 L 106.949219 116.257812 L 106.949219 109.390625 L 106.386719 109.445312 C 105.878906 109.503906 105.789062 109.617188 105.027344 111.597656 C 103.488281 115.574219 103.648438 115.25 103.433594 114.714844 C 103.339844 114.46875 103.035156 113.746094 102.78125 113.117188 C 102.507812 112.492188 102.074219 111.40625 101.78125 110.683594 C 101.328125 109.542969 101.21875 109.40625 100.75 109.40625 L 100.242188 109.40625 Z M 100.242188 112.832031 "/>
<path style=" stroke:none;fill-rule:nonzero;fill:rgb(0%,0%,0%);fill-opacity:1;" d="M 108.398438 112.832031 L 108.398438 116.257812 L 110.664062 116.257812 C 112.804688 116.257812 112.929688 116.238281 112.929688 115.878906 C 112.929688 115.515625 112.804688 115.496094 111.117188 115.496094 L 109.304688 115.496094 L 109.304688 113.023438 L 110.753906 113.023438 C 112.078125 113.023438 112.207031 112.984375 112.207031 112.644531 C 112.207031 112.320312 112.058594 112.28125 110.808594 112.222656 L 109.394531 112.167969 L 109.339844 111.160156 L 109.285156 110.167969 L 111.117188 110.167969 C 112.765625 110.167969 112.949219 110.132812 112.894531 109.828125 C 112.839844 109.542969 112.566406 109.503906 110.609375 109.445312 L 108.398438 109.390625 Z M 108.398438 112.832031 "/>
<path style=" stroke:none;fill-rule:nonzero;fill:rgb(0%,0%,0%);fill-opacity:1;" d="M 113.65625 109.789062 C 113.65625 110.148438 113.78125 110.167969 115.558594 110.167969 C 116.609375 110.167969 117.460938 110.246094 117.460938 110.339844 C 117.460938 110.417969 117.152344 110.875 116.773438 111.328125 C 114.886719 113.613281 113.65625 115.382812 113.65625 115.800781 L 113.65625 116.257812 L 116.300781 116.257812 C 118.640625 116.257812 118.929688 116.21875 118.839844 115.953125 C 118.785156 115.78125 118.730469 115.609375 118.730469 115.574219 C 118.730469 115.535156 117.878906 115.496094 116.828125 115.496094 C 115.59375 115.496094 114.925781 115.421875 114.925781 115.289062 C 114.925781 115.171875 115.285156 114.601562 115.722656 114.011719 C 116.175781 113.421875 117.027344 112.261719 117.625 111.445312 C 118.242188 110.644531 118.730469 109.84375 118.730469 109.695312 C 118.730469 109.445312 118.3125 109.40625 116.191406 109.40625 C 113.78125 109.40625 113.65625 109.425781 113.65625 109.789062 Z M 113.65625 109.789062 "/>
</g>
</svg>
